STARTFONT 2.1
COMMENT
COMMENT Generated from Bitstream Speedo outlines via sptobdf
COMMENT
COMMENT Font size: 52115
COMMENT Minimum font buffer size: 5404
COMMENT Minimum character buffer size: 737
COMMENT Header size: 420
COMMENT
FONT Swiss 721
SIZE 24 72 72
FONTBOUNDINGBOX -167 -256 1228 1009
STARTPROPERTIES 10
RESOLUTION_X 72
RESOLUTION_Y 72
POINT_SIZE 240
PIXEL_SIZE 24
COPYRIGHT "Copyright 1989-1991 by Bitstream Inc. All rights reserved."
FACE_NAME "Swiss 721"
WIDTH_NAME "normal"
WEIGHT_NAME "normal"
FONT_ASCENT 21
FONT_DESCENT 7
ENDPROPERTIES
CHARS 564
STARTCHAR 0
ENCODING 32
SWIDTH 2 0
DWIDTH 6 0
BBX 1 1 0 0
BITMAP
COMMENT  
00
ENDCHAR
STARTCHAR 1
ENCODING 33
SWIDTH 2 0
DWIDTH 7 0
BBX 2 17 3 0
BITMAP
COMMENT **
COMMENT **
COMMENT **
COMMENT **
COMMENT **
COMMENT **
COMMENT **
COMMENT **
COMMENT **
COMMENT **
COMMENT **
COMMENT **
COMMENT   
COMMENT   
COMMENT **
COMMENT **
COMMENT **
C0
C0
C0
C0
C0
C0
C0
C0
C0
C0
C0
C0
00
00
C0
C0
C0
ENDCHAR
STARTCHAR 2
ENCODING 34
SWIDTH 2 0
DWIDTH 7 0
BBX 6 7 1 10
BITMAP
COMMENT **  **
COMMENT **  **
COMMENT **  **
COMMENT **  **
COMMENT **  **
COMMENT **  **
COMMENT **  **
CC
CC
CC
CC
CC
CC
CC
ENDCHAR
STARTCHAR 3
ENCODING 35
SWIDTH 7 0
DWIDTH 18 0
BBX 16 17 1 0
BITMAP
COMMENT        **   **  
COMMENT        **   **  
COMMENT        **   *   
COMMENT       **   **   
COMMENT       **   **   
COMMENT   **************
COMMENT   **************
COMMENT      **   **    
COMMENT      **   *     
COMMENT     **   **     
COMMENT **************  
COMMENT **************  
COMMENT    **   **      
COMMENT    **   **      
COMMENT    **  **       
COMMENT   **   **       
COMMENT   **   **       
018C
018C
0188
0318
0318
3FFF
3FFF
0630
0620
0C60
FFFC
FFFC
18C0
18C0
1980
3180
3180
ENDCHAR
STARTCHAR 4
ENCODING 36
SWIDTH 5 0
DWIDTH 13 0
BBX 12 21 0 -3
BITMAP
COMMENT      *      
COMMENT      *      
COMMENT    *****    
COMMENT  *********  
COMMENT ***  *  **  
COMMENT **   *  **  
COMMENT **   *      
COMMENT **   *      
COMMENT  *** *      
COMMENT   ******    
COMMENT      *****  
COMMENT      *  *** 
COMMENT      *   ** 
COMMENT **   *   ** 
COMMENT **   *   ** 
COMMENT ***  *  **  
COMMENT  *********  
COMMENT    *****    
COMMENT      *      
COMMENT      *      
COMMENT             
0400
0400
1F00
7FC0
E4C0
C4C0
C400
C400
7400
3F00
07C0
04E0
0460
C460
C460
E4C0
7FC0
1F00
0400
0400
0000
ENDCHAR
STARTCHAR 5
ENCODING 37
SWIDTH 8 0
DWIDTH 20 0
BBX 19 17 1 -1
BITMAP
COMMENT   ****        *    
COMMENT  ******      *     
COMMENT ***  ***    **     
COMMENT **    **    *      
COMMENT **    **   *       
COMMENT ***  ***   *       
COMMENT  ******   *        
COMMENT   ****   *         
COMMENT          *   ****  
COMMENT         *   ****** 
COMMENT        *   ***  ***
COMMENT        *   **    **
COMMENT       *    **    **
COMMENT      **    ***  ***
COMMENT      *      ****** 
COMMENT     *        ****  
COMMENT                    
3C0200
7E0400
E70C00
C30800
C31000
E71000
7E2000
3C4000
004780
008FC0
011CE0
011860
021860
061CE0
040FC0
080780
000000
ENDCHAR
STARTCHAR 6
ENCODING 38
SWIDTH 6 0
DWIDTH 16 0
BBX 14 17 1 0
BITMAP
COMMENT     ****      
COMMENT    ******     
COMMENT   ***  ***    
COMMENT   **    **    
COMMENT   **    **    
COMMENT   ***  **     
COMMENT    ** ***     
COMMENT     ****      
COMMENT   *****       
COMMENT  *** ***   ** 
COMMENT  **   ***  ** 
COMMENT **     *****  
COMMENT **      ****  
COMMENT **       ***  
COMMENT  **    ****** 
COMMENT  ********  ***
COMMENT    ****     **
0F00
1F80
39C0
30C0
30C0
3980
1B80
0F00
3E00
7718
6398
C1F0
C0F0
C070
61F8
7F9C
1E0C
ENDCHAR
STARTCHAR 7
ENCODING 39
SWIDTH 2 0
DWIDTH 6 0
BBX 2 6 2 11
BITMAP
COMMENT **
COMMENT **
COMMENT **
COMMENT  *
COMMENT  *
COMMENT * 
C0
C0
C0
40
40
80
ENDCHAR
STARTCHAR 8
ENCODING 40
SWIDTH 3 0
DWIDTH 8 0
BBX 5 22 2 -5
BITMAP
COMMENT    **
COMMENT    * 
COMMENT   ** 
COMMENT   *  
COMMENT  **  
COMMENT  **  
COMMENT  **  
COMMENT **   
COMMENT **   
COMMENT **   
COMMENT **   
COMMENT **   
COMMENT **   
COMMENT **   
COMMENT **   
COMMENT  **  
COMMENT  **  
COMMENT  **  
COMMENT   *  
COMMENT   ** 
COMMENT    * 
COMMENT    **
18
10
30
20
60
60
60
C0
C0
C0
C0
C0
C0
C0
C0
60
60
60
20
30
10
18
ENDCHAR
STARTCHAR 9
ENCODING 41
SWIDTH 3 0
DWIDTH 8 0
BBX 5 22 0 -5
BITMAP
COMMENT **   
COMMENT  *   
COMMENT  **  
COMMENT   *  
COMMENT   ** 
COMMENT   ** 
COMMENT   ** 
COMMENT    **
COMMENT    **
COMMENT    **
COMMENT    **
COMMENT    **
COMMENT    **
COMMENT    **
COMMENT    **
COMMENT   ** 
COMMENT   ** 
COMMENT   ** 
COMMENT   *  
COMMENT  **  
COMMENT  *   
COMMENT **   
C0
40
60
20
30
30
30
18
18
18
18
18
18
18
18
30
30
30
20
60
40
C0
ENDCHAR
STARTCHAR 10
ENCODING 42
SWIDTH 5 0
DWIDTH 12 0
BBX 10 10 1 7
BITMAP
COMMENT     **    
COMMENT     **    
COMMENT **  **  **
COMMENT **********
COMMENT   ******  
COMMENT    ****   
COMMENT   ******  
COMMENT  ***  *** 
COMMENT   *    *  
COMMENT           
0C00
0C00
CCC0
FFC0
3F00
1E00
3F00
7380
2100
0000
ENDCHAR
STARTCHAR 11
ENCODING 43
SWIDTH 7 0
DWIDTH 19 0
BBX 14 14 3 0
BITMAP
COMMENT       **      
COMMENT       **      
COMMENT       **      
COMMENT       **      
COMMENT       **      
COMMENT       **      
COMMENT **************
COMMENT **************
COMMENT       **      
COMMENT       **      
COMMENT       **      
COMMENT       **      
COMMENT       **      
COMMENT       **      
0300
0300
0300
0300
0300
0300
FFFC
FFFC
0300
0300
0300
0300
0300
0300
ENDCHAR
STARTCHAR 12
ENCODING 44
SWIDTH 2 0
DWIDTH 6 0
BBX 2 6 2 -3
BITMAP
COMMENT **
COMMENT **
COMMENT **
COMMENT  *
COMMENT  *
COMMENT * 
C0
C0
C0
40
40
80
ENDCHAR
STARTCHAR 13
ENCODING 45
SWIDTH 2 0
DWIDTH 7 0
BBX 6 2 1 5
BITMAP
COMMENT ******
COMMENT ******
FC
FC
ENDCHAR
STARTCHAR 14
ENCODING 46
SWIDTH 2 0
DWIDTH 6 0
BBX 2 3 2 0
BITMAP
COMMENT **
COMMENT **
COMMENT **
C0
C0
C0
ENDCHAR
STARTCHAR 15
ENCODING 47
SWIDTH 2 0
DWIDTH 7 0
BBX 7 20 0 -3
BITMAP
COMMENT      **
COMMENT      **
COMMENT      * 
COMMENT      * 
COMMENT     ** 
COMMENT     *  
COMMENT     *  
COMMENT    **  
COMMENT    **  
COMMENT    *   
COMMENT    *   
COMMENT   **   
COMMENT   *    
COMMENT   *    
COMMENT   *    
COMMENT  **    
COMMENT  *     
COMMENT  *     
COMMENT **     
COMMENT **     
06
06
04
04
0C
08
08
18
18
10
10
30
20
20
20
60
40
40
C0
C0
ENDCHAR
STARTCHAR 16
ENCODING 48
SWIDTH 5 0
DWIDTH 13 0
BBX 12 16 1 0
BITMAP
COMMENT    ******   
COMMENT   ********  
COMMENT  ***    *** 
COMMENT  **      ** 
COMMENT ***      ***
COMMENT **        **
COMMENT **        **
COMMENT **        **
COMMENT **        **
COMMENT **        **
COMMENT **        **
COMMENT ***      ***
COMMENT  **      ** 
COMMENT  ***    *** 
COMMENT   ********  
COMMENT    ******   
1F80
3FC0
70E0
6060
E070
C030
C030
C030
C030
C030
C030
E070
6060
70E0
3FC0
1F80
ENDCHAR
STARTCHAR 17
ENCODING 49
SWIDTH 5 0
DWIDTH 13 0
BBX 10 21 0 -3
BITMAP
COMMENT     **    
COMMENT     **    
COMMENT    ***    
COMMENT ******    
COMMENT ******    
COMMENT     **    
COMMENT     **    
COMMENT     **    
COMMENT     **    
COMMENT     **    
COMMENT     **    
COMMENT     **    
COMMENT     **    
COMMENT     **    
COMMENT     **    
COMMENT     **    
COMMENT           
COMMENT           
COMMENT           
COMMENT           
COMMENT           
0C00
0C00
1C00
FC00
FC00
0C00
0C00
0C00
0C00
0C00
0C00
0C00
0C00
0C00
0C00
0C00
0000
0000
0000
0000
0000
ENDCHAR
STARTCHAR 18
ENCODING 50
SWIDTH 5 0
DWIDTH 13 0
BBX 12 16 0 0
BITMAP
COMMENT    *****    
COMMENT   ********  
COMMENT  ***    **  
COMMENT ***      ** 
COMMENT **       ** 
COMMENT **       ** 
COMMENT          ** 
COMMENT         **  
COMMENT       ***   
COMMENT     ****    
COMMENT   ****      
COMMENT  ***        
COMMENT  **         
COMMENT **          
COMMENT *********** 
COMMENT *********** 
1F00
3FC0
70C0
E060
C060
C060
0060
00C0
0380
0F00
3C00
7000
6000
C000
FFE0
FFE0
ENDCHAR
STARTCHAR 19
ENCODING 51
SWIDTH 5 0
DWIDTH 13 0
BBX 12 16 1 0
BITMAP
COMMENT    *****    
COMMENT   ********  
COMMENT  ***    *** 
COMMENT  **      ** 
COMMENT  **      ** 
COMMENT **      *** 
COMMENT      *****  
COMMENT      ****** 
COMMENT         *** 
COMMENT           **
COMMENT **        **
COMMENT **        **
COMMENT ***      ***
COMMENT  ***    *** 
COMMENT   ********  
COMMENT    ******   
1F00
3FC0
70E0
6060
6060
C0E0
07C0
07E0
00E0
0030
C030
C030
E070
70E0
3FC0
1F80
ENDCHAR
STARTCHAR 20
ENCODING 52
SWIDTH 5 0
DWIDTH 13 0
BBX 12 16 1 0
BITMAP
COMMENT        **   
COMMENT       ***   
COMMENT      ****   
COMMENT     ** **   
COMMENT     ** **   
COMMENT    **  **   
COMMENT   **   **   
COMMENT   **   **   
COMMENT  **    **   
COMMENT **     **   
COMMENT ************
COMMENT ************
COMMENT        **   
COMMENT        **   
COMMENT        **   
COMMENT        **   
0180
0380
0780
0D80
0D80
1980
3180
3180
6180
C180
FFF0
FFF0
0180
0180
0180
0180
ENDCHAR
STARTCHAR 21
ENCODING 53
SWIDTH 5 0
DWIDTH 13 0
BBX 12 16 1 0
BITMAP
COMMENT  ********** 
COMMENT  ********** 
COMMENT  **         
COMMENT  **         
COMMENT  **         
COMMENT **  *****   
COMMENT **********  
COMMENT ***     *** 
COMMENT          ***
COMMENT           **
COMMENT           **
COMMENT **        **
COMMENT **       ***
COMMENT  **     *** 
COMMENT   ********  
COMMENT    ******   
7FE0
7FE0
6000
6000
6000
CF80
FFC0
E0E0
0070
0030
0030
C030
C070
60E0
3FC0
1F80
ENDCHAR
STARTCHAR 22
ENCODING 54
SWIDTH 5 0
DWIDTH 13 0
BBX 12 16 1 0
BITMAP
COMMENT     *****   
COMMENT   ********* 
COMMENT   **     ** 
COMMENT  **       **
COMMENT  **         
COMMENT **  *****   
COMMENT **********  
COMMENT ****    *** 
COMMENT ***      ***
COMMENT **        **
COMMENT **        **
COMMENT **        **
COMMENT  **      ***
COMMENT  ***    *** 
COMMENT   ********  
COMMENT    ******   
0F80
3FE0
3060
6030
6000
CF80
FFC0
F0E0
E070
C030
C030
C030
6070
70E0
3FC0
1F80
ENDCHAR
STARTCHAR 23
ENCODING 55
SWIDTH 5 0
DWIDTH 13 0
BBX 11 16 1 0
BITMAP
COMMENT ***********
COMMENT ***********
COMMENT         ** 
COMMENT         ** 
COMMENT        **  
COMMENT       **   
COMMENT       **   
COMMENT      **    
COMMENT     ***    
COMMENT     **     
COMMENT     **     
COMMENT    ***     
COMMENT    **      
COMMENT    **      
COMMENT   ***      
COMMENT   ***      
FFE0
FFE0
00C0
00C0
0180
0300
0300
0600
0E00
0C00
0C00
1C00
1800
1800
3800
3800
ENDCHAR
STARTCHAR 24
ENCODING 56
SWIDTH 5 0
DWIDTH 13 0
BBX 11 16 1 0
BITMAP
COMMENT    *****   
COMMENT   *******  
COMMENT  ***   *** 
COMMENT  **     ** 
COMMENT  **     ** 
COMMENT  ***   *** 
COMMENT   *******  
COMMENT   *******  
COMMENT  **     ** 
COMMENT **       **
COMMENT **       **
COMMENT **       **
COMMENT **       **
COMMENT  ***   *** 
COMMENT  ********* 
COMMENT    *****   
1F00
3F80
71C0
60C0
60C0
71C0
3F80
3F80
60C0
C060
C060
C060
C060
71C0
7FC0
1F00
ENDCHAR
STARTCHAR 25
ENCODING 57
SWIDTH 5 0
DWIDTH 13 0
BBX 12 16 1 0
BITMAP
COMMENT    *****    
COMMENT   ********  
COMMENT  ***    *** 
COMMENT ***      ** 
COMMENT **        **
COMMENT **        **
COMMENT **        **
COMMENT ***      ***
COMMENT  ***    ****
COMMENT   **********
COMMENT    *****  **
COMMENT          ** 
COMMENT **       ** 
COMMENT ***     **  
COMMENT  *********  
COMMENT    *****    
1F00
3FC0
70E0
E060
C030
C030
C030
E070
70F0
3FF0
1F30
0060
C060
E0C0
7FC0
1F00
ENDCHAR
STARTCHAR 26
ENCODING 58
SWIDTH 2 0
DWIDTH 7 0
BBX 2 13 2 0
BITMAP
COMMENT **
COMMENT **
COMMENT **
COMMENT   
COMMENT   
COMMENT   
COMMENT   
COMMENT   
COMMENT   
COMMENT   
COMMENT **
COMMENT **
COMMENT **
C0
C0
C0
00
00
00
00
00
00
00
C0
C0
C0
ENDCHAR
STARTCHAR 27
ENCODING 59
SWIDTH 2 0
DWIDTH 7 0
BBX 2 16 2 -3
BITMAP
COMMENT **
COMMENT **
COMMENT **
COMMENT   
COMMENT   
COMMENT   
COMMENT   
COMMENT   
COMMENT   
COMMENT   
COMMENT **
COMMENT **
COMMENT **
COMMENT  *
COMMENT  *
COMMENT * 
C0
C0
C0
00
00
00
00
00
00
00
C0
C0
C0
40
40
80
ENDCHAR
STARTCHAR 28
ENCODING 60
SWIDTH 7 0
DWIDTH 19 0
BBX 14 13 3 1
BITMAP
COMMENT              *
COMMENT           ****
COMMENT         ****  
COMMENT      *****    
COMMENT    ****       
COMMENT  ****         
COMMENT ***           
COMMENT  ****         
COMMENT    ****       
COMMENT      *****    
COMMENT         ****  
COMMENT           ****
COMMENT              *
0004
003C
00F0
07C0
1E00
7800
E000
7800
1E00
07C0
00F0
003C
0004
ENDCHAR
STARTCHAR 29
ENCODING 61
SWIDTH 7 0
DWIDTH 19 0
BBX 14 7 3 4
BITMAP
COMMENT **************
COMMENT **************
COMMENT               
COMMENT               
COMMENT               
COMMENT **************
COMMENT **************
FFFC
FFFC
0000
0000
0000
FFFC
FFFC
ENDCHAR
STARTCHAR 30
ENCODING 62
SWIDTH 7 0
DWIDTH 19 0
BBX 14 13 3 1
BITMAP
COMMENT *             
COMMENT ****          
COMMENT   ****        
COMMENT     *****     
COMMENT        ****   
COMMENT          **** 
COMMENT             **
COMMENT          **** 
COMMENT        ****   
COMMENT     *****     
COMMENT   ****        
COMMENT ****          
COMMENT *             
8000
F000
3C00
0F80
01E0
0078
000C
0078
01E0
0F80
3C00
F000
8000
ENDCHAR
STARTCHAR 31
ENCODING 63
SWIDTH 5 0
DWIDTH 12 0
BBX 10 17 1 0
BITMAP
COMMENT    ****   
COMMENT  ******** 
COMMENT  ***   ***
COMMENT ***     **
COMMENT **      **
COMMENT **      **
COMMENT        ***
COMMENT       *** 
COMMENT      ***  
COMMENT      **   
COMMENT     **    
COMMENT     **    
COMMENT           
COMMENT           
COMMENT     **    
COMMENT     **    
COMMENT     **    
1E00
7F80
71C0
E0C0
C0C0
C0C0
01C0
0380
0700
0600
0C00
0C00
0000
0000
0C00
0C00
0C00
ENDCHAR
STARTCHAR 32
ENCODING 64
SWIDTH 10 0
DWIDTH 24 0
BBX 22 21 1 -4
BITMAP
COMMENT          *******      
COMMENT       ***       **    
COMMENT     **            *   
COMMENT    **              *  
COMMENT   **                * 
COMMENT   *      ****  **   * 
COMMENT  *     ***   ***     *
COMMENT  *    **      **     *
COMMENT *     **      **     *
COMMENT *    **       **     *
COMMENT *    **      **      *
COMMENT *    **      **     * 
COMMENT *    **      **     * 
COMMENT *    **     ***    *  
COMMENT  *    **   ****  **   
COMMENT  *     ****  *****    
COMMENT   *                   
COMMENT   **              *   
COMMENT    **            **   
COMMENT      ***      ****    
COMMENT         *******       
007F00
0380C0
0C0020
180010
300008
207988
41C704
430304
830304
860304
860604
860608
860608
860E10
431E60
41E7C0
200000
300020
180060
0703C0
00FE00
ENDCHAR
STARTCHAR 33
ENCODING 65
SWIDTH 6 0
DWIDTH 15 0
BBX 15 17 0 0
BITMAP
COMMENT       ***      
COMMENT       ***      
COMMENT      *****     
COMMENT      ** **     
COMMENT      ** **     
COMMENT     **   **    
COMMENT     **   **    
COMMENT    ***   **    
COMMENT    **     **   
COMMENT    **     **   
COMMENT   ***********  
COMMENT   ***********  
COMMENT   **       **  
COMMENT  ***       *** 
COMMENT  **         ** 
COMMENT  **         ** 
COMMENT **          ***
0380
0380
07C0
06C0
06C0
0C60
0C60
1C60
1830
1830
3FF8
3FF8
3018
701C
600C
600C
C00E
ENDCHAR
STARTCHAR 34
ENCODING 66
SWIDTH 6 0
DWIDTH 15 0
BBX 13 17 2 0
BITMAP
COMMENT **********   
COMMENT ***********  
COMMENT **       *** 
COMMENT **        ** 
COMMENT **        ** 
COMMENT **        ** 
COMMENT **       **  
COMMENT **********   
COMMENT ************ 
COMMENT **       *** 
COMMENT **         **
COMMENT **         **
COMMENT **         **
COMMENT **         **
COMMENT **       *** 
COMMENT ************ 
COMMENT **********   
FFC0
FFE0
C070
C030
C030
C030
C060
FFC0
FFF0
C070
C018
C018
C018
C018
C070
FFF0
FFC0
ENDCHAR
STARTCHAR 35
ENCODING 67
SWIDTH 7 0
DWIDTH 17 0
BBX 15 17 1 0
BITMAP
COMMENT      ******    
COMMENT    **********  
COMMENT   ***     **** 
COMMENT  ***        ** 
COMMENT  **          **
COMMENT ***            
COMMENT **             
COMMENT **             
COMMENT **             
COMMENT **             
COMMENT **             
COMMENT ***          **
COMMENT  **          **
COMMENT  ***        ** 
COMMENT   ***     ***  
COMMENT    *********   
COMMENT      ******    
07E0
1FF8
383C
700C
6006
E000
C000
C000
C000
C000
C000
E006
6006
700C
3838
1FF0
07E0
ENDCHAR
STARTCHAR 36
ENCODING 68
SWIDTH 6 0
DWIDTH 16 0
BBX 14 17 2 0
BITMAP
COMMENT **********    
COMMENT ***********   
COMMENT **       ***  
COMMENT **        *** 
COMMENT **         ** 
COMMENT **          **
COMMENT **          **
COMMENT **          **
COMMENT **          **
COMMENT **          **
COMMENT **          **
COMMENT **          **
COMMENT **         ** 
COMMENT **        *** 
COMMENT **       ***  
COMMENT ***********   
COMMENT *********     
FFC0
FFE0
C070
C038
C018
C00C
C00C
C00C
C00C
C00C
C00C
C00C
C018
C038
C070
FFE0
FF80
ENDCHAR
STARTCHAR 37
ENCODING 69
SWIDTH 6 0
DWIDTH 15 0
BBX 12 17 2 0
BITMAP
COMMENT ************
COMMENT ************
COMMENT **          
COMMENT **          
COMMENT **          
COMMENT **          
COMMENT **          
COMMENT *********** 
COMMENT *********** 
COMMENT **          
COMMENT **          
COMMENT **          
COMMENT **          
COMMENT **          
COMMENT **          
COMMENT ************
COMMENT ************
FFF0
FFF0
C000
C000
C000
C000
C000
FFE0
FFE0
C000
C000
C000
C000
C000
C000
FFF0
FFF0
ENDCHAR
STARTCHAR 38
ENCODING 70
SWIDTH 5 0
DWIDTH 13 0
BBX 12 17 2 0
BITMAP
COMMENT ************
COMMENT ************
COMMENT **          
COMMENT **          
COMMENT **          
COMMENT **          
COMMENT **          
COMMENT *********** 
COMMENT *********** 
COMMENT **          
COMMENT **          
COMMENT **          
COMMENT **          
COMMENT **          
COMMENT **          
COMMENT **          
COMMENT **          
FFF0
FFF0
C000
C000
C000
C000
C000
FFE0
FFE0
C000
C000
C000
C000
C000
C000
C000
C000
ENDCHAR
STARTCHAR 39
ENCODING 71
SWIDTH 7 0
DWIDTH 18 0
BBX 16 17 1 0
BITMAP
COMMENT      *******    
COMMENT    ***********  
COMMENT   ****     **** 
COMMENT  ***         ** 
COMMENT  **           **
COMMENT ***             
COMMENT **              
COMMENT **              
COMMENT **      ********
COMMENT **      ********
COMMENT **            **
COMMENT ***           **
COMMENT  **          ***
COMMENT  ***         ***
COMMENT   ****     *****
COMMENT    ********** **
COMMENT      ******    *
07F0
1FFC
3C1E
7006
6003
E000
C000
C000
C0FF
C0FF
C003
E003
6007
7007
3C1F
1FFB
07E1
ENDCHAR
STARTCHAR 40
ENCODING 72
SWIDTH 7 0
DWIDTH 17 0
BBX 14 17 2 0
BITMAP
COMMENT **          **
COMMENT **          **
COMMENT **          **
COMMENT **          **
COMMENT **          **
COMMENT **          **
COMMENT **          **
COMMENT **************
COMMENT **************
COMMENT **          **
COMMENT **          **
COMMENT **          **
COMMENT **          **
COMMENT **          **
COMMENT **          **
COMMENT **          **
COMMENT **          **
C00C
C00C
C00C
C00C
C00C
C00C
C00C
FFFC
FFFC
C00C
C00C
C00C
C00C
C00C
C00C
C00C
C00C
ENDCHAR
STARTCHAR 41
ENCODING 73
SWIDTH 2 0
DWIDTH 6 0
BBX 2 17 2 0
BITMAP
COMMENT **
COMMENT **
COMMENT **
COMMENT **
COMMENT **
COMMENT **
COMMENT **
COMMENT **
COMMENT **
COMMENT **
COMMENT **
COMMENT **
COMMENT **
COMMENT **
COMMENT **
COMMENT **
COMMENT **
C0
C0
C0
C0
C0
C0
C0
C0
C0
C0
C0
C0
C0
C0
C0
C0
C0
ENDCHAR
STARTCHAR 42
ENCODING 74
SWIDTH 5 0
DWIDTH 12 0
BBX 10 17 0 0
BITMAP
COMMENT         **
COMMENT         **
COMMENT         **
COMMENT         **
COMMENT         **
COMMENT         **
COMMENT         **
COMMENT         **
COMMENT         **
COMMENT         **
COMMENT         **
COMMENT **      **
COMMENT **      **
COMMENT **      **
COMMENT  **    ** 
COMMENT  ******** 
COMMENT    *****  
00C0
00C0
00C0
00C0
00C0
00C0
00C0
00C0
00C0
00C0
00C0
C0C0
C0C0
C0C0
6180
7F80
1F00
ENDCHAR
STARTCHAR 43
ENCODING 75
SWIDTH 6 0
DWIDTH 15 0
BBX 14 17 2 0
BITMAP
COMMENT **        *** 
COMMENT **       ***  
COMMENT **      ***   
COMMENT **     ***    
COMMENT **    ***     
COMMENT **   ***      
COMMENT **  ***       
COMMENT ** ****       
COMMENT ********      
COMMENT ****  **      
COMMENT ***   ***     
COMMENT **     ***    
COMMENT **      ***   
COMMENT **      ***   
COMMENT **       ***  
COMMENT **        *** 
COMMENT **         ***
C038
C070
C0E0
C1C0
C380
C700
CE00
DE00
FF00
F300
E380
C1C0
C0E0
C0E0
C070
C038
C01C
ENDCHAR
STARTCHAR 44
ENCODING 76
SWIDTH 5 0
DWIDTH 12 0
BBX 11 17 2 0
BITMAP
COMMENT **         
COMMENT **         
COMMENT **         
COMMENT **         
COMMENT **         
COMMENT **         
COMMENT **         
COMMENT **         
COMMENT **         
COMMENT **         
COMMENT **         
COMMENT **         
COMMENT **         
COMMENT **         
COMMENT **         
COMMENT ***********
COMMENT ***********
C000
C000
C000
C000
C000
C000
C000
C000
C000
C000
C000
C000
C000
C000
C000
FFE0
FFE0
ENDCHAR
STARTCHAR 45
ENCODING 77
SWIDTH 7 0
DWIDTH 19 0
BBX 16 17 2 0
BITMAP
COMMENT ***          ***
COMMENT ****        ****
COMMENT ****        ****
COMMENT ****        ****
COMMENT ** **      ** **
COMMENT ** **      ** **
COMMENT ** **      ** **
COMMENT **  **    **  **
COMMENT **  **    **  **
COMMENT **  **    **  **
COMMENT **   **  **   **
COMMENT **   **  **   **
COMMENT **   **  **   **
COMMENT **    ****    **
COMMENT **    ****    **
COMMENT **    ****    **
COMMENT **     **     **
E007
F00F
F00F
F00F
D81B
D81B
D81B
CC33
CC33
CC33
C663
C663
C663
C3C3
C3C3
C3C3
C183
ENDCHAR
STARTCHAR 46
ENCODING 78
SWIDTH 7 0
DWIDTH 17 0
BBX 14 17 2 0
BITMAP
COMMENT ***         **
COMMENT ***         **
COMMENT ****        **
COMMENT *****       **
COMMENT ** ***      **
COMMENT ** ***      **
COMMENT **  ***     **
COMMENT **   ***    **
COMMENT **    **    **
COMMENT **    ***   **
COMMENT **     ***  **
COMMENT **      *** **
COMMENT **      *** **
COMMENT **       *****
COMMENT **        ****
COMMENT **         ***
COMMENT **         ***
E00C
E00C
F00C
F80C
DC0C
DC0C
CE0C
C70C
C30C
C38C
C1CC
C0EC
C0EC
C07C
C03C
C01C
C01C
ENDCHAR
STARTCHAR 47
ENCODING 79
SWIDTH 7 0
DWIDTH 18 0
BBX 16 17 1 0
BITMAP
COMMENT      ******     
COMMENT    **********   
COMMENT   ***      ***  
COMMENT  ***        *** 
COMMENT  **          ** 
COMMENT ***          ***
COMMENT **            **
COMMENT **            **
COMMENT **            **
COMMENT **            **
COMMENT **            **
COMMENT ***          ***
COMMENT  **          ** 
COMMENT  ***        *** 
COMMENT   ***      ***  
COMMENT    **********   
COMMENT      ******     
07E0
1FF8
381C
700E
6006
E007
C003
C003
C003
C003
C003
E007
6006
700E
381C
1FF8
07E0
ENDCHAR
STARTCHAR 48
ENCODING 80
SWIDTH 6 0
DWIDTH 15 0
BBX 12 17 2 0
BITMAP
COMMENT *********   
COMMENT *********** 
COMMENT **       ** 
COMMENT **        **
COMMENT **        **
COMMENT **        **
COMMENT **        **
COMMENT **       ** 
COMMENT *********** 
COMMENT *********   
COMMENT **          
COMMENT **          
COMMENT **          
COMMENT **          
COMMENT **          
COMMENT **          
COMMENT **          
FF80
FFE0
C060
C030
C030
C030
C030
C060
FFE0
FF80
C000
C000
C000
C000
C000
C000
C000
ENDCHAR
STARTCHAR 49
ENCODING 81
SWIDTH 7 0
DWIDTH 18 0
BBX 16 18 1 -1
BITMAP
COMMENT      ******     
COMMENT    **********   
COMMENT   ***      ***  
COMMENT  ***        *** 
COMMENT  **          ** 
COMMENT ***          ***
COMMENT **            **
COMMENT **            **
COMMENT **            **
COMMENT **            **
COMMENT **            **
COMMENT ***          ***
COMMENT  **      **  ** 
COMMENT  ***     ****** 
COMMENT   ***      ***  
COMMENT    ************ 
COMMENT      ******* ***
COMMENT               * 
07E0
1FF8
381C
700E
6006
E007
C003
C003
C003
C003
C003
E007
6066
707E
381C
1FFE
07F7
0002
ENDCHAR
STARTCHAR 50
ENCODING 82
SWIDTH 6 0
DWIDTH 15 0
BBX 13 17 2 0
BITMAP
COMMENT **********   
COMMENT ************ 
COMMENT **        ** 
COMMENT **         **
COMMENT **         **
COMMENT **         **
COMMENT **         **
COMMENT **       *** 
COMMENT ***********  
COMMENT ************ 
COMMENT **        ** 
COMMENT **        ***
COMMENT **         **
COMMENT **         **
COMMENT **         **
COMMENT **         **
COMMENT **         ***  
FFC0
FFF0
C030
C018
C018
C018
C018
C070
FFE0
FFF0
C030
C038
C018
C018
C018
C018
C018
ENDCHAR
STARTCHAR 51
ENCODING 83
SWIDTH 6 0
DWIDTH 15 0
BBX 14 17 0 0
BITMAP
COMMENT    ******     
COMMENT   *********   
COMMENT  ***    ***   
COMMENT **        **  
COMMENT **        **  
COMMENT **        **  
COMMENT ***           
COMMENT  *****        
COMMENT    *******    
COMMENT        *****  
COMMENT           *** 
COMMENT **         ** 
COMMENT **         ** 
COMMENT ***        ** 
COMMENT  ***     ***  
COMMENT   *********   
COMMENT    ******     
1F80
3FE0
70E0
C030
C030
C030
E000
7C00
1FC0
01F0
0038
C018
C018
E018
7070
3FE0
1F80
ENDCHAR
STARTCHAR 52
ENCODING 84
SWIDTH 5 0
DWIDTH 13 0
BBX 12 17 1 0
BITMAP
COMMENT ************
COMMENT ************
COMMENT      **     
COMMENT      **     
COMMENT      **     
COMMENT      **     
COMMENT      **     
COMMENT      **     
COMMENT      **     
COMMENT      **     
COMMENT      **     
COMMENT      **     
COMMENT      **     
COMMENT      **     
COMMENT      **     
COMMENT      **     
COMMENT      **     
FFF0
FFF0
0600
0600
0600
0600
0600
0600
0600
0600
0600
0600
0600
0600
0600
0600
0600
ENDCHAR
STARTCHAR 53
ENCODING 85
SWIDTH 7 0
DWIDTH 17 0
BBX 14 17 2 0
BITMAP
COMMENT **          **
COMMENT **          **
COMMENT **          **
COMMENT **          **
COMMENT **          **
COMMENT **          **
COMMENT **          **
COMMENT **          **
COMMENT **          **
COMMENT **          **
COMMENT **          **
COMMENT **          **
COMMENT **          **
COMMENT  **        ** 
COMMENT  ***      *** 
COMMENT   **********  
COMMENT     ******    
C00C
C00C
C00C
C00C
C00C
C00C
C00C
C00C
C00C
C00C
C00C
C00C
C00C
6018
7038
3FF0
0FC0
ENDCHAR
STARTCHAR 54
ENCODING 86
SWIDTH 5 0
DWIDTH 14 0
BBX 15 17 0 0
BITMAP
COMMENT ***         ***
COMMENT  **         ** 
COMMENT  ***        ** 
COMMENT  ***       *** 
COMMENT   **       **  
COMMENT   ***      **  
COMMENT    **     ***  
COMMENT    ***    **   
COMMENT    ***    **   
COMMENT     **    **   
COMMENT     ***  **    
COMMENT      **  **    
COMMENT      **  **    
COMMENT       ****     
COMMENT       ****     
COMMENT       ****     
COMMENT        **      
E00E
600C
700C
701C
3018
3818
1838
1C30
1C30
0C30
0E60
0660
0660
03C0
03C0
03C0
0180
ENDCHAR
STARTCHAR 55
ENCODING 87
SWIDTH 8 0
DWIDTH 21 0
BBX 21 17 1 0
BITMAP
COMMENT **       **       ***
COMMENT **      ****      ***
COMMENT  **     ****      ** 
COMMENT  **     ****      ** 
COMMENT  **    ** **     *** 
COMMENT  **    **  **    **  
COMMENT   *    **  **    **  
COMMENT   **   **  **    **  
COMMENT   **  **    **  **   
COMMENT   **  **    **  **   
COMMENT   **  **    **  **   
COMMENT    ** **    ** ***   
COMMENT    ****      ****    
COMMENT    ****      ****    
COMMENT    ****      ****    
COMMENT     **        **     
COMMENT     **        **     
C06038
C0F038
60F030
60F030
61B070
619860
219860
319860
330CC0
330CC0
330CC0
1B0DC0
1E0780
1E0780
1E0780
0C0300
0C0300
ENDCHAR
STARTCHAR 56
ENCODING 88
SWIDTH 5 0
DWIDTH 14 0
BBX 15 17 0 0
BITMAP
COMMENT  ***        ** 
COMMENT  ***       *** 
COMMENT   ***     ***  
COMMENT    ***   ***   
COMMENT    ***   ***   
COMMENT     *** ***    
COMMENT      *****     
COMMENT       ***      
COMMENT       ***      
COMMENT      *****     
COMMENT      ** **     
COMMENT     *** ***    
COMMENT    ***   ***   
COMMENT   ***     ***  
COMMENT   ***     ***  
COMMENT  ***       *** 
COMMENT ***         ***
700C
701C
3838
1C70
1C70
0EE0
07C0
0380
0380
07C0
06C0
0EE0
1C70
3838
3838
701C
E00E
ENDCHAR
STARTCHAR 57
ENCODING 89
SWIDTH 5 0
DWIDTH 14 0
BBX 15 17 0 0
BITMAP
COMMENT ***         ***
COMMENT  ***       *** 
COMMENT   ***      *** 
COMMENT   ***     ***  
COMMENT    ***    **   
COMMENT     **   ***   
COMMENT     ***  **    
COMMENT      ******    
COMMENT       ****     
COMMENT        **      
COMMENT        **      
COMMENT        **      
COMMENT        **      
COMMENT        **      
COMMENT        **      
COMMENT        **      
COMMENT        **      
E00E
701C
381C
3838
1C30
0C70
0E60
07E0
03C0
0180
0180
0180
0180
0180
0180
0180
0180
ENDCHAR
STARTCHAR 58
ENCODING 90
SWIDTH 5 0
DWIDTH 14 0
BBX 13 17 1 0
BITMAP
COMMENT  ************
COMMENT  ************
COMMENT           ***
COMMENT          *** 
COMMENT         ***  
COMMENT         **   
COMMENT        ***   
COMMENT       ***    
COMMENT      ***     
COMMENT     ***      
COMMENT     **       
COMMENT    ***       
COMMENT   ***        
COMMENT  ***         
COMMENT  **          
COMMENT *************
COMMENT *************
7FF8
7FF8
0038
0070
00E0
00C0
01C0
0380
0700
0E00
0C00
1C00
3800
7000
6000
FFF8
FFF8
ENDCHAR
STARTCHAR 59
ENCODING 91
SWIDTH 3 0
DWIDTH 8 0
BBX 5 22 3 -5
BITMAP
COMMENT *****
COMMENT *****
COMMENT **   
COMMENT **   
COMMENT **   
COMMENT **   
COMMENT **   
COMMENT **   
COMMENT **   
COMMENT **   
COMMENT **   
COMMENT **   
COMMENT **   
COMMENT **   
COMMENT **   
COMMENT **   
COMMENT **   
COMMENT **   
COMMENT **   
COMMENT **   
COMMENT *****
COMMENT *****
F8
F8
C0
C0
C0
C0
C0
C0
C0
C0
C0
C0
C0
C0
C0
C0
C0
C0
C0
C0
F8
F8
ENDCHAR
STARTCHAR 60
ENCODING 92
SWIDTH 2 0
DWIDTH 7 0
BBX 7 20 0 -3
BITMAP
COMMENT **     
COMMENT **     
COMMENT  *     
COMMENT  *     
COMMENT  **    
COMMENT   *    
COMMENT   *    
COMMENT   *    
COMMENT   **   
COMMENT    *   
COMMENT    *   
COMMENT    **  
COMMENT    **  
COMMENT     *  
COMMENT     *  
COMMENT     ** 
COMMENT      * 
COMMENT      * 
COMMENT      **
COMMENT      **
C0
C0
40
40
60
20
20
20
30
10
10
18
18
08
08
0C
04
04
06
06
ENDCHAR
STARTCHAR 61
ENCODING 93
SWIDTH 3 0
DWIDTH 8 0
BBX 5 22 1 -5
BITMAP
COMMENT *****
COMMENT *****
COMMENT    **
COMMENT    **
COMMENT    **
COMMENT    **
COMMENT    **
COMMENT    **
COMMENT    **
COMMENT    **
COMMENT    **
COMMENT    **
COMMENT    **
COMMENT    **
COMMENT    **
COMMENT    **
COMMENT    **
COMMENT    **
COMMENT    **
COMMENT    **
COMMENT *****
COMMENT *****
F8
F8
18
18
18
18
18
18
18
18
18
18
18
18
18
18
18
18
18
18
F8
F8
ENDCHAR
STARTCHAR 62
ENCODING 94
SWIDTH 10 0
DWIDTH 24 0
BBX 14 7 5 10
BITMAP
COMMENT      ****     
COMMENT      ****     
COMMENT     **  **    
COMMENT    **    **   
COMMENT   **      **  
COMMENT  **        ** 
COMMENT ***        ***
0780
0780
0CC0
1860
3030
6018
E01C
ENDCHAR
STARTCHAR 63
ENCODING 95
SWIDTH 5 0
DWIDTH 12 0
BBX 12 1 0 -6
BITMAP
COMMENT ************
FFF0
ENDCHAR
STARTCHAR 64
ENCODING 96
SWIDTH 5 0
DWIDTH 12 0
BBX 7 7 2 10
BITMAP
COMMENT ***    
COMMENT  **    
COMMENT   **   
COMMENT    **  
COMMENT    **  
COMMENT     ** 
COMMENT      **
E0
60
30
18
18
0C
06
ENDCHAR
STARTCHAR 65
ENCODING 97
SWIDTH 5 0
DWIDTH 13 0
BBX 11 13 1 0
BITMAP
COMMENT    *****   
COMMENT   *******  
COMMENT  ***    ** 
COMMENT  **     ** 
COMMENT         ** 
COMMENT   ******** 
COMMENT  ****** ** 
COMMENT ***     ** 
COMMENT **      ** 
COMMENT **     *** 
COMMENT ***   **** 
COMMENT  ****** ***
COMMENT   ****   **
1F00
3F80
70C0
60C0
00C0
3FC0
7EC0
E0C0
C0C0
C1C0
E3C0
7EE0
3C60
ENDCHAR
STARTCHAR 66
ENCODING 98
SWIDTH 5 0
DWIDTH 14 0
BBX 12 17 2 0
BITMAP
COMMENT **          
COMMENT **          
COMMENT **          
COMMENT **          
COMMENT **  *****   
COMMENT ** *******  
COMMENT ****    *** 
COMMENT ***      ** 
COMMENT **        **
COMMENT **        **
COMMENT **        **
COMMENT **        **
COMMENT **        **
COMMENT ***      ** 
COMMENT ****    *** 
COMMENT ** *******  
COMMENT **  *****   
C000
C000
C000
C000
CF80
DFC0
F0E0
E060
C030
C030
C030
C030
C030
E060
F0E0
DFC0
CF80
ENDCHAR
STARTCHAR 67
ENCODING 99
SWIDTH 5 0
DWIDTH 12 0
BBX 11 13 1 0
BITMAP
COMMENT    *****   
COMMENT   ******** 
COMMENT  ***    ** 
COMMENT  **      **
COMMENT **       **
COMMENT **         
COMMENT **         
COMMENT **         
COMMENT **       **
COMMENT  **      **
COMMENT  ***   *** 
COMMENT   ******** 
COMMENT    *****   
1F00
3FC0
70C0
6060
C060
C000
C000
C000
C060
6060
71C0
3FC0
1F00
ENDCHAR
STARTCHAR 68
ENCODING 100
SWIDTH 5 0
DWIDTH 14 0
BBX 12 17 1 0
BITMAP
COMMENT           **
COMMENT           **
COMMENT           **
COMMENT           **
COMMENT    *****  **
COMMENT   ******* **
COMMENT  ***    ****
COMMENT  **      ***
COMMENT **        **
COMMENT **        **
COMMENT **        **
COMMENT **        **
COMMENT **        **
COMMENT  **      ***
COMMENT  ***    ****
COMMENT   ******* **
COMMENT    *****  **
0030
0030
0030
0030
1F30
3FB0
70F0
6070
C030
C030
C030
C030
C030
6070
70F0
3FB0
1F30
ENDCHAR
STARTCHAR 69
ENCODING 101
SWIDTH 5 0
DWIDTH 13 0
BBX 11 13 1 0
BITMAP
COMMENT    *****   
COMMENT   *******  
COMMENT  ***    ** 
COMMENT  *       **
COMMENT **       **
COMMENT ***********
COMMENT ***********
COMMENT **         
COMMENT **         
COMMENT ***      **
COMMENT  ***    ** 
COMMENT   *******  
COMMENT    *****   
1F00
3F80
70C0
4060
C060
FFE0
FFE0
C000
C000
E060
70C0
3F80
1F00
ENDCHAR
STARTCHAR 70
ENCODING 102
SWIDTH 2 0
DWIDTH 6 0
BBX 6 17 0 0
BITMAP
COMMENT    ***
COMMENT   ****
COMMENT   **  
COMMENT   **  
COMMENT ******
COMMENT ******
COMMENT   **  
COMMENT   **  
COMMENT   **  
COMMENT   **  
COMMENT   **  
COMMENT   **  
COMMENT   **  
COMMENT   **  
COMMENT   **  
COMMENT   **  
COMMENT   **  
1C
3C
30
30
FC
FC
30
30
30
30
30
30
30
30
30
30
30
ENDCHAR
STARTCHAR 71
ENCODING 103
SWIDTH 5 0
DWIDTH 14 0
BBX 12 18 1 -5
BITMAP
COMMENT    *****  **
COMMENT   ******* **
COMMENT  ***    ****
COMMENT  **      ***
COMMENT **        **
COMMENT **        **
COMMENT **        **
COMMENT **        **
COMMENT **        **
COMMENT  **      ***
COMMENT  ***    ****
COMMENT   ******* **
COMMENT    *****  **
COMMENT           **
COMMENT  **       **
COMMENT  **      ** 
COMMENT  ********** 
COMMENT    ******   
1F30
3FB0
70F0
6070
C030
C030
C030
C030
C030
6070
70F0
3FB0
1F30
0030
6030
6060
7FE0
1F80
ENDCHAR
STARTCHAR 72
ENCODING 104
SWIDTH 5 0
DWIDTH 13 0
BBX 10 17 2 0
BITMAP
COMMENT **        
COMMENT **        
COMMENT **        
COMMENT **        
COMMENT **  ****  
COMMENT ********* 
COMMENT ****   ***
COMMENT ***     **
COMMENT **      **
COMMENT **      **
COMMENT **      **
COMMENT **      **
COMMENT **      **
COMMENT **      **
COMMENT **      **
COMMENT **      **
COMMENT **      **
C000
C000
C000
C000
CF00
FF80
F1C0
E0C0
C0C0
C0C0
C0C0
C0C0
C0C0
C0C0
C0C0
C0C0
C0C0
ENDCHAR
STARTCHAR 73
ENCODING 105
SWIDTH 2 0
DWIDTH 5 0
BBX 2 17 2 0
BITMAP
COMMENT **
COMMENT **
COMMENT   
COMMENT   
COMMENT **
COMMENT **
COMMENT **
COMMENT **
COMMENT **
COMMENT **
COMMENT **
COMMENT **
COMMENT **
COMMENT **
COMMENT **
COMMENT **
COMMENT **
C0
C0
00
00
C0
C0
C0
C0
C0
C0
C0
C0
C0
C0
C0
C0
C0
ENDCHAR
STARTCHAR 74
ENCODING 106
SWIDTH 2 0
DWIDTH 5 0
BBX 4 22 0 -5
BITMAP
COMMENT   **
COMMENT   **
COMMENT     
COMMENT     
COMMENT   **
COMMENT   **
COMMENT   **
COMMENT   **
COMMENT   **
COMMENT   **
COMMENT   **
COMMENT   **
COMMENT   **
COMMENT   **
COMMENT   **
COMMENT   **
COMMENT   **
COMMENT   **
COMMENT   **
COMMENT   **
COMMENT ****
COMMENT *** 
30
30
00
00
30
30
30
30
30
30
30
30
30
30
30
30
30
30
30
30
F0
E0
ENDCHAR
STARTCHAR 75
ENCODING 107
SWIDTH 5 0
DWIDTH 12 0
BBX 10 17 2 0
BITMAP
COMMENT **        
COMMENT **        
COMMENT **        
COMMENT **        
COMMENT **     ***
COMMENT **    *** 
COMMENT **   ***  
COMMENT **  ***   
COMMENT ** ***    
COMMENT ******    
COMMENT ******    
COMMENT ***  **   
COMMENT **   ***  
COMMENT **    **  
COMMENT **    *** 
COMMENT **     ** 
COMMENT **     ***
C000
C000
C000
C000
C1C0
C380
C700
CE00
DC00
FC00
FC00
E600
C700
C300
C380
C180
C1C0
ENDCHAR
STARTCHAR 76
ENCODING 108
SWIDTH 2 0
DWIDTH 5 0
BBX 2 17 2 0
BITMAP
COMMENT **
COMMENT **
COMMENT **
COMMENT **
COMMENT **
COMMENT **
COMMENT **
COMMENT **
COMMENT **
COMMENT **
COMMENT **
COMMENT **
COMMENT **
COMMENT **
COMMENT **
COMMENT **
COMMENT **
C0
C0
C0
C0
C0
C0
C0
C0
C0
C0
C0
C0
C0
C0
C0
C0
C0
ENDCHAR
STARTCHAR 77
ENCODING 109
SWIDTH 8 0
DWIDTH 20 0
BBX 17 13 2 0
BITMAP
COMMENT **  ***    ****  
COMMENT ******** ******* 
COMMENT ***   *****   ***
COMMENT **     ***     **
COMMENT **     **      **
COMMENT **     **      **
COMMENT **     **      **
COMMENT **     **      **
COMMENT **     **      **
COMMENT **     **      **
COMMENT **     **      **
COMMENT **     **      **
COMMENT **     **      **
CE1E00
FF7F00
E3E380
C1C180
C18180
C18180
C18180
C18180
C18180
C18180
C18180
C18180
C18180
ENDCHAR
STARTCHAR 78
ENCODING 110
SWIDTH 5 0
DWIDTH 13 0
BBX 10 13 2 0
BITMAP
COMMENT **  ****  
COMMENT ********* 
COMMENT ****   ***
COMMENT ***     **
COMMENT **      **
COMMENT **      **
COMMENT **      **
COMMENT **      **
COMMENT **      **
COMMENT **      **
COMMENT **      **
COMMENT **      **
COMMENT **      **
CF00
FF80
F1C0
E0C0
C0C0
C0C0
C0C0
C0C0
C0C0
C0C0
C0C0
C0C0
C0C0
ENDCHAR
STARTCHAR 79
ENCODING 111
SWIDTH 5 0
DWIDTH 13 0
BBX 12 13 1 0
BITMAP
COMMENT    ******   
COMMENT   ********  
COMMENT  ***    *** 
COMMENT  **      ** 
COMMENT **        **
COMMENT **        **
COMMENT **        **
COMMENT **        **
COMMENT **        **
COMMENT  **      ** 
COMMENT  ***    *** 
COMMENT   ********  
COMMENT    ******   
1F80
3FC0
70E0
6060
C030
C030
C030
C030
C030
6060
70E0
3FC0
1F80
ENDCHAR
STARTCHAR 80
ENCODING 112
SWIDTH 5 0
DWIDTH 14 0
BBX 12 18 2 -5
BITMAP
COMMENT **  *****   
COMMENT ** *******  
COMMENT ****    *** 
COMMENT ***      ** 
COMMENT **        **
COMMENT **        **
COMMENT **        **
COMMENT **        **
COMMENT **        **
COMMENT ***      ** 
COMMENT ****    *** 
COMMENT ** *******  
COMMENT **  *****   
COMMENT **          
COMMENT **          
COMMENT **          
COMMENT **          
COMMENT **          
CF80
DFC0
F0E0
E060
C030
C030
C030
C030
C030
E060
F0E0
DFC0
CF80
C000
C000
C000
C000
C000
ENDCHAR
STARTCHAR 81
ENCODING 113
SWIDTH 5 0
DWIDTH 14 0
BBX 12 18 1 -5
BITMAP
COMMENT    *****  **
COMMENT   ******* **
COMMENT  ***    ****
COMMENT  **      ***
COMMENT **        **
COMMENT **        **
COMMENT **        **
COMMENT **        **
COMMENT **        **
COMMENT  **      ***
COMMENT  ***    ****
COMMENT   ******* **
COMMENT    *****  **
COMMENT           **
COMMENT           **
COMMENT           **
COMMENT           **
COMMENT           **
1F30
3FB0
70F0
6070
C030
C030
C030
C030
C030
6070
70F0
3FB0
1F30
0030
0030
0030
0030
0030
ENDCHAR
STARTCHAR 82
ENCODING 114
SWIDTH 2 0
DWIDTH 7 0
BBX 6 13 2 0
BITMAP
COMMENT ** ***
COMMENT ******
COMMENT ****  
COMMENT ***   
COMMENT **    
COMMENT **    
COMMENT **    
COMMENT **    
COMMENT **    
COMMENT **    
COMMENT **    
COMMENT **    
COMMENT **    
DC
FC
F0
E0
C0
C0
C0
C0
C0
C0
C0
C0
C0
ENDCHAR
STARTCHAR 83
ENCODING 115
SWIDTH 4 0
DWIDTH 11 0
BBX 11 13 0 0
BITMAP
COMMENT   *****    
COMMENT  ********  
COMMENT ***    **  
COMMENT **      ** 
COMMENT **         
COMMENT *****      
COMMENT   ******   
COMMENT     ****** 
COMMENT         ** 
COMMENT **      ** 
COMMENT ***    *** 
COMMENT  ********  
COMMENT   *****    
3E00
7F80
E180
C0C0
C000
F800
3F00
0FC0
00C0
C0C0
E1C0
7F80
3E00
ENDCHAR
STARTCHAR 84
ENCODING 116
SWIDTH 2 0
DWIDTH 6 0
BBX 6 16 0 0
BITMAP
COMMENT   **  
COMMENT   **  
COMMENT   **  
COMMENT ******
COMMENT ******
COMMENT   **  
COMMENT   **  
COMMENT   **  
COMMENT   **  
COMMENT   **  
COMMENT   **  
COMMENT   **  
COMMENT   **  
COMMENT   **  
COMMENT   ****
COMMENT    ***
30
30
30
FC
FC
30
30
30
30
30
30
30
30
30
3C
1C
ENDCHAR
STARTCHAR 85
ENCODING 117
SWIDTH 5 0
DWIDTH 13 0
BBX 10 13 2 0
BITMAP
COMMENT **      **
COMMENT **      **
COMMENT **      **
COMMENT **      **
COMMENT **      **
COMMENT **      **
COMMENT **      **
COMMENT **      **
COMMENT **      **
COMMENT **     ***
COMMENT ***   ****
COMMENT  *********
COMMENT   ****  **
C0C0
C0C0
C0C0
C0C0
C0C0
C0C0
C0C0
C0C0
C0C0
C1C0
E3C0
7FC0
3CC0
ENDCHAR
STARTCHAR 86
ENCODING 118
SWIDTH 4 0
DWIDTH 11 0
BBX 12 13 0 0
BITMAP
COMMENT ***      ***
COMMENT  **      ** 
COMMENT  **      ** 
COMMENT  ***    *** 
COMMENT   **    **  
COMMENT   **    **  
COMMENT   ***  **   
COMMENT    **  **   
COMMENT    **  **   
COMMENT     ****    
COMMENT     ****    
COMMENT     ****    
COMMENT      **     
E070
6060
6060
70E0
30C0
30C0
3980
1980
1980
0F00
0F00
0F00
0600
ENDCHAR
STARTCHAR 87
ENCODING 119
SWIDTH 7 0
DWIDTH 17 0
BBX 18 13 0 0
BITMAP
COMMENT **      **      **
COMMENT ***     **     ***
COMMENT  **    ****    ** 
COMMENT  **    ****    ** 
COMMENT  ***   ****   *** 
COMMENT   **  **  **  **  
COMMENT   **  **  **  **  
COMMENT   **  **  **  **  
COMMENT    ****    ****   
COMMENT    ****    ****   
COMMENT    ****    ****   
COMMENT     **      **    
COMMENT     **      **    
C0C0C0
E0C1C0
61E180
61E180
71E380
333300
333300
333300
1E1E00
1E1E00
1E1E00
0C0C00
0C0C00
ENDCHAR
STARTCHAR 88
ENCODING 120
SWIDTH 4 0
DWIDTH 11 0
BBX 11 13 0 0
BITMAP
COMMENT  **     ** 
COMMENT  ***   *** 
COMMENT   **   **  
COMMENT   *** **   
COMMENT    ** **   
COMMENT     ***    
COMMENT     ***    
COMMENT    ****    
COMMENT    ** **   
COMMENT   **  ***  
COMMENT   **   **  
COMMENT  **     ** 
COMMENT ***     ***
60C0
71C0
3180
3B00
1B00
0E00
0E00
1E00
1B00
3380
3180
60C0
E0E0
ENDCHAR
STARTCHAR 89
ENCODING 121
SWIDTH 5 0
DWIDTH 12 0
BBX 12 18 0 -5
BITMAP
COMMENT ***      ***
COMMENT  **      ** 
COMMENT  **      ** 
COMMENT  ***    *** 
COMMENT   **    **  
COMMENT   **    **  
COMMENT   ***  ***  
COMMENT    **  **   
COMMENT    **  **   
COMMENT    ******   
COMMENT     ****    
COMMENT     ****    
COMMENT     ***     
COMMENT      **     
COMMENT      **     
COMMENT     **      
COMMENT  *****      
COMMENT  ****       
E070
6060
6060
70E0
30C0
30C0
39C0
1980
1980
1F80
0F00
0F00
0E00
0600
0600
0C00
7C00
7800
ENDCHAR
STARTCHAR 90
ENCODING 122
SWIDTH 4 0
DWIDTH 11 0
BBX 10 13 1 0
BITMAP
COMMENT **********
COMMENT **********
COMMENT        ** 
COMMENT       **  
COMMENT      ***  
COMMENT     ***   
COMMENT     **    
COMMENT    **     
COMMENT   ***     
COMMENT  ***      
COMMENT  **       
COMMENT **********
COMMENT **********
FFC0
FFC0
0180
0300
0700
0E00
0C00
1800
3800
7000
6000
FFC0
FFC0
ENDCHAR
STARTCHAR 91
ENCODING 123
SWIDTH 5 0
DWIDTH 12 0
BBX 8 22 2 -5
BITMAP
COMMENT      ***
COMMENT    *****
COMMENT    ***  
COMMENT    **   
COMMENT    **   
COMMENT    **   
COMMENT    **   
COMMENT    **   
COMMENT    **   
COMMENT   ***   
COMMENT ****    
COMMENT ****    
COMMENT   ***   
COMMENT    **   
COMMENT    **   
COMMENT    **   
COMMENT    **   
COMMENT    **   
COMMENT    **   
COMMENT    ***  
COMMENT    *****
COMMENT      ***
07
1F
1C
18
18
18
18
18
18
38
F0
F0
38
18
18
18
18
18
18
1C
1F
07
ENDCHAR
STARTCHAR 92
ENCODING 124
SWIDTH 5 0
DWIDTH 12 0
BBX 2 24 5 -6
BITMAP
COMMENT **
COMMENT **
COMMENT **
COMMENT **
COMMENT **
COMMENT **
COMMENT **
COMMENT **
COMMENT **
COMMENT **
COMMENT **
COMMENT **
COMMENT **
COMMENT **
COMMENT **
COMMENT **
COMMENT **
COMMENT **
COMMENT **
COMMENT **
COMMENT **
COMMENT **
COMMENT **
COMMENT **
C0
C0
C0
C0
C0
C0
C0
C0
C0
C0
C0
C0
C0
C0
C0
C0
C0
C0
C0
C0
C0
C0
C0
C0
ENDCHAR
STARTCHAR 93
ENCODING 125
SWIDTH 5 0
DWIDTH 12 0
BBX 8 22 2 -5
BITMAP
COMMENT ***     
COMMENT *****   
COMMENT   ***   
COMMENT    **   
COMMENT    **   
COMMENT    **   
COMMENT    **   
COMMENT    **   
COMMENT    **   
COMMENT    ***  
COMMENT     ****
COMMENT     ****
COMMENT    ***  
COMMENT    **   
COMMENT    **   
COMMENT    **   
COMMENT    **   
COMMENT    **   
COMMENT    **   
COMMENT   ***   
COMMENT *****   
COMMENT ***     
E0
F8
38
18
18
18
18
18
18
1C
0F
0F
1C
18
18
18
18
18
18
38
F8
E0
ENDCHAR
STARTCHAR 94
ENCODING 126
SWIDTH 10 0
DWIDTH 24 0
BBX 14 5 5 11
BITMAP
COMMENT   ****      **
COMMENT  ******     **
COMMENT ***   **   ***
COMMENT **     ****** 
COMMENT **      ****  
3C0C
7E0C
E31C
C1F8
C0F0
ENDCHAR
STARTCHAR 95
ENCODING 129
SWIDTH 4 0
DWIDTH 11 0
BBX 10 17 0 0
BITMAP
COMMENT    ***  **
COMMENT   ****  **
COMMENT   **      
COMMENT   **      
COMMENT ******  **
COMMENT ******  **
COMMENT   **    **
COMMENT   **    **
COMMENT   **    **
COMMENT   **    **
COMMENT   **    **
COMMENT   **    **
COMMENT   **    **
COMMENT   **    **
COMMENT   **    **
COMMENT   **    **
COMMENT   **    **
1CC0
3CC0
3000
3000
FCC0
FCC0
30C0
30C0
30C0
30C0
30C0
30C0
30C0
30C0
30C0
30C0
30C0
ENDCHAR
STARTCHAR 96
ENCODING 130
SWIDTH 4 0
DWIDTH 11 0
BBX 10 17 0 0
BITMAP
COMMENT    ***  **
COMMENT   ****  **
COMMENT   **    **
COMMENT   **    **
COMMENT ******  **
COMMENT ******  **
COMMENT   **    **
COMMENT   **    **
COMMENT   **    **
COMMENT   **    **
COMMENT   **    **
COMMENT   **    **
COMMENT   **    **
COMMENT   **    **
COMMENT   **    **
COMMENT   **    **
COMMENT   **    **
1CC0
3CC0
30C0
30C0
FCC0
FCC0
30C0
30C0
30C0
30C0
30C0
30C0
30C0
30C0
30C0
30C0
30C0
ENDCHAR
STARTCHAR 97
ENCODING 131
SWIDTH 5 0
DWIDTH 13 0
BBX 12 16 0 0
BITMAP
COMMENT    *****    
COMMENT  *********  
COMMENT ***     *** 
COMMENT **       ** 
COMMENT **       ** 
COMMENT **          
COMMENT  **         
COMMENT *******     
COMMENT   **        
COMMENT   **        
COMMENT   **        
COMMENT   *         
COMMENT  **         
COMMENT *******   * 
COMMENT *********** 
COMMENT *    *****  
1F00
7FC0
E0E0
C060
C060
C000
6000
FE00
3000
3000
3000
2000
6000
FE20
FFE0
87C0
ENDCHAR
STARTCHAR 98
ENCODING 132
SWIDTH 5 0
DWIDTH 13 0
BBX 11 18 1 -3
BITMAP
COMMENT        **  
COMMENT        *   
COMMENT    *****   
COMMENT   ******** 
COMMENT  ***  * ** 
COMMENT  **   *  **
COMMENT **    *  **
COMMENT **   *     
COMMENT **   *     
COMMENT **   *     
COMMENT **  *    **
COMMENT *** *   ***
COMMENT  ****  *** 
COMMENT  ********  
COMMENT    *****   
COMMENT    *       
COMMENT   **       
COMMENT            
0180
0100
1F00
3FC0
72C0
6260
C260
C400
C400
C400
C860
E8E0
79C0
7F80
1F00
1000
3000
0000
ENDCHAR
STARTCHAR 99
ENCODING 133
SWIDTH 5 0
DWIDTH 13 0
BBX 13 23 0 -7
BITMAP
COMMENT          ****
COMMENT         *****
COMMENT        ***   
COMMENT        **    
COMMENT       ***    
COMMENT       ***    
COMMENT    ********  
COMMENT    ********  
COMMENT       **     
COMMENT      ***     
COMMENT      ***     
COMMENT      **      
COMMENT      **      
COMMENT     ***      
COMMENT     ***      
COMMENT     **       
COMMENT     **       
COMMENT     **       
COMMENT    ***       
COMMENT    ***       
COMMENT *  **        
COMMENT *****        
COMMENT ****         
0078
00F8
01C0
0180
0380
0380
1FE0
1FE0
0300
0700
0700
0600
0600
0E00
0E00
0C00
0C00
0C00
1C00
1C00
9800
F800
F000
ENDCHAR
STARTCHAR 100
ENCODING 134
SWIDTH 12 0
DWIDTH 30 0
BBX 29 17 1 -1
BITMAP
COMMENT   ****        *              
COMMENT  ******      *               
COMMENT ***  ***    **               
COMMENT **    **    *                
COMMENT **    **   *                 
COMMENT ***  ***   *                 
COMMENT  ******   *                  
COMMENT   ****   *                   
COMMENT          *   ****      ****  
COMMENT         *   ******    ****** 
COMMENT        *   ***  ***  ***  ***
COMMENT        *   **    **  **    **
COMMENT       *    **    **  **    **
COMMENT      **    ***  ***  ***  ***
COMMENT      *      ******    ****** 
COMMENT     *        ****      ****  
COMMENT                              
3C020000
7E040000
E70C0000
C3080000
C3100000
E7100000
7E200000
3C400000
004781E0
008FC3F0
011CE738
01186618
02186618
061CE738
040FC3F0
080781E0
00000000
ENDCHAR
STARTCHAR 101
ENCODING 135
SWIDTH 1 0
DWIDTH 4 0
BBX 12 17 -4 0
BITMAP
COMMENT           **
COMMENT           * 
COMMENT          *  
COMMENT         **  
COMMENT         *   
COMMENT        **   
COMMENT        *    
COMMENT       *     
COMMENT      **     
COMMENT      *      
COMMENT     *       
COMMENT    **       
COMMENT    *        
COMMENT   **        
COMMENT   *         
COMMENT  *          
COMMENT **          
0030
0020
0040
00C0
0080
0180
0100
0200
0600
0400
0800
1800
1000
3000
2000
4000
C000
ENDCHAR
STARTCHAR 102
ENCODING 136
SWIDTH 2 0
DWIDTH 6 0
BBX 3 3 2 7
BITMAP
COMMENT ***
COMMENT ***
COMMENT ***
E0
E0
E0
ENDCHAR
STARTCHAR 103
ENCODING 137
SWIDTH 2 0
DWIDTH 6 0
BBX 2 6 2 11
BITMAP
COMMENT  *
COMMENT * 
COMMENT * 
COMMENT **
COMMENT **
COMMENT **
40
80
80
C0
C0
C0
ENDCHAR
STARTCHAR 104
ENCODING 138
SWIDTH 3 0
DWIDTH 9 0
BBX 6 6 2 11
BITMAP
COMMENT  *   *
COMMENT *   * 
COMMENT *   * 
COMMENT **  **
COMMENT **  **
COMMENT **  **
44
88
88
CC
CC
CC
ENDCHAR
STARTCHAR 105
ENCODING 139
SWIDTH 3 0
DWIDTH 9 0
BBX 6 6 2 11
BITMAP
COMMENT **  **
COMMENT **  **
COMMENT **  **
COMMENT  *   *
COMMENT  *   *
COMMENT *   * 
CC
CC
CC
44
44
88
ENDCHAR
STARTCHAR 106
ENCODING 140
SWIDTH 2 0
DWIDTH 6 0
BBX 2 6 2 -3
BITMAP
COMMENT **
COMMENT **
COMMENT **
COMMENT  *
COMMENT  *
COMMENT * 
C0
C0
C0
40
40
80
ENDCHAR
STARTCHAR 107
ENCODING 141
SWIDTH 3 0
DWIDTH 9 0
BBX 6 6 2 -3
BITMAP
COMMENT **  **
COMMENT **  **
COMMENT **  **
COMMENT  *   *
COMMENT  *   *
COMMENT *   * 
CC
CC
CC
44
44
88
ENDCHAR
STARTCHAR 108
ENCODING 142
SWIDTH 5 0
DWIDTH 12 0
BBX 10 20 1 -3
BITMAP
COMMENT     **    
COMMENT     **    
COMMENT     **    
COMMENT     **    
COMMENT     **    
COMMENT **********
COMMENT **********
COMMENT     **    
COMMENT     **    
COMMENT     **    
COMMENT     **    
COMMENT     **    
COMMENT     **    
COMMENT     **    
COMMENT     **    
COMMENT     **    
COMMENT     **    
COMMENT     **    
COMMENT     **    
COMMENT     **    
0C00
0C00
0C00
0C00
0C00
FFC0
FFC0
0C00
0C00
0C00
0C00
0C00
0C00
0C00
0C00
0C00
0C00
0C00
0C00
0C00
ENDCHAR
STARTCHAR 109
ENCODING 143
SWIDTH 5 0
DWIDTH 12 0
BBX 10 20 1 -3
BITMAP
COMMENT     **    
COMMENT     **    
COMMENT     **    
COMMENT     **    
COMMENT     **    
COMMENT **********
COMMENT **********
COMMENT     **    
COMMENT     **    
COMMENT     **    
COMMENT     **    
COMMENT     **    
COMMENT     **    
COMMENT **********
COMMENT **********
COMMENT     **    
COMMENT     **    
COMMENT     **    
COMMENT     **    
COMMENT     **    
0C00
0C00
0C00
0C00
0C00
FFC0
FFC0
0C00
0C00
0C00
0C00
0C00
0C00
FFC0
FFC0
0C00
0C00
0C00
0C00
0C00
ENDCHAR
STARTCHAR 110
ENCODING 144
SWIDTH 5 0
DWIDTH 12 0
BBX 10 20 1 -3
BITMAP
COMMENT    ****   
COMMENT   ******  
COMMENT  **   *** 
COMMENT  **    ** 
COMMENT  **       
COMMENT   ***     
COMMENT  ******   
COMMENT *** ***** 
COMMENT **    ****
COMMENT **      **
COMMENT ****    **
COMMENT  ****   **
COMMENT    ****** 
COMMENT      ***  
COMMENT       *** 
COMMENT  **    ** 
COMMENT  **    ** 
COMMENT  ***  *** 
COMMENT   ******  
COMMENT    ****   
1E00
3F00
6380
6180
6000
3800
7E00
EF80
C3C0
C0C0
F0C0
78C0
1F80
0700
0380
6180
6180
7380
3F00
1E00
ENDCHAR
STARTCHAR 111
ENCODING 145
SWIDTH 5 0
DWIDTH 12 0
BBX 12 1 0 6
BITMAP
COMMENT ************
FFF0
ENDCHAR
STARTCHAR 112
ENCODING 146
SWIDTH 10 0
DWIDTH 24 0
BBX 16 1 4 6
BITMAP
COMMENT ****************
FFFF
ENDCHAR
STARTCHAR 113
ENCODING 147
SWIDTH 6 0
DWIDTH 15 0
BBX 15 23 0 0
BITMAP
COMMENT       ***      
COMMENT      *   *     
COMMENT      *   *     
COMMENT      *   *     
COMMENT       ***      
COMMENT                
COMMENT       ***      
COMMENT      *****     
COMMENT      *****     
COMMENT      ** **     
COMMENT     *** ***    
COMMENT     **  ***    
COMMENT     **   **    
COMMENT    ***   ***   
COMMENT    **    ***   
COMMENT    **     **   
COMMENT   ***********  
COMMENT   ***********  
COMMENT   **       **  
COMMENT  ***       *** 
COMMENT  **         ** 
COMMENT  **         ** 
COMMENT ***         ***
0380
0440
0440
0440
0380
0000
0380
07C0
07C0
06C0
0EE0
0CE0
0C60
1C70
1870
1830
3FF8
3FF8
3018
701C
600C
600C
E00E
ENDCHAR
STARTCHAR 114
ENCODING 148
SWIDTH 9 0
DWIDTH 22 0
BBX 22 17 0 0
BITMAP
COMMENT        ***************
COMMENT        ***************
COMMENT       ***  **         
COMMENT       **   **         
COMMENT       **   **         
COMMENT      ***   **         
COMMENT      **    **         
COMMENT     ***    ********** 
COMMENT     **     ********** 
COMMENT    ***     **         
COMMENT    **********         
COMMENT   ***********         
COMMENT   **       **         
COMMENT   **       **         
COMMENT  ***       **         
COMMENT  **        ***********
COMMENT ***        ***********
01FFFC
01FFFC
039800
031800
031800
071800
061800
0E1FF8
0C1FF8
1C1800
1FF800
3FF800
301800
301800
701800
601FFC
E01FFC
ENDCHAR
STARTCHAR 115
ENCODING 149
SWIDTH 7 0
DWIDTH 18 0
BBX 17 17 0 0
BITMAP
COMMENT      ******    * 
COMMENT    ********** *  
COMMENT   ***      ****  
COMMENT  ***        ***  
COMMENT  **        ****  
COMMENT ***       ** *** 
COMMENT **       **   ** 
COMMENT **      **    ** 
COMMENT **     **     ** 
COMMENT **    **      ** 
COMMENT **   **       ** 
COMMENT *** **       *** 
COMMENT  ****        **  
COMMENT  ***        ***  
COMMENT  ****      ***   
COMMENT  * **********    
COMMENT *    ******      
07E100
1FFA00
381E00
700E00
601E00
E03700
C06300
C0C300
C18300
C30300
C60300
EC0700
780600
700E00
781C00
5FF800
87E000
ENDCHAR
STARTCHAR 116
ENCODING 150
SWIDTH 11 0
DWIDTH 27 0
BBX 26 17 1 0
BITMAP
COMMENT      ******  *************
COMMENT    ********* *************
COMMENT   ***      ****           
COMMENT  ***         **           
COMMENT  **          **           
COMMENT ***          **           
COMMENT **           **           
COMMENT **           ************ 
COMMENT **           ************ 
COMMENT **           **           
COMMENT **           **           
COMMENT ***          **           
COMMENT  **          **           
COMMENT  ***         **           
COMMENT   ***      ****           
COMMENT    ********* *************
COMMENT      ******  *************
07E7FFC0
1FF7FFC0
381E0000
70060000
60060000
E0060000
C0060000
C007FF80
C007FF80
C0060000
C0060000
E0060000
60060000
70060000
381E0000
1FF7FFC0
07E7FFC0
ENDCHAR
STARTCHAR 117
ENCODING 151
SWIDTH 5 0
DWIDTH 13 0
BBX 11 18 1 0
BITMAP
COMMENT      **    
COMMENT     *  *   
COMMENT     *  *   
COMMENT      **    
COMMENT            
COMMENT    *****   
COMMENT   *******  
COMMENT  ***    ** 
COMMENT  **     ** 
COMMENT         ** 
COMMENT    ******* 
COMMENT  ****** ** 
COMMENT ***     ** 
COMMENT **      ** 
COMMENT **     *** 
COMMENT ***   **** 
COMMENT  ****** ***
COMMENT   ****   **
0600
0900
0900
0600
0000
1F00
3F80
70C0
60C0
00C0
1FC0
7EC0
E0C0
C0C0
C1C0
E3C0
7EE0
3C60
ENDCHAR
STARTCHAR 118
ENCODING 152
SWIDTH 8 0
DWIDTH 21 0
BBX 19 13 1 0
BITMAP
COMMENT    *****   *****   
COMMENT   ******* *******  
COMMENT  ***    ****    ** 
COMMENT  **     ***      **
COMMENT         **       **
COMMENT    ****************
COMMENT  ****** ***********
COMMENT ***     **         
COMMENT **      **         
COMMENT **      ***      **
COMMENT ***    *****    ** 
COMMENT  ******* ********  
COMMENT   ****     *****   
1F1F00
3FBF80
70F0C0
60E060
00C060
1FFFE0
7EFFE0
E0C000
C0C000
C0E060
E1F0C0
7F7F80
3C1F00
ENDCHAR
STARTCHAR 119
ENCODING 153
SWIDTH 5 0
DWIDTH 13 0
BBX 13 14 0 -1
BITMAP
COMMENT    ******  * 
COMMENT   ********** 
COMMENT  ***    ***  
COMMENT  **      **  
COMMENT **     ** ** 
COMMENT **    **  ** 
COMMENT **   **   ** 
COMMENT **  **    ** 
COMMENT ** **     ** 
COMMENT  ***     **  
COMMENT  ***    ***  
COMMENT  *********   
COMMENT *  ******    
COMMENT              
1F90
3FF0
70E0
6060
C1B0
C330
C630
CC30
D830
7060
70E0
7FC0
9F80
0000
ENDCHAR
STARTCHAR 120
ENCODING 154
SWIDTH 9 0
DWIDTH 22 0
BBX 21 13 1 0
BITMAP
COMMENT    ******    *****   
COMMENT   ********  *******  
COMMENT  ***    ******    ** 
COMMENT  **      ****      **
COMMENT **        **       **
COMMENT **        ***********
COMMENT **        ***********
COMMENT **        **         
COMMENT **        **         
COMMENT  **      ****      **
COMMENT  ***    ******    ** 
COMMENT   ********  *******  
COMMENT    ******    *****   
1F87C0
3FCFE0
70FC30
607818
C03018
C03FF8
C03FF8
C03000
C03000
607818
70FC30
3FCFE0
1F87C0
ENDCHAR
STARTCHAR 121
ENCODING 155
SWIDTH 5 0
DWIDTH 12 0
BBX 10 17 2 0
BITMAP
COMMENT   *****   
COMMENT  *******  
COMMENT ***   *** 
COMMENT **     ** 
COMMENT **     ** 
COMMENT **    *** 
COMMENT **  ****  
COMMENT **  ***** 
COMMENT **    *** 
COMMENT **      **
COMMENT **      **
COMMENT **      **
COMMENT **      **
COMMENT **     ***
COMMENT **    *** 
COMMENT **  ****  
COMMENT **  ***   
3E00
7F00
E380
C180
C180
C380
CF00
CF80
C380
C0C0
C0C0
C0C0
C0C0
C1C0
C380
CF00
CE00
ENDCHAR
STARTCHAR 122
ENCODING 156
SWIDTH 2 0
DWIDTH 5 0
BBX 2 13 2 0
BITMAP
COMMENT **
COMMENT **
COMMENT **
COMMENT **
COMMENT **
COMMENT **
COMMENT **
COMMENT **
COMMENT **
COMMENT **
COMMENT **
COMMENT **
COMMENT **
C0
C0
C0
C0
C0
C0
C0
C0
C0
C0
C0
C0
C0
ENDCHAR
STARTCHAR 123
ENCODING 157
SWIDTH 2 0
DWIDTH 5 0
BBX 4 8 1 2
BITMAP
COMMENT    *
COMMENT   **
COMMENT *** 
COMMENT **  
COMMENT **  
COMMENT *** 
COMMENT   **
COMMENT    *
10
30
E0
C0
C0
E0
30
10
ENDCHAR
STARTCHAR 124
ENCODING 158
SWIDTH 2 0
DWIDTH 5 0
BBX 4 8 1 2
BITMAP
COMMENT *   
COMMENT **  
COMMENT  ***
COMMENT   **
COMMENT   **
COMMENT  ***
COMMENT **  
COMMENT *   
80
C0
70
30
30
70
C0
80
ENDCHAR
STARTCHAR 125
ENCODING 159
SWIDTH 4 0
DWIDTH 10 0
BBX 9 8 1 2
BITMAP
COMMENT    *    *
COMMENT   **   **
COMMENT ***  *** 
COMMENT **   **  
COMMENT **   **  
COMMENT ***  *** 
COMMENT   **   **
COMMENT    *    *
1080
3180
E700
C600
C600
E700
3180
1080
ENDCHAR
STARTCHAR 126
ENCODING 160
SWIDTH 4 0
DWIDTH 10 0
BBX 9 8 1 2
BITMAP
COMMENT *    *   
COMMENT **   **  
COMMENT  ***  ***
COMMENT   **   **
COMMENT   **   **
COMMENT  ***  ***
COMMENT **   **  
COMMENT *    *   
8400
C600
7380
3180
3180
7380
C600
8400
ENDCHAR
STARTCHAR 127
ENCODING 161
SWIDTH 5 0
DWIDTH 12 0
BBX 10 17 1 0
BITMAP
COMMENT     **    
COMMENT     **    
COMMENT     **    
COMMENT           
COMMENT           
COMMENT     **    
COMMENT     **    
COMMENT    **     
COMMENT   ***     
COMMENT  ***      
COMMENT ***       
COMMENT **      **
COMMENT **      **
COMMENT **     ***
COMMENT ***    ** 
COMMENT  ******** 
COMMENT    ****   
0C00
0C00
0C00
0000
0000
0C00
0C00
1800
3800
7000
E000
C0C0
C0C0
C1C0
E180
7F80
1E00
ENDCHAR
STARTCHAR 128
ENCODING 162
SWIDTH 2 0
DWIDTH 7 0
BBX 2 17 3 0
BITMAP
COMMENT **
COMMENT **
COMMENT **
COMMENT   
COMMENT   
COMMENT **
COMMENT **
COMMENT **
COMMENT **
COMMENT **
COMMENT **
COMMENT **
COMMENT **
COMMENT **
COMMENT **
COMMENT **
COMMENT **
C0
C0
C0
00
00
C0
C0
C0
C0
C0
C0
C0
C0
C0
C0
C0
C0
ENDCHAR
STARTCHAR 129
ENCODING 163
SWIDTH 5 0
DWIDTH 12 0
BBX 5 4 4 14
BITMAP
COMMENT   ***
COMMENT   ** 
COMMENT  **  
COMMENT **   
38
30
60
C0
ENDCHAR
STARTCHAR 130
ENCODING 164
SWIDTH 5 0
DWIDTH 12 0
BBX 9 8 2 16
BITMAP
COMMENT   ***    
COMMENT   **     
COMMENT  **      
COMMENT **       
COMMENT          
COMMENT          
COMMENT          
COMMENT          
3800
3000
6000
C000
0000
0000
0000
0000
ENDCHAR
STARTCHAR 131
ENCODING 165
SWIDTH 5 0
DWIDTH 12 0
BBX 5 4 3 14
BITMAP
COMMENT ***  
COMMENT  **  
COMMENT   ** 
COMMENT    **
E0
60
30
18
ENDCHAR
STARTCHAR 132
ENCODING 166
SWIDTH 5 0
DWIDTH 12 0
BBX 9 8 0 16
BITMAP
COMMENT ***      
COMMENT  **      
COMMENT   **     
COMMENT    **    
COMMENT          
COMMENT          
COMMENT          
COMMENT          
E000
6000
3000
1800
0000
0000
0000
0000
ENDCHAR
STARTCHAR 133
ENCODING 167
SWIDTH 5 0
DWIDTH 12 0
BBX 7 4 3 14
BITMAP
COMMENT   ***  
COMMENT  ** ** 
COMMENT  ** ** 
COMMENT **   **
38
6C
6C
C6
ENDCHAR
STARTCHAR 134
ENCODING 168
SWIDTH 5 0
DWIDTH 12 0
BBX 11 8 0 16
BITMAP
COMMENT   ***      
COMMENT  ** **     
COMMENT  ** **     
COMMENT **   **    
COMMENT            
COMMENT            
COMMENT            
COMMENT            
3800
6C00
6C00
C600
0000
0000
0000
0000
ENDCHAR
STARTCHAR 135
ENCODING 169
SWIDTH 5 0
DWIDTH 12 0
BBX 6 2 3 15
BITMAP
COMMENT **  **
COMMENT **  **
CC
CC
ENDCHAR
STARTCHAR 136
ENCODING 170
SWIDTH 5 0
DWIDTH 12 0
BBX 11 6 0 17
BITMAP
COMMENT **  **     
COMMENT **  **     
COMMENT            
COMMENT            
COMMENT            
COMMENT            
CC00
CC00
0000
0000
0000
0000
ENDCHAR
STARTCHAR 137
ENCODING 171
SWIDTH 5 0
DWIDTH 12 0
BBX 7 3 3 15
BITMAP
COMMENT  ***  *
COMMENT *******
COMMENT *  *** 
72
FE
9C
ENDCHAR
STARTCHAR 138
ENCODING 172
SWIDTH 5 0
DWIDTH 12 0
BBX 11 7 0 17
BITMAP
COMMENT  ***  *    
COMMENT *******    
COMMENT *  ***     
COMMENT            
COMMENT            
COMMENT            
COMMENT            
7200
FE00
9C00
0000
0000
0000
0000
ENDCHAR
STARTCHAR 139
ENCODING 173
SWIDTH 5 0
DWIDTH 12 0
BBX 7 4 3 14
BITMAP
COMMENT **   **
COMMENT  ** ** 
COMMENT  ** ** 
COMMENT   ***  
C6
6C
6C
38
ENDCHAR
STARTCHAR 140
ENCODING 174
SWIDTH 5 0
DWIDTH 12 0
BBX 11 8 0 16
BITMAP
COMMENT **   **    
COMMENT  ** **     
COMMENT  ** **     
COMMENT   ***      
COMMENT            
COMMENT            
COMMENT            
COMMENT            
C600
6C00
6C00
3800
0000
0000
0000
0000
ENDCHAR
STARTCHAR 141
ENCODING 175
SWIDTH 5 0
DWIDTH 12 0
BBX 7 4 2 -5
BITMAP
COMMENT   *    
COMMENT   ***  
COMMENT     ** 
COMMENT     ** 
20
38
0C
0C
ENDCHAR
STARTCHAR 142
ENCODING 177
SWIDTH 5 0
DWIDTH 12 0
BBX 6 2 3 15
BITMAP
COMMENT ******
COMMENT ******
FC
FC
ENDCHAR
STARTCHAR 143
ENCODING 178
SWIDTH 5 0
DWIDTH 12 0
BBX 11 6 0 17
BITMAP
COMMENT ******     
COMMENT ******     
COMMENT            
COMMENT            
COMMENT            
COMMENT            
FC00
FC00
0000
0000
0000
0000
ENDCHAR
STARTCHAR 144
ENCODING 179
SWIDTH 5 0
DWIDTH 12 0
BBX 7 4 3 15
BITMAP
COMMENT *     *
COMMENT **   **
COMMENT  ***** 
COMMENT   ***  
82
C6
7C
38
ENDCHAR
STARTCHAR 145
ENCODING 180
SWIDTH 5 0
DWIDTH 12 0
BBX 11 7 0 17
BITMAP
COMMENT *     *    
COMMENT **   **    
COMMENT  *****     
COMMENT   ***      
COMMENT            
COMMENT            
COMMENT            
8200
C600
7C00
3800
0000
0000
0000
ENDCHAR
STARTCHAR 146
ENCODING 181
SWIDTH 5 0
DWIDTH 12 0
BBX 6 6 3 14
BITMAP
COMMENT  **** 
COMMENT **  **
COMMENT *    *
COMMENT *    *
COMMENT **  **
COMMENT  **** 
78
CC
84
84
CC
78
ENDCHAR
STARTCHAR 147
ENCODING 182
SWIDTH 5 0
DWIDTH 12 0
BBX 10 10 1 16
BITMAP
COMMENT  ****     
COMMENT **  **    
COMMENT *    *    
COMMENT *    *    
COMMENT **  **    
COMMENT  ****     
COMMENT           
COMMENT           
COMMENT           
COMMENT           
7800
CC00
8400
8400
CC00
7800
0000
0000
0000
0000
ENDCHAR
STARTCHAR 148
ENCODING 183
SWIDTH 7 0
DWIDTH 17 0
BBX 19 27 -1 -8
BITMAP
COMMENT      ******        
COMMENT    **********      
COMMENT   ***     ****     
COMMENT  ***        **     
COMMENT  **          **    
COMMENT ***                
COMMENT **                 
COMMENT **                 
COMMENT **                 
COMMENT **                 
COMMENT **                 
COMMENT ***          **    
COMMENT  **          **    
COMMENT  ***        **     
COMMENT   ***     ***      
COMMENT    *********       
COMMENT      ******        
COMMENT        *           
COMMENT        ***         
COMMENT          **        
COMMENT          **        
COMMENT      *****         
COMMENT                    
COMMENT                    
COMMENT                    
COMMENT                    
COMMENT                    
07E000
1FF800
383C00
700C00
600600
E00000
C00000
C00000
C00000
C00000
C00000
E00600
600600
700C00
383800
1FF000
07E000
010000
01C000
006000
006000
07C000
000000
000000
000000
000000
000000
ENDCHAR
STARTCHAR 149
ENCODING 184
SWIDTH 5 0
DWIDTH 12 0
BBX 16 23 -2 -8
BITMAP
COMMENT    *****        
COMMENT   ********      
COMMENT  ***    **      
COMMENT  **      **     
COMMENT **       **     
COMMENT **              
COMMENT **              
COMMENT **              
COMMENT **       **     
COMMENT  **      **     
COMMENT  ***   ***      
COMMENT   ********      
COMMENT    *****        
COMMENT      *          
COMMENT      ***        
COMMENT        **       
COMMENT        **       
COMMENT    *****        
COMMENT                 
COMMENT                 
COMMENT                 
COMMENT                 
COMMENT                 
1F00
3FC0
70C0
6060
C060
C000
C000
C000
C060
6060
71C0
3FC0
1F00
0400
0700
0180
0180
1F00
0000
0000
0000
0000
0000
ENDCHAR
STARTCHAR 150
ENCODING 185
SWIDTH 8 0
DWIDTH 20 0
BBX 23 21 -1 -3
BITMAP
COMMENT   *         **         
COMMENT   *         *          
COMMENT ***        *           
COMMENT   *       **           
COMMENT   *       *            
COMMENT   *      **            
COMMENT   *      *             
COMMENT   *     *   *****      
COMMENT   *    **  **   **     
COMMENT   *    *   *     *     
COMMENT       *    **   **     
COMMENT      **     *****      
COMMENT      *     **   **     
COMMENT     **     *     *     
COMMENT     *      *     *     
COMMENT    *       **   **     
COMMENT   **         ***       
COMMENT                        
COMMENT                        
COMMENT                        
COMMENT                        
200C00
200800
E01000
203000
202000
206000
204000
208F80
2198C0
211040
0218C0
060F80
0418C0
0C1040
081040
1018C0
300700
000000
000000
000000
000000
ENDCHAR
STARTCHAR 151
ENCODING 186
SWIDTH 8 0
DWIDTH 20 0
BBX 23 21 -1 -3
BITMAP
COMMENT   *         **         
COMMENT   *         *          
COMMENT ***        *           
COMMENT   *       **           
COMMENT   *       *            
COMMENT   *      **            
COMMENT   *      *             
COMMENT   *     *       *      
COMMENT   *    **      **      
COMMENT   *    *      * *      
COMMENT       *      *  *      
COMMENT      **     **  *      
COMMENT      *     **   *      
COMMENT     **     *******     
COMMENT     *           *      
COMMENT    *            *      
COMMENT   **            *      
COMMENT                        
COMMENT                        
COMMENT                        
COMMENT                        
200C00
200800
E01000
203000
202000
206000
204000
208080
218180
210280
020480
060C80
041880
0C1FC0
080080
100080
300080
000000
000000
000000
000000
ENDCHAR
STARTCHAR 152
ENCODING 187
SWIDTH 8 0
DWIDTH 20 0
BBX 24 21 -2 -3
BITMAP
COMMENT   ****       **         
COMMENT  *   **      *          
COMMENT *     *     *           
COMMENT       *    **           
COMMENT      **    *            
COMMENT    ***    **            
COMMENT       *   *             
COMMENT *     *  *   *****      
COMMENT **   ** **  **   **     
COMMENT  *****  *   *     *     
COMMENT        *    **   **     
COMMENT       **     *****      
COMMENT       *     **   **     
COMMENT      **     *     *     
COMMENT      *      *     *     
COMMENT     *       **   **     
COMMENT    **         ***       
COMMENT                         
COMMENT                         
COMMENT                         
COMMENT                         
3C0600
460400
820800
021800
061000
1C3000
022000
8247C0
C6CC60
7C8820
010C60
0307C0
020C60
060820
040820
080C60
180380
000000
000000
000000
000000
ENDCHAR
STARTCHAR 153
ENCODING 188
SWIDTH 8 0
DWIDTH 20 0
BBX 23 21 -1 -3
BITMAP
COMMENT   *         **         
COMMENT   *         *          
COMMENT ***        *           
COMMENT   *       **           
COMMENT   *       *            
COMMENT   *      **            
COMMENT   *      *             
COMMENT   *     *   *****      
COMMENT   *    **  **   **     
COMMENT   *    *   *     *     
COMMENT       *          *     
COMMENT      **         **     
COMMENT      *        ***      
COMMENT     **      ***        
COMMENT     *      **          
COMMENT    *       *           
COMMENT   **       *******     
COMMENT                        
COMMENT                        
COMMENT                        
COMMENT                        
200C00
200800
E01000
203000
202000
206000
204000
208F80
2198C0
211040
020040
0600C0
040380
0C0E00
081800
101000
301FC0
000000
000000
000000
000000
ENDCHAR
STARTCHAR 154
ENCODING 189
SWIDTH 8 0
DWIDTH 20 0
BBX 24 21 -2 -3
BITMAP
COMMENT  ******      **         
COMMENT **           *          
COMMENT *           *           
COMMENT *****      **           
COMMENT **   *     *            
COMMENT       *   **            
COMMENT       *   *             
COMMENT *     *  *   *****      
COMMENT **   *  **  **   **     
COMMENT   ***   *   *     *     
COMMENT        *    **   **     
COMMENT       **     *****      
COMMENT       *     **   **     
COMMENT      **     *     *     
COMMENT      *      *     *     
COMMENT     *       **   **     
COMMENT    **         ***       
COMMENT                         
COMMENT                         
COMMENT                         
COMMENT                         
7E0600
C00400
800800
F81800
C41000
023000
022000
8247C0
C4CC60
388820
010C60
0307C0
020C60
060820
040820
080C60
180380
000000
000000
000000
000000
ENDCHAR
STARTCHAR 155
ENCODING 190
SWIDTH 8 0
DWIDTH 20 0
BBX 24 21 -2 -3
BITMAP
COMMENT   ****       **         
COMMENT  *   **      *          
COMMENT *     *     *           
COMMENT       *    **           
COMMENT      **    *            
COMMENT    ***    **            
COMMENT       *   *             
COMMENT *     *  *       *      
COMMENT **   ** **      **      
COMMENT  *****  *      * *      
COMMENT        *      *  *      
COMMENT       **     **  *      
COMMENT       *     **   *      
COMMENT      **     *******     
COMMENT      *           *      
COMMENT     *            *      
COMMENT    **            *      
COMMENT                         
COMMENT                         
COMMENT                         
COMMENT                         
3C0600
460400
820800
021800
061000
1C3000
022000
824040
C6C0C0
7C8140
010240
030640
020C40
060FE0
040040
080040
180040
000000
000000
000000
000000
ENDCHAR
STARTCHAR 156
ENCODING 191
SWIDTH 8 0
DWIDTH 20 0
BBX 24 21 -2 -3
BITMAP
COMMENT *******      **         
COMMENT      **      *          
COMMENT     **      *           
COMMENT     *      **           
COMMENT    **      *            
COMMENT    *      **            
COMMENT   **      *             
COMMENT   *      *   *****      
COMMENT   *     **  **   **     
COMMENT  **     *   *     *     
COMMENT        *    **   **     
COMMENT       **     *****      
COMMENT       *     **   **     
COMMENT      **     *     *     
COMMENT      *      *     *     
COMMENT     *       **   **     
COMMENT    **         ***       
COMMENT                         
COMMENT                         
COMMENT                         
COMMENT                         
FE0600
060400
0C0800
081800
181000
103000
302000
2047C0
20CC60
608820
010C60
0307C0
020C60
060820
040820
080C60
180380
000000
000000
000000
000000
ENDCHAR
STARTCHAR 157
ENCODING 192
SWIDTH 8 0
DWIDTH 20 0
BBX 23 21 -1 -3
BITMAP
COMMENT   *         **         
COMMENT   *         *          
COMMENT ***        *           
COMMENT   *       **           
COMMENT   *       *            
COMMENT   *      **            
COMMENT   *      *             
COMMENT   *     *    ****      
COMMENT   *    **   *   **     
COMMENT   *    *   *     *     
COMMENT       *          *     
COMMENT      **         **     
COMMENT      *        ***      
COMMENT     **           *     
COMMENT     *      *     *     
COMMENT    *       **   **     
COMMENT   **        *****      
COMMENT                        
COMMENT                        
COMMENT                        
COMMENT                        
200C00
200800
E01000
203000
202000
206000
204000
208780
2188C0
211040
020040
0600C0
040380
0C0040
081040
1018C0
300F80
000000
000000
000000
000000
ENDCHAR
STARTCHAR 158
ENCODING 193
SWIDTH 8 0
DWIDTH 20 0
BBX 24 21 -2 -3
BITMAP
COMMENT  *****       **         
COMMENT **   **      *          
COMMENT *     *     *           
COMMENT       *    **           
COMMENT      **    *            
COMMENT    ***    **            
COMMENT  ***      *             
COMMENT **       *    ****      
COMMENT *       **   *   **     
COMMENT ******* *   *     *     
COMMENT        *          *     
COMMENT       **         **     
COMMENT       *        ***      
COMMENT      **           *     
COMMENT      *      *     *     
COMMENT     *       **   **     
COMMENT    **        *****      
COMMENT                         
COMMENT                         
COMMENT                         
COMMENT                         
7C0600
C60400
820800
021800
061000
1C3000
702000
C043C0
80C460
FE8820
010020
030060
0201C0
060020
040820
080C60
1807C0
000000
000000
000000
000000
ENDCHAR
STARTCHAR 159
ENCODING 194
SWIDTH 3 0
DWIDTH 8 0
BBX 8 14 -1 4
BITMAP
COMMENT    *    
COMMENT   **    
COMMENT ****    
COMMENT    *    
COMMENT    *    
COMMENT    *    
COMMENT    *    
COMMENT    *    
COMMENT    *    
COMMENT    *    
COMMENT         
COMMENT         
COMMENT         
COMMENT         
10
30
F0
10
10
10
10
10
10
10
00
00
00
00
ENDCHAR
STARTCHAR 160
ENCODING 195
SWIDTH 3 0
DWIDTH 8 0
BBX 12 14 -2 4
BITMAP
COMMENT   ***       
COMMENT  *   **     
COMMENT *     *     
COMMENT *     *     
COMMENT      **     
COMMENT     **      
COMMENT   ***       
COMMENT  *          
COMMENT *           
COMMENT *******     
COMMENT             
COMMENT             
COMMENT             
COMMENT             
3800
4600
8200
8200
0600
0C00
3800
4000
8000
FE00
0000
0000
0000
0000
ENDCHAR
STARTCHAR 161
ENCODING 196
SWIDTH 3 0
DWIDTH 8 0
BBX 12 14 -2 4
BITMAP
COMMENT   *****     
COMMENT  *    **    
COMMENT *      *    
COMMENT       **    
COMMENT    ****     
COMMENT       **    
COMMENT        *    
COMMENT *      *    
COMMENT **    *     
COMMENT   ****      
COMMENT             
COMMENT             
COMMENT             
COMMENT             
3E00
4300
8100
0300
1E00
0300
0100
8100
C200
3C00
0000
0000
0000
0000
ENDCHAR
STARTCHAR 162
ENCODING 197
SWIDTH 3 0
DWIDTH 8 0
BBX 12 14 -2 4
BITMAP
COMMENT      *      
COMMENT     **      
COMMENT    * *      
COMMENT   *  *      
COMMENT  **  *      
COMMENT **   *      
COMMENT ********    
COMMENT      *      
COMMENT      *      
COMMENT      *      
COMMENT             
COMMENT             
COMMENT             
COMMENT             
0400
0C00
1400
2400
6400
C400
FF00
0400
0400
0400
0000
0000
0000
0000
ENDCHAR
STARTCHAR 163
ENCODING 198
SWIDTH 3 0
DWIDTH 8 0
BBX 12 14 -2 4
BITMAP
COMMENT  *******    
COMMENT **          
COMMENT **          
COMMENT ******      
COMMENT **    *     
COMMENT        *    
COMMENT        *    
COMMENT *      *    
COMMENT  *    *     
COMMENT   ****      
COMMENT             
COMMENT             
COMMENT             
COMMENT             
7F00
C000
C000
FC00
C200
0100
0100
8100
4200
3C00
0000
0000
0000
0000
ENDCHAR
STARTCHAR 164
ENCODING 199
SWIDTH 3 0
DWIDTH 8 0
BBX 12 14 -2 4
BITMAP
COMMENT   *****     
COMMENT  *    **    
COMMENT *           
COMMENT * ****      
COMMENT **    *     
COMMENT *      *    
COMMENT *      *    
COMMENT *      *    
COMMENT  *    *     
COMMENT   ****      
COMMENT             
COMMENT             
COMMENT             
COMMENT             
3E00
4300
8000
BC00
C200
8100
8100
8100
4200
3C00
0000
0000
0000
0000
ENDCHAR
STARTCHAR 165
ENCODING 200
SWIDTH 3 0
DWIDTH 8 0
BBX 12 14 -2 4
BITMAP
COMMENT ********    
COMMENT       *     
COMMENT      **     
COMMENT     **      
COMMENT     *       
COMMENT    **       
COMMENT    *        
COMMENT   **        
COMMENT   **        
COMMENT   *         
COMMENT             
COMMENT             
COMMENT             
COMMENT             
FF00
0200
0600
0C00
0800
1800
1000
3000
3000
2000
0000
0000
0000
0000
ENDCHAR
STARTCHAR 166
ENCODING 201
SWIDTH 3 0
DWIDTH 8 0
BBX 12 14 -2 4
BITMAP
COMMENT   ****      
COMMENT **    **    
COMMENT *      *    
COMMENT **    **    
COMMENT  ******     
COMMENT **    **    
COMMENT *      *    
COMMENT *      *    
COMMENT  *    *     
COMMENT   ****      
COMMENT             
COMMENT             
COMMENT             
COMMENT             
3C00
C300
8100
C300
7E00
C300
8100
8100
4200
3C00
0000
0000
0000
0000
ENDCHAR
STARTCHAR 167
ENCODING 202
SWIDTH 3 0
DWIDTH 8 0
BBX 12 14 -2 4
BITMAP
COMMENT   ****      
COMMENT  *    *     
COMMENT *      *    
COMMENT *      *    
COMMENT *      *    
COMMENT  *    **    
COMMENT   **** *    
COMMENT        *    
COMMENT **    *     
COMMENT  *****      
COMMENT             
COMMENT             
COMMENT             
COMMENT             
3C00
4200
8100
8100
8100
4300
3D00
0100
C200
7C00
0000
0000
0000
0000
ENDCHAR
STARTCHAR 168
ENCODING 203
SWIDTH 3 0
DWIDTH 8 0
BBX 12 14 -2 4
BITMAP
COMMENT   ****      
COMMENT  *    *     
COMMENT *      *    
COMMENT *      *    
COMMENT *      *    
COMMENT *      *    
COMMENT *      *    
COMMENT *      *    
COMMENT  *    *     
COMMENT   ****      
COMMENT             
COMMENT             
COMMENT             
COMMENT             
3C00
4200
8100
8100
8100
8100
8100
8100
4200
3C00
0000
0000
0000
0000
ENDCHAR
STARTCHAR 169
ENCODING 225
SWIDTH 7 0
DWIDTH 17 0
BBX 16 17 0 0
BITMAP
COMMENT   **********    
COMMENT   ***********   
COMMENT   **       ***  
COMMENT   **        *** 
COMMENT   **         ** 
COMMENT   **          **
COMMENT   **          **
COMMENT   **          **
COMMENT *********     **
COMMENT   **          **
COMMENT   **          **
COMMENT   **          **
COMMENT   **         ** 
COMMENT   **        *** 
COMMENT   **       ***  
COMMENT   ***********   
COMMENT   *********     
3FF0
3FF8
301C
300E
3006
3003
3003
3003
FF83
3003
3003
3003
3006
300E
301C
3FF8
3FE0
ENDCHAR
STARTCHAR 170
ENCODING 226
SWIDTH 5 0
DWIDTH 12 0
BBX 14 17 -1 0
BITMAP
COMMENT    **         
COMMENT    **         
COMMENT    **         
COMMENT    **         
COMMENT    **   **    
COMMENT    **  ***    
COMMENT    ** **      
COMMENT    ****       
COMMENT    ***        
COMMENT  ****         
COMMENT *****         
COMMENT  * **         
COMMENT    **         
COMMENT    **         
COMMENT    **         
COMMENT    ***********
COMMENT    ***********
1800
1800
1800
1800
18C0
19C0
1B00
1E00
1C00
7800
F800
5800
1800
1800
1800
1FFC
1FFC
ENDCHAR
STARTCHAR 171
ENCODING 227
SWIDTH 6 0
DWIDTH 15 0
BBX 15 22 0 -5
BITMAP
COMMENT       ***      
COMMENT      ****      
COMMENT      ****      
COMMENT      *****     
COMMENT     **  **     
COMMENT     **  **     
COMMENT     **  ***    
COMMENT    **    **    
COMMENT    **    ***   
COMMENT    **    ***   
COMMENT   **********   
COMMENT   ***********  
COMMENT   **      ***  
COMMENT  **        *** 
COMMENT  **        *** 
COMMENT  **         ** 
COMMENT **          ***
COMMENT              * 
COMMENT             *  
COMMENT            **  
COMMENT            ****
COMMENT             ***
0380
0780
0780
07C0
0CC0
0CC0
0CE0
1860
1870
1870
3FF0
3FF8
3038
601C
601C
600C
C00E
0004
0008
0018
001E
000E
ENDCHAR
STARTCHAR 172
ENCODING 228
SWIDTH 6 0
DWIDTH 15 0
BBX 12 22 2 -5
BITMAP
COMMENT ************
COMMENT ************
COMMENT **          
COMMENT **          
COMMENT **          
COMMENT **          
COMMENT **          
COMMENT *********** 
COMMENT *********** 
COMMENT **          
COMMENT **          
COMMENT **          
COMMENT **          
COMMENT **          
COMMENT **          
COMMENT ************
COMMENT ************
COMMENT           * 
COMMENT          *  
COMMENT          *  
COMMENT         ****
COMMENT          ***
FFF0
FFF0
C000
C000
C000
C000
C000
FFE0
FFE0
C000
C000
C000
C000
C000
C000
FFF0
FFF0
0020
0040
0040
00F0
0070
ENDCHAR
STARTCHAR 173
ENCODING 229
SWIDTH 5 0
DWIDTH 14 0
BBX 14 17 1 0
BITMAP
COMMENT           **  
COMMENT           **  
COMMENT       ********
COMMENT           **  
COMMENT    *****  **  
COMMENT   ******* **  
COMMENT  ***    ****  
COMMENT  **      ***  
COMMENT **        **  
COMMENT **        **  
COMMENT **        **  
COMMENT **        **  
COMMENT **        **  
COMMENT  **      ***  
COMMENT  ***    ****  
COMMENT   ******* **  
COMMENT    *****  **  
0030
0030
03FC
0030
1F30
3FB0
70F0
6070
C030
C030
C030
C030
C030
6070
70F0
3FB0
1F30
ENDCHAR
STARTCHAR 174
ENCODING 230
SWIDTH 2 0
DWIDTH 5 0
BBX 6 17 0 0
BITMAP
COMMENT   **  
COMMENT   **  
COMMENT   **  
COMMENT   **  
COMMENT   **  
COMMENT   **  
COMMENT   ****
COMMENT   *** 
COMMENT   **  
COMMENT ****  
COMMENT * **  
COMMENT   **  
COMMENT   **  
COMMENT   **  
COMMENT   **  
COMMENT   **  
COMMENT   **  
30
30
30
30
30
30
3C
38
30
F0
B0
30
30
30
30
30
30
ENDCHAR
STARTCHAR 175
ENCODING 231
SWIDTH 5 0
DWIDTH 12 0
BBX 11 17 2 0
BITMAP
COMMENT **     **  
COMMENT **     **  
COMMENT **      *  
COMMENT **     *   
COMMENT **         
COMMENT **         
COMMENT **         
COMMENT **         
COMMENT **         
COMMENT **         
COMMENT **         
COMMENT **         
COMMENT **         
COMMENT **         
COMMENT **         
COMMENT ***********
COMMENT ***********
C180
C180
C080
C100
C000
C000
C000
C000
C000
C000
C000
C000
C000
C000
C000
FFE0
FFE0
ENDCHAR
STARTCHAR 176
ENCODING 232
SWIDTH 2 0
DWIDTH 5 0
BBX 4 18 0 -5
BITMAP
COMMENT   **
COMMENT   **
COMMENT   **
COMMENT   **
COMMENT   **
COMMENT   **
COMMENT   **
COMMENT   **
COMMENT   **
COMMENT   **
COMMENT   **
COMMENT   **
COMMENT   **
COMMENT   **
COMMENT   **
COMMENT   **
COMMENT ****
COMMENT *** 
30
30
30
30
30
30
30
30
30
30
30
30
30
30
30
30
F0
E0
ENDCHAR
STARTCHAR 177
ENCODING 233
SWIDTH 5 0
DWIDTH 13 0
BBX 11 18 1 -5
BITMAP
COMMENT    *****   
COMMENT   *******  
COMMENT  ***   *** 
COMMENT  **     ** 
COMMENT  **     ** 
COMMENT         ** 
COMMENT    ******* 
COMMENT  *****  ** 
COMMENT **      ** 
COMMENT **      ** 
COMMENT **     *** 
COMMENT  ****** ***
COMMENT   ****   **
COMMENT          * 
COMMENT         *  
COMMENT         *  
COMMENT         ***
COMMENT         ***
1F00
3F80
71C0
60C0
60C0
00C0
1FC0
7CC0
C0C0
C0C0
C1C0
7EE0
3C60
0040
0080
0080
00E0
00E0
ENDCHAR
STARTCHAR 178
ENCODING 234
SWIDTH 5 0
DWIDTH 13 0
BBX 11 18 1 -5
BITMAP
COMMENT    *****   
COMMENT   *******  
COMMENT  ***    ** 
COMMENT  *       **
COMMENT **       **
COMMENT ***********
COMMENT ***********
COMMENT **         
COMMENT **         
COMMENT ***      **
COMMENT  ***    ** 
COMMENT   ******** 
COMMENT    ******  
COMMENT       **   
COMMENT       *    
COMMENT      **    
COMMENT      ****  
COMMENT       ***  
1F00
3F80
70C0
4060
C060
FFE0
FFE0
C000
C000
E060
70C0
3FC0
1F80
0300
0200
0600
0780
0380
ENDCHAR
STARTCHAR 179
ENCODING 235
SWIDTH 10 0
DWIDTH 25 0
BBX 24 17 2 0
BITMAP
COMMENT **           **         
COMMENT **           **         
COMMENT **           **         
COMMENT **           **         
COMMENT **           **         
COMMENT **           **         
COMMENT **     **    **         
COMMENT **     **    **         
COMMENT **     **    **         
COMMENT **           **         
COMMENT **           **         
COMMENT **           **         
COMMENT **           **         
COMMENT **           **         
COMMENT **           **         
COMMENT ***********  ***********
COMMENT ***********  ***********
C00600
C00600
C00600
C00600
C00600
C00600
C18600
C18600
C18600
C00600
C00600
C00600
C00600
C00600
C00600
FFE7FF
FFE7FF
ENDCHAR
STARTCHAR 180
ENCODING 236
SWIDTH 5 0
DWIDTH 12 0
BBX 10 17 2 0
BITMAP
COMMENT **      **
COMMENT **      **
COMMENT **      **
COMMENT **      **
COMMENT **      **
COMMENT **      **
COMMENT **      **
COMMENT **      **
COMMENT **  **  **
COMMENT **  **  **
COMMENT **      **
COMMENT **      **
COMMENT **      **
COMMENT **      **
COMMENT **      **
COMMENT **      **
COMMENT **      **
C0C0
C0C0
C0C0
C0C0
C0C0
C0C0
C0C0
C0C0
CCC0
CCC0
C0C0
C0C0
C0C0
C0C0
C0C0
C0C0
C0C0
ENDCHAR
STARTCHAR 181
ENCODING 237
SWIDTH 5 0
DWIDTH 12 0
BBX 2 2 5 15
BITMAP
COMMENT **
COMMENT **
C0
C0
ENDCHAR
STARTCHAR 182
ENCODING 238
SWIDTH 5 0
DWIDTH 12 0
BBX 7 7 2 17
BITMAP
COMMENT **     
COMMENT **     
COMMENT        
COMMENT        
COMMENT        
COMMENT        
COMMENT        
C0
C0
00
00
00
00
00
ENDCHAR
STARTCHAR 183
ENCODING 239
SWIDTH 5 0
DWIDTH 12 0
BBX 7 4 4 14
BITMAP
COMMENT  **  **
COMMENT  ** ** 
COMMENT  *  *  
COMMENT *  *   
66
6C
48
90
ENDCHAR
STARTCHAR 184
ENCODING 240
SWIDTH 5 0
DWIDTH 12 0
BBX 11 8 1 16
BITMAP
COMMENT  **  **    
COMMENT  ** **     
COMMENT  *  *      
COMMENT *  *       
COMMENT            
COMMENT            
COMMENT            
COMMENT            
6600
6C00
4800
9000
0000
0000
0000
0000
ENDCHAR
STARTCHAR 185
ENCODING 241
SWIDTH 5 0
DWIDTH 12 0
BBX 2 4 5 14
BITMAP
COMMENT **
COMMENT **
COMMENT  *
COMMENT * 
C0
C0
40
80
ENDCHAR
STARTCHAR 186
ENCODING 242
SWIDTH 5 0
DWIDTH 12 0
BBX 6 2 3 -5
BITMAP
COMMENT ******
COMMENT ******
FC
FC
ENDCHAR
STARTCHAR 187
ENCODING 243
SWIDTH 5 0
DWIDTH 12 0
BBX 2 3 5 -5
BITMAP
COMMENT **
COMMENT **
COMMENT **
C0
C0
C0
ENDCHAR
STARTCHAR 188
ENCODING 244
SWIDTH 5 0
DWIDTH 12 0
BBX 2 4 5 -5
BITMAP
COMMENT **
COMMENT **
COMMENT  *
COMMENT * 
C0
C0
40
80
ENDCHAR
STARTCHAR 189
ENCODING 245
SWIDTH 5 0
DWIDTH 12 0
BBX 2 4 5 -5
BITMAP
COMMENT **
COMMENT **
COMMENT * 
COMMENT  *
C0
C0
80
40
ENDCHAR
STARTCHAR 190
ENCODING 246
SWIDTH 5 0
DWIDTH 12 0
BBX 4 5 4 -5
BITMAP
COMMENT   * 
COMMENT  *  
COMMENT **  
COMMENT ****
COMMENT  ***
20
40
C0
F0
70
ENDCHAR
STARTCHAR 191
ENCODING 248
SWIDTH 2 0
DWIDTH 6 0
BBX 6 2 1 5
BITMAP
COMMENT ******
COMMENT ******
FC
FC
ENDCHAR
STARTCHAR 192
ENCODING 249
SWIDTH 2 0
DWIDTH 6 0
BBX 7 1 0 8
BITMAP
COMMENT *******
FE
ENDCHAR
STARTCHAR 193
ENCODING 320
SWIDTH 5 0
DWIDTH 13 0
BBX 15 23 -1 -3
BITMAP
COMMENT      ***       
COMMENT      **        
COMMENT     **         
COMMENT    **          
COMMENT                
COMMENT **  ****       
COMMENT *********      
COMMENT ****   ***     
COMMENT ***     **     
COMMENT **      **     
COMMENT **      **     
COMMENT **      **     
COMMENT **      **     
COMMENT **      **     
COMMENT **      **     
COMMENT **      **     
COMMENT **      **     
COMMENT **      **     
COMMENT                
COMMENT                
COMMENT                
COMMENT                
COMMENT                
0700
0600
0C00
1800
0000
CF00
FF80
F1C0
E0C0
C0C0
C0C0
C0C0
C0C0
C0C0
C0C0
C0C0
C0C0
C0C0
0000
0000
0000
0000
0000
ENDCHAR
STARTCHAR 194
ENCODING 321
SWIDTH 7 0
DWIDTH 17 0
BBX 18 27 -1 -3
BITMAP
COMMENT        ***        
COMMENT        **         
COMMENT       **          
COMMENT      **           
COMMENT                   
COMMENT                   
COMMENT ***         **    
COMMENT ***         **    
COMMENT ****        **    
COMMENT *****       **    
COMMENT ** ***      **    
COMMENT ** ***      **    
COMMENT **  ***     **    
COMMENT **   ***    **    
COMMENT **    **    **    
COMMENT **    ***   **    
COMMENT **     ***  **    
COMMENT **      *** **    
COMMENT **      *** **    
COMMENT **       *****    
COMMENT **        ****    
COMMENT **         ***    
COMMENT **         ***    
COMMENT                   
COMMENT                   
COMMENT                   
COMMENT                   
01C000
018000
030000
060000
000000
000000
E00C00
E00C00
F00C00
F80C00
DC0C00
DC0C00
CE0C00
C70C00
C30C00
C38C00
C1CC00
C0EC00
C0EC00
C07C00
C03C00
C01C00
C01C00
000000
000000
000000
000000
ENDCHAR
STARTCHAR 195
ENCODING 322
SWIDTH 5 0
DWIDTH 13 0
BBX 15 22 -1 -3
BITMAP
COMMENT    ***  *      
COMMENT   *******      
COMMENT   *  ***       
COMMENT                
COMMENT                
COMMENT **  ****       
COMMENT *********      
COMMENT ****   ***     
COMMENT ***     **     
COMMENT **      **     
COMMENT **      **     
COMMENT **      **     
COMMENT **      **     
COMMENT **      **     
COMMENT **      **     
COMMENT **      **     
COMMENT **      **     
COMMENT **      **     
COMMENT                
COMMENT                
COMMENT                
COMMENT                
1C80
3F80
2700
0000
0000
CF00
FF80
F1C0
E0C0
C0C0
C0C0
C0C0
C0C0
C0C0
C0C0
C0C0
C0C0
C0C0
0000
0000
0000
0000
ENDCHAR
STARTCHAR 196
ENCODING 323
SWIDTH 7 0
DWIDTH 17 0
BBX 18 27 -1 -3
BITMAP
COMMENT      ***  *       
COMMENT     *******       
COMMENT     *  ***        
COMMENT                   
COMMENT                   
COMMENT                   
COMMENT ***         **    
COMMENT ***         **    
COMMENT ****        **    
COMMENT *****       **    
COMMENT ** ***      **    
COMMENT ** ***      **    
COMMENT **  ***     **    
COMMENT **   ***    **    
COMMENT **    **    **    
COMMENT **    ***   **    
COMMENT **     ***  **    
COMMENT **      *** **    
COMMENT **      *** **    
COMMENT **       *****    
COMMENT **        ****    
COMMENT **         ***    
COMMENT **         ***    
COMMENT                   
COMMENT                   
COMMENT                   
COMMENT                   
072000
0FE000
09C000
000000
000000
000000
E00C00
E00C00
F00C00
F80C00
DC0C00
DC0C00
CE0C00
C70C00
C30C00
C38C00
C1CC00
C0EC00
C0EC00
C07C00
C03C00
C01C00
C01C00
000000
000000
000000
000000
ENDCHAR
STARTCHAR 197
ENCODING 324
SWIDTH 5 0
DWIDTH 13 0
BBX 15 23 -1 -3
BITMAP
COMMENT   **   **      
COMMENT    ** **       
COMMENT    ** **       
COMMENT     ***        
COMMENT                
COMMENT **  ****       
COMMENT *********      
COMMENT ****   ***     
COMMENT ***     **     
COMMENT **      **     
COMMENT **      **     
COMMENT **      **     
COMMENT **      **     
COMMENT **      **     
COMMENT **      **     
COMMENT **      **     
COMMENT **      **     
COMMENT **      **     
COMMENT                
COMMENT                
COMMENT                
COMMENT                
COMMENT                
3180
1B00
1B00
0E00
0000
CF00
FF80
F1C0
E0C0
C0C0
C0C0
C0C0
C0C0
C0C0
C0C0
C0C0
C0C0
C0C0
0000
0000
0000
0000
0000
ENDCHAR
STARTCHAR 198
ENCODING 325
SWIDTH 7 0
DWIDTH 17 0
BBX 18 27 -1 -3
BITMAP
COMMENT     **   **       
COMMENT      ** **        
COMMENT      ** **        
COMMENT       ***         
COMMENT                   
COMMENT                   
COMMENT ***         **    
COMMENT ***         **    
COMMENT ****        **    
COMMENT *****       **    
COMMENT ** ***      **    
COMMENT ** ***      **    
COMMENT **  ***     **    
COMMENT **   ***    **    
COMMENT **    **    **    
COMMENT **    ***   **    
COMMENT **     ***  **    
COMMENT **      *** **    
COMMENT **      *** **    
COMMENT **       *****    
COMMENT **        ****    
COMMENT **         ***    
COMMENT **         ***    
COMMENT                   
COMMENT                   
COMMENT                   
COMMENT                   
0C6000
06C000
06C000
038000
000000
000000
E00C00
E00C00
F00C00
F80C00
DC0C00
DC0C00
CE0C00
C70C00
C30C00
C38C00
C1CC00
C0EC00
C0EC00
C07C00
C03C00
C01C00
C01C00
000000
000000
000000
000000
ENDCHAR
STARTCHAR 199
ENCODING 326
SWIDTH 5 0
DWIDTH 13 0
BBX 17 23 -2 -3
BITMAP
COMMENT       ***        
COMMENT       **         
COMMENT      **          
COMMENT     **           
COMMENT                  
COMMENT    ******        
COMMENT   ********       
COMMENT  ***    ***      
COMMENT  **      **      
COMMENT **        **     
COMMENT **        **     
COMMENT **        **     
COMMENT **        **     
COMMENT **        **     
COMMENT  **      **      
COMMENT  ***    ***      
COMMENT   ********       
COMMENT    ******        
COMMENT                  
COMMENT                  
COMMENT                  
COMMENT                  
COMMENT                  
038000
030000
060000
0C0000
000000
1F8000
3FC000
70E000
606000
C03000
C03000
C03000
C03000
C03000
606000
70E000
3FC000
1F8000
000000
000000
000000
000000
000000
ENDCHAR
STARTCHAR 200
ENCODING 327
SWIDTH 7 0
DWIDTH 18 0
BBX 20 27 -1 -3
BITMAP
COMMENT         ***         
COMMENT         **          
COMMENT        **           
COMMENT       **            
COMMENT                     
COMMENT                     
COMMENT      ******         
COMMENT    **********       
COMMENT   ***      ***      
COMMENT  ***        ***     
COMMENT  **          **     
COMMENT ***          ***    
COMMENT **            **    
COMMENT **            **    
COMMENT **            **    
COMMENT **            **    
COMMENT **            **    
COMMENT ***          ***    
COMMENT  **          **     
COMMENT  ***        ***     
COMMENT   ***      ***      
COMMENT    **********       
COMMENT      ******         
COMMENT                     
COMMENT                     
COMMENT                     
COMMENT                     
00E000
00C000
018000
030000
000000
000000
07E000
1FF800
381C00
700E00
600600
E00700
C00300
C00300
C00300
C00300
C00300
E00700
600600
700E00
381C00
1FF800
07E000
000000
000000
000000
000000
ENDCHAR
STARTCHAR 201
ENCODING 328
SWIDTH 5 0
DWIDTH 13 0
BBX 17 23 -2 -3
BITMAP
COMMENT    ***           
COMMENT     **           
COMMENT      **          
COMMENT       **         
COMMENT                  
COMMENT    ******        
COMMENT   ********       
COMMENT  ***    ***      
COMMENT  **      **      
COMMENT **        **     
COMMENT **        **     
COMMENT **        **     
COMMENT **        **     
COMMENT **        **     
COMMENT  **      **      
COMMENT  ***    ***      
COMMENT   ********       
COMMENT    ******        
COMMENT                  
COMMENT                  
COMMENT                  
COMMENT                  
COMMENT                  
1C0000
0C0000
060000
030000
000000
1F8000
3FC000
70E000
606000
C03000
C03000
C03000
C03000
C03000
606000
70E000
3FC000
1F8000
000000
000000
000000
000000
000000
ENDCHAR
STARTCHAR 202
ENCODING 329
SWIDTH 7 0
DWIDTH 18 0
BBX 20 27 -1 -3
BITMAP
COMMENT      ***            
COMMENT       **            
COMMENT        **           
COMMENT         **          
COMMENT                     
COMMENT                     
COMMENT      ******         
COMMENT    **********       
COMMENT   ***      ***      
COMMENT  ***        ***     
COMMENT  **          **     
COMMENT ***          ***    
COMMENT **            **    
COMMENT **            **    
COMMENT **            **    
COMMENT **            **    
COMMENT **            **    
COMMENT ***          ***    
COMMENT  **          **     
COMMENT  ***        ***     
COMMENT   ***      ***      
COMMENT    **********       
COMMENT      ******         
COMMENT                     
COMMENT                     
COMMENT                     
COMMENT                     
070000
030000
018000
00C000
000000
000000
07E000
1FF800
381C00
700E00
600600
E00700
C00300
C00300
C00300
C00300
C00300
E00700
600600
700E00
381C00
1FF800
07E000
000000
000000
000000
000000
ENDCHAR
STARTCHAR 203
ENCODING 330
SWIDTH 5 0
DWIDTH 13 0
BBX 17 23 -2 -3
BITMAP
COMMENT      ***         
COMMENT     ** **        
COMMENT     ** **        
COMMENT    **   **       
COMMENT                  
COMMENT    ******        
COMMENT   ********       
COMMENT  ***    ***      
COMMENT  **      **      
COMMENT **        **     
COMMENT **        **     
COMMENT **        **     
COMMENT **        **     
COMMENT **        **     
COMMENT  **      **      
COMMENT  ***    ***      
COMMENT   ********       
COMMENT    ******        
COMMENT                  
COMMENT                  
COMMENT                  
COMMENT                  
COMMENT                  
070000
0D8000
0D8000
18C000
000000
1F8000
3FC000
70E000
606000
C03000
C03000
C03000
C03000
C03000
606000
70E000
3FC000
1F8000
000000
000000
000000
000000
000000
ENDCHAR
STARTCHAR 204
ENCODING 331
SWIDTH 7 0
DWIDTH 18 0
BBX 20 27 -1 -3
BITMAP
COMMENT        ***          
COMMENT       ** **         
COMMENT       ** **         
COMMENT      **   **        
COMMENT                     
COMMENT                     
COMMENT      ******         
COMMENT    **********       
COMMENT   ***      ***      
COMMENT  ***        ***     
COMMENT  **          **     
COMMENT ***          ***    
COMMENT **            **    
COMMENT **            **    
COMMENT **            **    
COMMENT **            **    
COMMENT **            **    
COMMENT ***          ***    
COMMENT  **          **     
COMMENT  ***        ***     
COMMENT   ***      ***      
COMMENT    **********       
COMMENT      ******         
COMMENT                     
COMMENT                     
COMMENT                     
COMMENT                     
01C000
036000
036000
063000
000000
000000
07E000
1FF800
381C00
700E00
600600
E00700
C00300
C00300
C00300
C00300
C00300
E00700
600600
700E00
381C00
1FF800
07E000
000000
000000
000000
000000
ENDCHAR
STARTCHAR 205
ENCODING 332
SWIDTH 5 0
DWIDTH 13 0
BBX 17 22 -2 -3
BITMAP
COMMENT    **  **        
COMMENT    **  **        
COMMENT                  
COMMENT                  
COMMENT    ******        
COMMENT   ********       
COMMENT  ***    ***      
COMMENT  **      **      
COMMENT **        **     
COMMENT **        **     
COMMENT **        **     
COMMENT **        **     
COMMENT **        **     
COMMENT  **      **      
COMMENT  ***    ***      
COMMENT   ********       
COMMENT    ******        
COMMENT                  
COMMENT                  
COMMENT                  
COMMENT                  
COMMENT                  
198000
198000
000000
000000
1F8000
3FC000
70E000
606000
C03000
C03000
C03000
C03000
C03000
606000
70E000
3FC000
1F8000
000000
000000
000000
000000
000000
ENDCHAR
STARTCHAR 206
ENCODING 333
SWIDTH 7 0
DWIDTH 18 0
BBX 20 26 -1 -3
BITMAP
COMMENT      **  **         
COMMENT      **  **         
COMMENT                     
COMMENT                     
COMMENT                     
COMMENT      ******         
COMMENT    **********       
COMMENT   ***      ***      
COMMENT  ***        ***     
COMMENT  **          **     
COMMENT ***          ***    
COMMENT **            **    
COMMENT **            **    
COMMENT **            **    
COMMENT **            **    
COMMENT **            **    
COMMENT ***          ***    
COMMENT  **          **     
COMMENT  ***        ***     
COMMENT   ***      ***      
COMMENT    **********       
COMMENT      ******         
COMMENT                     
COMMENT                     
COMMENT                     
COMMENT                     
066000
066000
000000
000000
000000
07E000
1FF800
381C00
700E00
600600
E00700
C00300
C00300
C00300
C00300
C00300
E00700
600600
700E00
381C00
1FF800
07E000
000000
000000
000000
000000
ENDCHAR
STARTCHAR 207
ENCODING 334
SWIDTH 5 0
DWIDTH 13 0
BBX 17 22 -2 -3
BITMAP
COMMENT     ***  *       
COMMENT    *******       
COMMENT    *  ***        
COMMENT                  
COMMENT                  
COMMENT    ******        
COMMENT   ********       
COMMENT  ***    ***      
COMMENT  **      **      
COMMENT **        **     
COMMENT **        **     
COMMENT **        **     
COMMENT **        **     
COMMENT **        **     
COMMENT  **      **      
COMMENT  ***    ***      
COMMENT   ********       
COMMENT    ******        
COMMENT                  
COMMENT                  
COMMENT                  
COMMENT                  
0E4000
1FC000
138000
000000
000000
1F8000
3FC000
70E000
606000
C03000
C03000
C03000
C03000
C03000
606000
70E000
3FC000
1F8000
000000
000000
000000
000000
ENDCHAR
STARTCHAR 208
ENCODING 335
SWIDTH 7 0
DWIDTH 18 0
BBX 20 27 -1 -3
BITMAP
COMMENT       ***  *        
COMMENT      *******        
COMMENT      *  ***         
COMMENT                     
COMMENT                     
COMMENT                     
COMMENT      ******         
COMMENT    **********       
COMMENT   ***      ***      
COMMENT  ***        ***     
COMMENT  **          **     
COMMENT ***          ***    
COMMENT **            **    
COMMENT **            **    
COMMENT **            **    
COMMENT **            **    
COMMENT **            **    
COMMENT ***          ***    
COMMENT  **          **     
COMMENT  ***        ***     
COMMENT   ***      ***      
COMMENT    **********       
COMMENT      ******         
COMMENT                     
COMMENT                     
COMMENT                     
COMMENT                     
039000
07F000
04E000
000000
000000
000000
07E000
1FF800
381C00
700E00
600600
E00700
C00300
C00300
C00300
C00300
C00300
E00700
600600
700E00
381C00
1FF800
07E000
000000
000000
000000
000000
ENDCHAR
STARTCHAR 209
ENCODING 336
SWIDTH 5 0
DWIDTH 13 0
BBX 15 23 -1 -3
BITMAP
COMMENT      ***       
COMMENT      **        
COMMENT     **         
COMMENT    **          
COMMENT                
COMMENT **      **     
COMMENT **      **     
COMMENT **      **     
COMMENT **      **     
COMMENT **      **     
COMMENT **      **     
COMMENT **      **     
COMMENT **      **     
COMMENT **      **     
COMMENT **     ***     
COMMENT ***   ****     
COMMENT  *********     
COMMENT   ****  **     
COMMENT                
COMMENT                
COMMENT                
COMMENT                
COMMENT                
0700
0600
0C00
1800
0000
C0C0
C0C0
C0C0
C0C0
C0C0
C0C0
C0C0
C0C0
C0C0
C1C0
E3C0
7FC0
3CC0
0000
0000
0000
0000
0000
ENDCHAR
STARTCHAR 210
ENCODING 337
SWIDTH 7 0
DWIDTH 17 0
BBX 18 27 -1 -3
BITMAP
COMMENT        ***        
COMMENT        **         
COMMENT       **          
COMMENT      **           
COMMENT                   
COMMENT                   
COMMENT **          **    
COMMENT **          **    
COMMENT **          **    
COMMENT **          **    
COMMENT **          **    
COMMENT **          **    
COMMENT **          **    
COMMENT **          **    
COMMENT **          **    
COMMENT **          **    
COMMENT **          **    
COMMENT **          **    
COMMENT **          **    
COMMENT  **        **     
COMMENT  ***      ***     
COMMENT   **********      
COMMENT     ******        
COMMENT                   
COMMENT                   
COMMENT                   
COMMENT                   
01C000
018000
030000
060000
000000
000000
C00C00
C00C00
C00C00
C00C00
C00C00
C00C00
C00C00
C00C00
C00C00
C00C00
C00C00
C00C00
C00C00
601800
703800
3FF000
0FC000
000000
000000
000000
000000
ENDCHAR
STARTCHAR 211
ENCODING 338
SWIDTH 5 0
DWIDTH 13 0
BBX 15 23 -1 -3
BITMAP
COMMENT   ***          
COMMENT    **          
COMMENT     **         
COMMENT      **        
COMMENT                
COMMENT **      **     
COMMENT **      **     
COMMENT **      **     
COMMENT **      **     
COMMENT **      **     
COMMENT **      **     
COMMENT **      **     
COMMENT **      **     
COMMENT **      **     
COMMENT **     ***     
COMMENT ***   ****     
COMMENT  *********     
COMMENT   ****  **     
COMMENT                
COMMENT                
COMMENT                
COMMENT                
COMMENT                
3800
1800
0C00
0600
0000
C0C0
C0C0
C0C0
C0C0
C0C0
C0C0
C0C0
C0C0
C0C0
C1C0
E3C0
7FC0
3CC0
0000
0000
0000
0000
0000
ENDCHAR
STARTCHAR 212
ENCODING 339
SWIDTH 7 0
DWIDTH 17 0
BBX 18 27 -1 -3
BITMAP
COMMENT     ***           
COMMENT      **           
COMMENT       **          
COMMENT        **         
COMMENT                   
COMMENT                   
COMMENT **          **    
COMMENT **          **    
COMMENT **          **    
COMMENT **          **    
COMMENT **          **    
COMMENT **          **    
COMMENT **          **    
COMMENT **          **    
COMMENT **          **    
COMMENT **          **    
COMMENT **          **    
COMMENT **          **    
COMMENT **          **    
COMMENT  **        **     
COMMENT  ***      ***     
COMMENT   **********      
COMMENT     ******        
COMMENT                   
COMMENT                   
COMMENT                   
COMMENT                   
0E0000
060000
030000
018000
000000
000000
C00C00
C00C00
C00C00
C00C00
C00C00
C00C00
C00C00
C00C00
C00C00
C00C00
C00C00
C00C00
C00C00
601800
703800
3FF000
0FC000
000000
000000
000000
000000
ENDCHAR
STARTCHAR 213
ENCODING 340
SWIDTH 5 0
DWIDTH 13 0
BBX 15 23 -1 -3
BITMAP
COMMENT     ***        
COMMENT    ** **       
COMMENT    ** **       
COMMENT   **   **      
COMMENT                
COMMENT **      **     
COMMENT **      **     
COMMENT **      **     
COMMENT **      **     
COMMENT **      **     
COMMENT **      **     
COMMENT **      **     
COMMENT **      **     
COMMENT **      **     
COMMENT **     ***     
COMMENT ***   ****     
COMMENT  *********     
COMMENT   ****  **     
COMMENT                
COMMENT                
COMMENT                
COMMENT                
COMMENT                
0E00
1B00
1B00
3180
0000
C0C0
C0C0
C0C0
C0C0
C0C0
C0C0
C0C0
C0C0
C0C0
C1C0
E3C0
7FC0
3CC0
0000
0000
0000
0000
0000
ENDCHAR
STARTCHAR 214
ENCODING 341
SWIDTH 7 0
DWIDTH 17 0
BBX 18 27 -1 -3
BITMAP
COMMENT       ***         
COMMENT      ** **        
COMMENT      ** **        
COMMENT     **   **       
COMMENT                   
COMMENT                   
COMMENT **          **    
COMMENT **          **    
COMMENT **          **    
COMMENT **          **    
COMMENT **          **    
COMMENT **          **    
COMMENT **          **    
COMMENT **          **    
COMMENT **          **    
COMMENT **          **    
COMMENT **          **    
COMMENT **          **    
COMMENT **          **    
COMMENT  **        **     
COMMENT  ***      ***     
COMMENT   **********      
COMMENT     ******        
COMMENT                   
COMMENT                   
COMMENT                   
COMMENT                   
038000
06C000
06C000
0C6000
000000
000000
C00C00
C00C00
C00C00
C00C00
C00C00
C00C00
C00C00
C00C00
C00C00
C00C00
C00C00
C00C00
C00C00
601800
703800
3FF000
0FC000
000000
000000
000000
000000
ENDCHAR
STARTCHAR 215
ENCODING 342
SWIDTH 5 0
DWIDTH 13 0
BBX 15 22 -1 -3
BITMAP
COMMENT   **  **       
COMMENT   **  **       
COMMENT                
COMMENT                
COMMENT **      **     
COMMENT **      **     
COMMENT **      **     
COMMENT **      **     
COMMENT **      **     
COMMENT **      **     
COMMENT **      **     
COMMENT **      **     
COMMENT **      **     
COMMENT **     ***     
COMMENT ***   ****     
COMMENT  *********     
COMMENT   ****  **     
COMMENT                
COMMENT                
COMMENT                
COMMENT                
COMMENT                
3300
3300
0000
0000
C0C0
C0C0
C0C0
C0C0
C0C0
C0C0
C0C0
C0C0
C0C0
C1C0
E3C0
7FC0
3CC0
0000
0000
0000
0000
0000
ENDCHAR
STARTCHAR 216
ENCODING 343
SWIDTH 7 0
DWIDTH 17 0
BBX 18 26 -1 -3
BITMAP
COMMENT     **  **        
COMMENT     **  **        
COMMENT                   
COMMENT                   
COMMENT                   
COMMENT **          **    
COMMENT **          **    
COMMENT **          **    
COMMENT **          **    
COMMENT **          **    
COMMENT **          **    
COMMENT **          **    
COMMENT **          **    
COMMENT **          **    
COMMENT **          **    
COMMENT **          **    
COMMENT **          **    
COMMENT **          **    
COMMENT  **        **     
COMMENT  ***      ***     
COMMENT   **********      
COMMENT     ******        
COMMENT                   
COMMENT                   
COMMENT                   
COMMENT                   
0CC000
0CC000
000000
000000
000000
C00C00
C00C00
C00C00
C00C00
C00C00
C00C00
C00C00
C00C00
C00C00
C00C00
C00C00
C00C00
C00C00
601800
703800
3FF000
0FC000
000000
000000
000000
000000
ENDCHAR
STARTCHAR 217
ENCODING 344
SWIDTH 5 0
DWIDTH 13 0
BBX 15 22 -1 -3
BITMAP
COMMENT    ***  *      
COMMENT   *******      
COMMENT   *  ***       
COMMENT                
COMMENT                
COMMENT **      **     
COMMENT **      **     
COMMENT **      **     
COMMENT **      **     
COMMENT **      **     
COMMENT **      **     
COMMENT **      **     
COMMENT **      **     
COMMENT **      **     
COMMENT **     ***     
COMMENT ***   ****     
COMMENT  *********     
COMMENT   ****  **     
COMMENT                
COMMENT                
COMMENT                
COMMENT                
1C80
3F80
2700
0000
0000
C0C0
C0C0
C0C0
C0C0
C0C0
C0C0
C0C0
C0C0
C0C0
C1C0
E3C0
7FC0
3CC0
0000
0000
0000
0000
ENDCHAR
STARTCHAR 218
ENCODING 345
SWIDTH 7 0
DWIDTH 17 0
BBX 18 27 -1 -3
BITMAP
COMMENT      ***  *       
COMMENT     *******       
COMMENT     *  ***        
COMMENT                   
COMMENT                   
COMMENT                   
COMMENT **          **    
COMMENT **          **    
COMMENT **          **    
COMMENT **          **    
COMMENT **          **    
COMMENT **          **    
COMMENT **          **    
COMMENT **          **    
COMMENT **          **    
COMMENT **          **    
COMMENT **          **    
COMMENT **          **    
COMMENT **          **    
COMMENT  **        **     
COMMENT  ***      ***     
COMMENT   **********      
COMMENT     ******        
COMMENT                   
COMMENT                   
COMMENT                   
COMMENT                   
072000
0FE000
09C000
000000
000000
000000
C00C00
C00C00
C00C00
C00C00
C00C00
C00C00
C00C00
C00C00
C00C00
C00C00
C00C00
C00C00
C00C00
601800
703800
3FF000
0FC000
000000
000000
000000
000000
ENDCHAR
STARTCHAR 219
ENCODING 346
SWIDTH 5 0
DWIDTH 13 0
BBX 15 24 -1 -3
BITMAP
COMMENT    ****        
COMMENT   **  **       
COMMENT   *    *       
COMMENT   *    *       
COMMENT   **  **       
COMMENT    ****        
COMMENT                
COMMENT **      **     
COMMENT **      **     
COMMENT **      **     
COMMENT **      **     
COMMENT **      **     
COMMENT **      **     
COMMENT **      **     
COMMENT **      **     
COMMENT **      **     
COMMENT **     ***     
COMMENT ***   ****     
COMMENT  *********     
COMMENT   ****  **     
COMMENT                
COMMENT                
COMMENT                
COMMENT                
1E00
3300
2100
2100
3300
1E00
0000
C0C0
C0C0
C0C0
C0C0
C0C0
C0C0
C0C0
C0C0
C0C0
C1C0
E3C0
7FC0
3CC0
0000
0000
0000
0000
ENDCHAR
STARTCHAR 220
ENCODING 347
SWIDTH 7 0
DWIDTH 17 0
BBX 18 29 -1 -3
BITMAP
COMMENT      ****         
COMMENT     **  **        
COMMENT     *    *        
COMMENT     *    *        
COMMENT     **  **        
COMMENT      ****         
COMMENT                   
COMMENT                   
COMMENT **          **    
COMMENT **          **    
COMMENT **          **    
COMMENT **          **    
COMMENT **          **    
COMMENT **          **    
COMMENT **          **    
COMMENT **          **    
COMMENT **          **    
COMMENT **          **    
COMMENT **          **    
COMMENT **          **    
COMMENT **          **    
COMMENT  **        **     
COMMENT  ***      ***     
COMMENT   **********      
COMMENT     ******        
COMMENT                   
COMMENT                   
COMMENT                   
COMMENT                   
078000
0CC000
084000
084000
0CC000
078000
000000
000000
C00C00
C00C00
C00C00
C00C00
C00C00
C00C00
C00C00
C00C00
C00C00
C00C00
C00C00
C00C00
C00C00
601800
703800
3FF000
0FC000
000000
000000
000000
000000
ENDCHAR
STARTCHAR 221
ENCODING 348
SWIDTH 5 0
DWIDTH 12 0
BBX 15 27 -2 -8
BITMAP
COMMENT    **  **      
COMMENT    **  **      
COMMENT                
COMMENT                
COMMENT ***      ***   
COMMENT  **      **    
COMMENT  **      **    
COMMENT  ***    ***    
COMMENT   **    **     
COMMENT   **    **     
COMMENT   ***  ***     
COMMENT    **  **      
COMMENT    **  **      
COMMENT    ******      
COMMENT     ****       
COMMENT     ****       
COMMENT     ***        
COMMENT      **        
COMMENT      **        
COMMENT     **         
COMMENT  *****         
COMMENT  ****          
COMMENT                
COMMENT                
COMMENT                
COMMENT                
COMMENT                
1980
1980
0000
0000
E070
6060
6060
70E0
30C0
30C0
39C0
1980
1980
1F80
0F00
0F00
0E00
0600
0600
0C00
7C00
7800
0000
0000
0000
0000
0000
ENDCHAR
STARTCHAR 222
ENCODING 349
SWIDTH 5 0
DWIDTH 14 0
BBX 19 26 -3 -3
BITMAP
COMMENT     **  **         
COMMENT     **  **         
COMMENT                    
COMMENT                    
COMMENT                    
COMMENT ***         ***    
COMMENT  ***       ***     
COMMENT   ***      ***     
COMMENT   ***     ***      
COMMENT    ***    **       
COMMENT     **   ***       
COMMENT     ***  **        
COMMENT      ******        
COMMENT       ****         
COMMENT        **          
COMMENT        **          
COMMENT        **          
COMMENT        **          
COMMENT        **          
COMMENT        **          
COMMENT        **          
COMMENT        **          
COMMENT                    
COMMENT                    
COMMENT                    
COMMENT                    
0CC000
0CC000
000000
000000
000000
E00E00
701C00
381C00
383800
1C3000
0C7000
0E6000
07E000
03C000
018000
018000
018000
018000
018000
018000
018000
018000
000000
000000
000000
000000
ENDCHAR
STARTCHAR 223
ENCODING 350
SWIDTH 5 0
DWIDTH 12 0
BBX 15 28 -2 -8
BITMAP
COMMENT       ***      
COMMENT       **       
COMMENT      **        
COMMENT     **         
COMMENT                
COMMENT ***      ***   
COMMENT  **      **    
COMMENT  **      **    
COMMENT  ***    ***    
COMMENT   **    **     
COMMENT   **    **     
COMMENT   ***  ***     
COMMENT    **  **      
COMMENT    **  **      
COMMENT    ******      
COMMENT     ****       
COMMENT     ****       
COMMENT     ***        
COMMENT      **        
COMMENT      **        
COMMENT     **         
COMMENT  *****         
COMMENT  ****          
COMMENT                
COMMENT                
COMMENT                
COMMENT                
COMMENT                
0380
0300
0600
0C00
0000
E070
6060
6060
70E0
30C0
30C0
39C0
1980
1980
1F80
0F00
0F00
0E00
0600
0600
0C00
7C00
7800
0000
0000
0000
0000
0000
ENDCHAR
STARTCHAR 224
ENCODING 351
SWIDTH 5 0
DWIDTH 14 0
BBX 19 27 -3 -3
BITMAP
COMMENT        ***         
COMMENT        **          
COMMENT       **           
COMMENT      **            
COMMENT                    
COMMENT                    
COMMENT ***         ***    
COMMENT  ***       ***     
COMMENT   ***      ***     
COMMENT   ***     ***      
COMMENT    ***    **       
COMMENT     **   ***       
COMMENT     ***  **        
COMMENT      ******        
COMMENT       ****         
COMMENT        **          
COMMENT        **          
COMMENT        **          
COMMENT        **          
COMMENT        **          
COMMENT        **          
COMMENT        **          
COMMENT        **          
COMMENT                    
COMMENT                    
COMMENT                    
COMMENT                    
01C000
018000
030000
060000
000000
000000
E00E00
701C00
381C00
383800
1C3000
0C7000
0E6000
07E000
03C000
018000
018000
018000
018000
018000
018000
018000
018000
000000
000000
000000
000000
ENDCHAR
STARTCHAR 225
ENCODING 353
SWIDTH 2 0
DWIDTH 6 0
BBX 11 21 -3 -3
BITMAP
COMMENT    *       
COMMENT  ***       
COMMENT    *       
COMMENT    *       
COMMENT    *       
COMMENT    *       
COMMENT    *       
COMMENT            
COMMENT *******    
COMMENT            
COMMENT    **      
COMMENT   ***      
COMMENT  ** *      
COMMENT **  *      
COMMENT ******     
COMMENT     *      
COMMENT     *      
COMMENT            
COMMENT            
COMMENT            
COMMENT            
1000
7000
1000
1000
1000
1000
1000
0000
FE00
0000
1800
3800
6800
C800
FC00
0800
0800
0000
0000
0000
0000
ENDCHAR
STARTCHAR 226
ENCODING 354
SWIDTH 2 0
DWIDTH 6 0
BBX 11 21 -3 -3
BITMAP
COMMENT    *       
COMMENT  ***       
COMMENT    *       
COMMENT    *       
COMMENT    *       
COMMENT    *       
COMMENT    *       
COMMENT            
COMMENT *******    
COMMENT            
COMMENT  ***       
COMMENT *   *      
COMMENT     *      
COMMENT   **       
COMMENT  *         
COMMENT *          
COMMENT *****      
COMMENT            
COMMENT            
COMMENT            
COMMENT            
1000
7000
1000
1000
1000
1000
1000
0000
FE00
0000
7000
8800
0800
3000
4000
8000
F800
0000
0000
0000
0000
ENDCHAR
STARTCHAR 227
ENCODING 355
SWIDTH 2 0
DWIDTH 6 0
BBX 11 21 -3 -3
BITMAP
COMMENT  ****      
COMMENT *    *     
COMMENT      *     
COMMENT   ***      
COMMENT      *     
COMMENT *    *     
COMMENT  ****      
COMMENT            
COMMENT *******    
COMMENT            
COMMENT    **      
COMMENT   ***      
COMMENT  ** *      
COMMENT **  *      
COMMENT ******     
COMMENT     *      
COMMENT     *      
COMMENT            
COMMENT            
COMMENT            
COMMENT            
7800
8400
0400
3800
0400
8400
7800
0000
FE00
0000
1800
3800
6800
C800
FC00
0800
0800
0000
0000
0000
0000
ENDCHAR
STARTCHAR 228
ENCODING 362
SWIDTH 2 0
DWIDTH 5 0
BBX 7 18 -2 1
BITMAP
COMMENT **     
COMMENT  **    
COMMENT   *    
COMMENT   *    
COMMENT    *   
COMMENT    *   
COMMENT    *   
COMMENT    *   
COMMENT    *   
COMMENT   *    
COMMENT   *    
COMMENT  **    
COMMENT **     
COMMENT        
COMMENT        
COMMENT        
COMMENT        
COMMENT        
C0
60
20
20
10
10
10
10
10
20
20
60
C0
00
00
00
00
00
ENDCHAR
STARTCHAR 229
ENCODING 363
SWIDTH 2 0
DWIDTH 5 0
BBX 8 18 -1 1
BITMAP
COMMENT   **    
COMMENT   *     
COMMENT  *      
COMMENT  *      
COMMENT *       
COMMENT *       
COMMENT *       
COMMENT *       
COMMENT *       
COMMENT  *      
COMMENT  *      
COMMENT   *     
COMMENT   **    
COMMENT         
COMMENT         
COMMENT         
COMMENT         
COMMENT         
30
20
40
40
80
80
80
80
80
40
40
20
30
00
00
00
00
00
ENDCHAR
STARTCHAR 230
ENCODING 366
SWIDTH 5 0
DWIDTH 12 0
BBX 12 1 0 17
BITMAP
COMMENT ************
FFF0
ENDCHAR
STARTCHAR 231
ENCODING 367
SWIDTH 5 0
DWIDTH 12 0
BBX 7 7 2 10
BITMAP
COMMENT     ***
COMMENT    *** 
COMMENT    **  
COMMENT   **   
COMMENT   *    
COMMENT  **    
COMMENT **     
0E
1C
18
30
20
60
C0
ENDCHAR
STARTCHAR 232
ENCODING 368
SWIDTH 2 0
DWIDTH 7 0
BBX 10 22 -1 -3
BITMAP
COMMENT ** **     
COMMENT ** **     
COMMENT **  *     
COMMENT ** *      
COMMENT **        
COMMENT **        
COMMENT **        
COMMENT **        
COMMENT **        
COMMENT **        
COMMENT **        
COMMENT **        
COMMENT **        
COMMENT **        
COMMENT **        
COMMENT **        
COMMENT **        
COMMENT           
COMMENT           
COMMENT           
COMMENT           
COMMENT           
D800
D800
C800
D000
C000
C000
C000
C000
C000
C000
C000
C000
C000
C000
C000
C000
C000
0000
0000
0000
0000
0000
ENDCHAR
STARTCHAR 233
ENCODING 369
SWIDTH 2 0
DWIDTH 6 0
BBX 11 27 -3 -3
BITMAP
COMMENT  ***  *    
COMMENT *******    
COMMENT *  ***     
COMMENT            
COMMENT            
COMMENT            
COMMENT   **       
COMMENT   **       
COMMENT   **       
COMMENT   **       
COMMENT   **       
COMMENT   **       
COMMENT   **       
COMMENT   **       
COMMENT   **       
COMMENT   **       
COMMENT   **       
COMMENT   **       
COMMENT   **       
COMMENT   **       
COMMENT   **       
COMMENT   **       
COMMENT   **       
COMMENT            
COMMENT            
COMMENT            
COMMENT            
7200
FE00
9C00
0000
0000
0000
3000
3000
3000
3000
3000
3000
3000
3000
3000
3000
3000
3000
3000
3000
3000
3000
3000
0000
0000
0000
0000
ENDCHAR
STARTCHAR 234
ENCODING 370
SWIDTH 2 0
DWIDTH 5 0
BBX 11 22 -3 -3
BITMAP
COMMENT  ***  *    
COMMENT *******    
COMMENT *  ***     
COMMENT            
COMMENT            
COMMENT   **       
COMMENT   **       
COMMENT   **       
COMMENT   **       
COMMENT   **       
COMMENT   **       
COMMENT   **       
COMMENT   **       
COMMENT   **       
COMMENT   **       
COMMENT   **       
COMMENT   **       
COMMENT   **       
COMMENT            
COMMENT            
COMMENT            
COMMENT            
7200
FE00
9C00
0000
0000
3000
3000
3000
3000
3000
3000
3000
3000
3000
3000
3000
3000
3000
0000
0000
0000
0000
ENDCHAR
STARTCHAR 235
ENCODING 371
SWIDTH 2 0
DWIDTH 6 0
BBX 10 26 -2 -3
BITMAP
COMMENT **  **    
COMMENT **  **    
COMMENT           
COMMENT           
COMMENT           
COMMENT   **      
COMMENT   **      
COMMENT   **      
COMMENT   **      
COMMENT   **      
COMMENT   **      
COMMENT   **      
COMMENT   **      
COMMENT   **      
COMMENT   **      
COMMENT   **      
COMMENT   **      
COMMENT   **      
COMMENT   **      
COMMENT   **      
COMMENT   **      
COMMENT   **      
COMMENT           
COMMENT           
COMMENT           
COMMENT           
CC00
CC00
0000
0000
0000
3000
3000
3000
3000
3000
3000
3000
3000
3000
3000
3000
3000
3000
3000
3000
3000
3000
0000
0000
0000
0000
ENDCHAR
STARTCHAR 236
ENCODING 372
SWIDTH 2 0
DWIDTH 5 0
BBX 10 22 -3 -3
BITMAP
COMMENT **  **    
COMMENT **  **    
COMMENT           
COMMENT           
COMMENT   **      
COMMENT   **      
COMMENT   **      
COMMENT   **      
COMMENT   **      
COMMENT   **      
COMMENT   **      
COMMENT   **      
COMMENT   **      
COMMENT   **      
COMMENT   **      
COMMENT   **      
COMMENT   **      
COMMENT           
COMMENT           
COMMENT           
COMMENT           
COMMENT           
CC00
CC00
0000
0000
3000
3000
3000
3000
3000
3000
3000
3000
3000
3000
3000
3000
3000
0000
0000
0000
0000
0000
ENDCHAR
STARTCHAR 237
ENCODING 373
SWIDTH 2 0
DWIDTH 6 0
BBX 11 27 -3 -3
BITMAP
COMMENT   ***      
COMMENT  ** **     
COMMENT  ** **     
COMMENT **   **    
COMMENT            
COMMENT            
COMMENT   **       
COMMENT   **       
COMMENT   **       
COMMENT   **       
COMMENT   **       
COMMENT   **       
COMMENT   **       
COMMENT   **       
COMMENT   **       
COMMENT   **       
COMMENT   **       
COMMENT   **       
COMMENT   **       
COMMENT   **       
COMMENT   **       
COMMENT   **       
COMMENT   **       
COMMENT            
COMMENT            
COMMENT            
COMMENT            
3800
6C00
6C00
C600
0000
0000
3000
3000
3000
3000
3000
3000
3000
3000
3000
3000
3000
3000
3000
3000
3000
3000
3000
0000
0000
0000
0000
ENDCHAR
STARTCHAR 238
ENCODING 374
SWIDTH 2 0
DWIDTH 5 0
BBX 11 23 -3 -3
BITMAP
COMMENT   ***      
COMMENT  ** **     
COMMENT  ** **     
COMMENT **   **    
COMMENT            
COMMENT   **       
COMMENT   **       
COMMENT   **       
COMMENT   **       
COMMENT   **       
COMMENT   **       
COMMENT   **       
COMMENT   **       
COMMENT   **       
COMMENT   **       
COMMENT   **       
COMMENT   **       
COMMENT   **       
COMMENT            
COMMENT            
COMMENT            
COMMENT            
COMMENT            
3800
6C00
6C00
C600
0000
3000
3000
3000
3000
3000
3000
3000
3000
3000
3000
3000
3000
3000
0000
0000
0000
0000
0000
ENDCHAR
STARTCHAR 239
ENCODING 375
SWIDTH 2 0
DWIDTH 6 0
BBX 9 27 -3 -3
BITMAP
COMMENT ***      
COMMENT  **      
COMMENT   **     
COMMENT    **    
COMMENT          
COMMENT          
COMMENT   **     
COMMENT   **     
COMMENT   **     
COMMENT   **     
COMMENT   **     
COMMENT   **     
COMMENT   **     
COMMENT   **     
COMMENT   **     
COMMENT   **     
COMMENT   **     
COMMENT   **     
COMMENT   **     
COMMENT   **     
COMMENT   **     
COMMENT   **     
COMMENT   **     
COMMENT          
COMMENT          
COMMENT          
COMMENT          
E000
6000
3000
1800
0000
0000
3000
3000
3000
3000
3000
3000
3000
3000
3000
3000
3000
3000
3000
3000
3000
3000
3000
0000
0000
0000
0000
ENDCHAR
STARTCHAR 240
ENCODING 376
SWIDTH 2 0
DWIDTH 5 0
BBX 9 23 -3 -3
BITMAP
COMMENT ***      
COMMENT  **      
COMMENT   **     
COMMENT    **    
COMMENT          
COMMENT   **     
COMMENT   **     
COMMENT   **     
COMMENT   **     
COMMENT   **     
COMMENT   **     
COMMENT   **     
COMMENT   **     
COMMENT   **     
COMMENT   **     
COMMENT   **     
COMMENT   **     
COMMENT   **     
COMMENT          
COMMENT          
COMMENT          
COMMENT          
COMMENT          
E000
6000
3000
1800
0000
3000
3000
3000
3000
3000
3000
3000
3000
3000
3000
3000
3000
3000
0000
0000
0000
0000
0000
ENDCHAR
STARTCHAR 241
ENCODING 377
SWIDTH 2 0
DWIDTH 6 0
BBX 9 27 -1 -3
BITMAP
COMMENT   ***    
COMMENT   **     
COMMENT  **      
COMMENT **       
COMMENT          
COMMENT          
COMMENT  **      
COMMENT  **      
COMMENT  **      
COMMENT  **      
COMMENT  **      
COMMENT  **      
COMMENT  **      
COMMENT  **      
COMMENT  **      
COMMENT  **      
COMMENT  **      
COMMENT  **      
COMMENT  **      
COMMENT  **      
COMMENT  **      
COMMENT  **      
COMMENT  **      
COMMENT          
COMMENT          
COMMENT          
COMMENT          
3800
3000
6000
C000
0000
0000
6000
6000
6000
6000
6000
6000
6000
6000
6000
6000
6000
6000
6000
6000
6000
6000
6000
0000
0000
0000
0000
ENDCHAR
STARTCHAR 242
ENCODING 378
SWIDTH 2 0
DWIDTH 5 0
BBX 9 23 -2 -3
BITMAP
COMMENT   ***    
COMMENT   **     
COMMENT  **      
COMMENT **       
COMMENT          
COMMENT  **      
COMMENT  **      
COMMENT  **      
COMMENT  **      
COMMENT  **      
COMMENT  **      
COMMENT  **      
COMMENT  **      
COMMENT  **      
COMMENT  **      
COMMENT  **      
COMMENT  **      
COMMENT  **      
COMMENT          
COMMENT          
COMMENT          
COMMENT          
COMMENT          
3800
3000
6000
C000
0000
6000
6000
6000
6000
6000
6000
6000
6000
6000
6000
6000
6000
6000
0000
0000
0000
0000
0000
ENDCHAR
STARTCHAR 243
ENCODING 379
SWIDTH 6 0
DWIDTH 15 0
BBX 17 27 -1 -3
BITMAP
COMMENT    **   **       
COMMENT     ** **        
COMMENT     ** **        
COMMENT      ***         
COMMENT                  
COMMENT                  
COMMENT ************     
COMMENT ************     
COMMENT **               
COMMENT **               
COMMENT **               
COMMENT **               
COMMENT **               
COMMENT ***********      
COMMENT ***********      
COMMENT **               
COMMENT **               
COMMENT **               
COMMENT **               
COMMENT **               
COMMENT **               
COMMENT ************     
COMMENT ************     
COMMENT                  
COMMENT                  
COMMENT                  
COMMENT                  
18C000
0D8000
0D8000
070000
000000
000000
FFF000
FFF000
C00000
C00000
C00000
C00000
C00000
FFE000
FFE000
C00000
C00000
C00000
C00000
C00000
C00000
FFF000
FFF000
000000
000000
000000
000000
ENDCHAR
STARTCHAR 244
ENCODING 380
SWIDTH 5 0
DWIDTH 13 0
BBX 16 23 -2 -3
BITMAP
COMMENT    **   **      
COMMENT     ** **       
COMMENT     ** **       
COMMENT      ***        
COMMENT                 
COMMENT    *****        
COMMENT   *******       
COMMENT  ***    **      
COMMENT  *       **     
COMMENT **       **     
COMMENT ***********     
COMMENT ***********     
COMMENT **              
COMMENT **              
COMMENT ***      **     
COMMENT  ***    **      
COMMENT   *******       
COMMENT    *****        
COMMENT                 
COMMENT                 
COMMENT                 
COMMENT                 
COMMENT                 
18C0
0D80
0D80
0700
0000
1F00
3F80
70C0
4060
C060
FFE0
FFE0
C000
C000
E060
70C0
3F80
1F00
0000
0000
0000
0000
0000
ENDCHAR
STARTCHAR 245
ENCODING 383
SWIDTH 6 0
DWIDTH 15 0
BBX 17 26 -1 -3
BITMAP
COMMENT    **  **        
COMMENT    **  **        
COMMENT                  
COMMENT                  
COMMENT                  
COMMENT ************     
COMMENT ************     
COMMENT **               
COMMENT **               
COMMENT **               
COMMENT **               
COMMENT **               
COMMENT ***********      
COMMENT ***********      
COMMENT **               
COMMENT **               
COMMENT **               
COMMENT **               
COMMENT **               
COMMENT **               
COMMENT ************     
COMMENT ************     
COMMENT                  
COMMENT                  
COMMENT                  
COMMENT                  
198000
198000
000000
000000
000000
FFF000
FFF000
C00000
C00000
C00000
C00000
C00000
FFE000
FFE000
C00000
C00000
C00000
C00000
C00000
C00000
FFF000
FFF000
000000
000000
000000
000000
ENDCHAR
STARTCHAR 246
ENCODING 384
SWIDTH 5 0
DWIDTH 13 0
BBX 16 22 -2 -3
BITMAP
COMMENT    **  **       
COMMENT    **  **       
COMMENT                 
COMMENT                 
COMMENT    *****        
COMMENT   *******       
COMMENT  ***    **      
COMMENT  *       **     
COMMENT **       **     
COMMENT ***********     
COMMENT ***********     
COMMENT **              
COMMENT **              
COMMENT ***      **     
COMMENT  ***    **      
COMMENT   *******       
COMMENT    *****        
COMMENT                 
COMMENT                 
COMMENT                 
COMMENT                 
COMMENT                 
1980
1980
0000
0000
1F00
3F80
70C0
4060
C060
FFE0
FFE0
C000
C000
E060
70C0
3F80
1F00
0000
0000
0000
0000
0000
ENDCHAR
STARTCHAR 247
ENCODING 385
SWIDTH 6 0
DWIDTH 15 0
BBX 17 27 -1 -3
BITMAP
COMMENT      ***         
COMMENT     ** **        
COMMENT     ** **        
COMMENT    **   **       
COMMENT                  
COMMENT                  
COMMENT ************     
COMMENT ************     
COMMENT **               
COMMENT **               
COMMENT **               
COMMENT **               
COMMENT **               
COMMENT ***********      
COMMENT ***********      
COMMENT **               
COMMENT **               
COMMENT **               
COMMENT **               
COMMENT **               
COMMENT **               
COMMENT ************     
COMMENT ************     
COMMENT                  
COMMENT                  
COMMENT                  
COMMENT                  
070000
0D8000
0D8000
18C000
000000
000000
FFF000
FFF000
C00000
C00000
C00000
C00000
C00000
FFE000
FFE000
C00000
C00000
C00000
C00000
C00000
C00000
FFF000
FFF000
000000
000000
000000
000000
ENDCHAR
STARTCHAR 248
ENCODING 386
SWIDTH 5 0
DWIDTH 13 0
BBX 16 23 -2 -3
BITMAP
COMMENT      ***        
COMMENT     ** **       
COMMENT     ** **       
COMMENT    **   **      
COMMENT                 
COMMENT    *****        
COMMENT   *******       
COMMENT  ***    **      
COMMENT  *       **     
COMMENT **       **     
COMMENT ***********     
COMMENT ***********     
COMMENT **              
COMMENT **              
COMMENT ***      **     
COMMENT  ***    **      
COMMENT   *******       
COMMENT    *****        
COMMENT                 
COMMENT                 
COMMENT                 
COMMENT                 
COMMENT                 
0700
0D80
0D80
18C0
0000
1F00
3F80
70C0
4060
C060
FFE0
FFE0
C000
C000
E060
70C0
3F80
1F00
0000
0000
0000
0000
0000
ENDCHAR
STARTCHAR 249
ENCODING 387
SWIDTH 6 0
DWIDTH 15 0
BBX 17 27 -1 -3
BITMAP
COMMENT    ***           
COMMENT     **           
COMMENT      **          
COMMENT       **         
COMMENT                  
COMMENT                  
COMMENT ************     
COMMENT ************     
COMMENT **               
COMMENT **               
COMMENT **               
COMMENT **               
COMMENT **               
COMMENT ***********      
COMMENT ***********      
COMMENT **               
COMMENT **               
COMMENT **               
COMMENT **               
COMMENT **               
COMMENT **               
COMMENT ************     
COMMENT ************     
COMMENT                  
COMMENT                  
COMMENT                  
COMMENT                  
1C0000
0C0000
060000
030000
000000
000000
FFF000
FFF000
C00000
C00000
C00000
C00000
C00000
FFE000
FFE000
C00000
C00000
C00000
C00000
C00000
C00000
FFF000
FFF000
000000
000000
000000
000000
ENDCHAR
STARTCHAR 250
ENCODING 388
SWIDTH 5 0
DWIDTH 13 0
BBX 16 23 -2 -3
BITMAP
COMMENT    ***          
COMMENT     **          
COMMENT      **         
COMMENT       **        
COMMENT                 
COMMENT    *****        
COMMENT   *******       
COMMENT  ***    **      
COMMENT  *       **     
COMMENT **       **     
COMMENT ***********     
COMMENT ***********     
COMMENT **              
COMMENT **              
COMMENT ***      **     
COMMENT  ***    **      
COMMENT   *******       
COMMENT    *****        
COMMENT                 
COMMENT                 
COMMENT                 
COMMENT                 
COMMENT                 
1C00
0C00
0600
0300
0000
1F00
3F80
70C0
4060
C060
FFE0
FFE0
C000
C000
E060
70C0
3F80
1F00
0000
0000
0000
0000
0000
ENDCHAR
STARTCHAR 251
ENCODING 389
SWIDTH 6 0
DWIDTH 15 0
BBX 17 27 -1 -3
BITMAP
COMMENT       ***        
COMMENT       **         
COMMENT      **          
COMMENT     **           
COMMENT                  
COMMENT                  
COMMENT ************     
COMMENT ************     
COMMENT **               
COMMENT **               
COMMENT **               
COMMENT **               
COMMENT **               
COMMENT ***********      
COMMENT ***********      
COMMENT **               
COMMENT **               
COMMENT **               
COMMENT **               
COMMENT **               
COMMENT **               
COMMENT ************     
COMMENT ************     
COMMENT                  
COMMENT                  
COMMENT                  
COMMENT                  
038000
030000
060000
0C0000
000000
000000
FFF000
FFF000
C00000
C00000
C00000
C00000
C00000
FFE000
FFE000
C00000
C00000
C00000
C00000
C00000
C00000
FFF000
FFF000
000000
000000
000000
000000
ENDCHAR
STARTCHAR 252
ENCODING 390
SWIDTH 5 0
DWIDTH 13 0
BBX 16 23 -2 -3
BITMAP
COMMENT       ***       
COMMENT       **        
COMMENT      **         
COMMENT     **          
COMMENT                 
COMMENT    *****        
COMMENT   *******       
COMMENT  ***    **      
COMMENT  *       **     
COMMENT **       **     
COMMENT ***********     
COMMENT ***********     
COMMENT **              
COMMENT **              
COMMENT ***      **     
COMMENT  ***    **      
COMMENT   *******       
COMMENT    *****        
COMMENT                 
COMMENT                 
COMMENT                 
COMMENT                 
COMMENT                 
0380
0300
0600
0C00
0000
1F00
3F80
70C0
4060
C060
FFE0
FFE0
C000
C000
E060
70C0
3F80
1F00
0000
0000
0000
0000
0000
ENDCHAR
STARTCHAR 253
ENCODING 391
SWIDTH 6 0
DWIDTH 15 0
BBX 20 27 -3 -3
BITMAP
COMMENT       ***  *        
COMMENT      *******        
COMMENT      *  ***         
COMMENT                     
COMMENT                     
COMMENT                     
COMMENT       ***           
COMMENT       ***           
COMMENT      *****          
COMMENT      ** **          
COMMENT      ** **          
COMMENT     **   **         
COMMENT     **   **         
COMMENT    ***   **         
COMMENT    **     **        
COMMENT    **     **        
COMMENT   ***********       
COMMENT   ***********       
COMMENT   **       **       
COMMENT  ***       ***      
COMMENT  **         **      
COMMENT  **         **      
COMMENT **          ***     
COMMENT                     
COMMENT                     
COMMENT                     
COMMENT                     
039000
07F000
04E000
000000
000000
000000
038000
038000
07C000
06C000
06C000
0C6000
0C6000
1C6000
183000
183000
3FF800
3FF800
301800
701C00
600C00
600C00
C00E00
000000
000000
000000
000000
ENDCHAR
STARTCHAR 254
ENCODING 392
SWIDTH 5 0
DWIDTH 13 0
BBX 16 22 -2 -3
BITMAP
COMMENT     ***  *      
COMMENT    *******      
COMMENT    *  ***       
COMMENT                 
COMMENT                 
COMMENT    *****        
COMMENT   *******       
COMMENT  ***    **      
COMMENT  **     **      
COMMENT         **      
COMMENT   ********      
COMMENT  ****** **      
COMMENT ***     **      
COMMENT **      **      
COMMENT **     ***      
COMMENT ***   ****      
COMMENT  ****** ***     
COMMENT   ****   **     
COMMENT                 
COMMENT                 
COMMENT                 
COMMENT                 
0E40
1FC0
1380
0000
0000
1F00
3F80
70C0
60C0
00C0
3FC0
7EC0
E0C0
C0C0
C1C0
E3C0
7EE0
3C60
0000
0000
0000
0000
ENDCHAR
STARTCHAR 255
ENCODING 393
SWIDTH 6 0
DWIDTH 15 0
BBX 20 26 -3 -3
BITMAP
COMMENT      **  **         
COMMENT      **  **         
COMMENT                     
COMMENT                     
COMMENT                     
COMMENT       ***           
COMMENT       ***           
COMMENT      *****          
COMMENT      ** **          
COMMENT      ** **          
COMMENT     **   **         
COMMENT     **   **         
COMMENT    ***   **         
COMMENT    **     **        
COMMENT    **     **        
COMMENT   ***********       
COMMENT   ***********       
COMMENT   **       **       
COMMENT  ***       ***      
COMMENT  **         **      
COMMENT  **         **      
COMMENT **          ***     
COMMENT                     
COMMENT                     
COMMENT                     
COMMENT                     
066000
066000
000000
000000
000000
038000
038000
07C000
06C000
06C000
0C6000
0C6000
1C6000
183000
183000
3FF800
3FF800
301800
701C00
600C00
600C00
C00E00
000000
000000
000000
000000
ENDCHAR
STARTCHAR 256
ENCODING 394
SWIDTH 5 0
DWIDTH 13 0
BBX 16 22 -2 -3
BITMAP
COMMENT    **  **       
COMMENT    **  **       
COMMENT                 
COMMENT                 
COMMENT    *****        
COMMENT   *******       
COMMENT  ***    **      
COMMENT  **     **      
COMMENT         **      
COMMENT   ********      
COMMENT  ****** **      
COMMENT ***     **      
COMMENT **      **      
COMMENT **     ***      
COMMENT ***   ****      
COMMENT  ****** ***     
COMMENT   ****   **     
COMMENT                 
COMMENT                 
COMMENT                 
COMMENT                 
COMMENT                 
1980
1980
0000
0000
1F00
3F80
70C0
60C0
00C0
3FC0
7EC0
E0C0
C0C0
C1C0
E3C0
7EE0
3C60
0000
0000
0000
0000
0000
ENDCHAR
STARTCHAR 257
ENCODING 395
SWIDTH 6 0
DWIDTH 15 0
BBX 20 27 -3 -3
BITMAP
COMMENT        ***          
COMMENT       ** **         
COMMENT       ** **         
COMMENT      **   **        
COMMENT                     
COMMENT                     
COMMENT       ***           
COMMENT       ***           
COMMENT      *****          
COMMENT      ** **          
COMMENT      ** **          
COMMENT     **   **         
COMMENT     **   **         
COMMENT    ***   **         
COMMENT    **     **        
COMMENT    **     **        
COMMENT   ***********       
COMMENT   ***********       
COMMENT   **       **       
COMMENT  ***       ***      
COMMENT  **         **      
COMMENT  **         **      
COMMENT **          ***     
COMMENT                     
COMMENT                     
COMMENT                     
COMMENT                     
01C000
036000
036000
063000
000000
000000
038000
038000
07C000
06C000
06C000
0C6000
0C6000
1C6000
183000
183000
3FF800
3FF800
301800
701C00
600C00
600C00
C00E00
000000
000000
000000
000000
ENDCHAR
STARTCHAR 258
ENCODING 396
SWIDTH 5 0
DWIDTH 13 0
BBX 16 23 -2 -3
BITMAP
COMMENT      ***        
COMMENT     ** **       
COMMENT     ** **       
COMMENT    **   **      
COMMENT                 
COMMENT    *****        
COMMENT   *******       
COMMENT  ***    **      
COMMENT  **     **      
COMMENT         **      
COMMENT   ********      
COMMENT  ****** **      
COMMENT ***     **      
COMMENT **      **      
COMMENT **     ***      
COMMENT ***   ****      
COMMENT  ****** ***     
COMMENT   ****   **     
COMMENT                 
COMMENT                 
COMMENT                 
COMMENT                 
COMMENT                 
0700
0D80
0D80
18C0
0000
1F00
3F80
70C0
60C0
00C0
3FC0
7EC0
E0C0
C0C0
C1C0
E3C0
7EE0
3C60
0000
0000
0000
0000
0000
ENDCHAR
STARTCHAR 259
ENCODING 397
SWIDTH 6 0
DWIDTH 15 0
BBX 20 27 -3 -3
BITMAP
COMMENT      ***            
COMMENT       **            
COMMENT        **           
COMMENT         **          
COMMENT                     
COMMENT                     
COMMENT       ***           
COMMENT       ***           
COMMENT      *****          
COMMENT      ** **          
COMMENT      ** **          
COMMENT     **   **         
COMMENT     **   **         
COMMENT    ***   **         
COMMENT    **     **        
COMMENT    **     **        
COMMENT   ***********       
COMMENT   ***********       
COMMENT   **       **       
COMMENT  ***       ***      
COMMENT  **         **      
COMMENT  **         **      
COMMENT **          ***     
COMMENT                     
COMMENT                     
COMMENT                     
COMMENT                     
070000
030000
018000
00C000
000000
000000
038000
038000
07C000
06C000
06C000
0C6000
0C6000
1C6000
183000
183000
3FF800
3FF800
301800
701C00
600C00
600C00
C00E00
000000
000000
000000
000000
ENDCHAR
STARTCHAR 260
ENCODING 398
SWIDTH 5 0
DWIDTH 13 0
BBX 16 23 -2 -3
BITMAP
COMMENT    ***          
COMMENT     **          
COMMENT      **         
COMMENT       **        
COMMENT                 
COMMENT    *****        
COMMENT   *******       
COMMENT  ***    **      
COMMENT  **     **      
COMMENT         **      
COMMENT   ********      
COMMENT  ****** **      
COMMENT ***     **      
COMMENT **      **      
COMMENT **     ***      
COMMENT ***   ****      
COMMENT  ****** ***     
COMMENT   ****   **     
COMMENT                 
COMMENT                 
COMMENT                 
COMMENT                 
COMMENT                 
1C00
0C00
0600
0300
0000
1F00
3F80
70C0
60C0
00C0
3FC0
7EC0
E0C0
C0C0
C1C0
E3C0
7EE0
3C60
0000
0000
0000
0000
0000
ENDCHAR
STARTCHAR 261
ENCODING 399
SWIDTH 6 0
DWIDTH 15 0
BBX 20 27 -3 -3
BITMAP
COMMENT         ***         
COMMENT         **          
COMMENT        **           
COMMENT       **            
COMMENT                     
COMMENT                     
COMMENT       ***           
COMMENT       ***           
COMMENT      *****          
COMMENT      ** **          
COMMENT      ** **          
COMMENT     **   **         
COMMENT     **   **         
COMMENT    ***   **         
COMMENT    **     **        
COMMENT    **     **        
COMMENT   ***********       
COMMENT   ***********       
COMMENT   **       **       
COMMENT  ***       ***      
COMMENT  **         **      
COMMENT  **         **      
COMMENT **          ***     
COMMENT                     
COMMENT                     
COMMENT                     
COMMENT                     
00E000
00C000
018000
030000
000000
000000
038000
038000
07C000
06C000
06C000
0C6000
0C6000
1C6000
183000
183000
3FF800
3FF800
301800
701C00
600C00
600C00
C00E00
000000
000000
000000
000000
ENDCHAR
STARTCHAR 262
ENCODING 400
SWIDTH 5 0
DWIDTH 13 0
BBX 16 23 -2 -3
BITMAP
COMMENT       ***       
COMMENT       **        
COMMENT      **         
COMMENT     **          
COMMENT                 
COMMENT    *****        
COMMENT   *******       
COMMENT  ***    **      
COMMENT  **     **      
COMMENT         **      
COMMENT   ********      
COMMENT  ****** **      
COMMENT ***     **      
COMMENT **      **      
COMMENT **     ***      
COMMENT ***   ****      
COMMENT  ****** ***     
COMMENT   ****   **     
COMMENT                 
COMMENT                 
COMMENT                 
COMMENT                 
COMMENT                 
0380
0300
0600
0C00
0000
1F00
3F80
70C0
60C0
00C0
3FC0
7EC0
E0C0
C0C0
C1C0
E3C0
7EE0
3C60
0000
0000
0000
0000
0000
ENDCHAR
STARTCHAR 263
ENCODING 404
SWIDTH 6 0
DWIDTH 16 0
BBX 19 22 -3 -3
BITMAP
COMMENT **                 
COMMENT **                 
COMMENT  *                 
COMMENT *                  
COMMENT     **  ****       
COMMENT     *********      
COMMENT     ****   ***     
COMMENT     ***     **     
COMMENT     **      **     
COMMENT     **      **     
COMMENT     **      **     
COMMENT     **      **     
COMMENT     **      **     
COMMENT     **      **     
COMMENT     **      **     
COMMENT     **      **     
COMMENT     **      **     
COMMENT                    
COMMENT                    
COMMENT                    
COMMENT                    
COMMENT                    
C00000
C00000
400000
800000
0CF000
0FF800
0F1C00
0E0C00
0C0C00
0C0C00
0C0C00
0C0C00
0C0C00
0C0C00
0C0C00
0C0C00
0C0C00
000000
000000
000000
000000
000000
ENDCHAR
STARTCHAR 264
ENCODING 410
SWIDTH 1 0
DWIDTH 3 0
BBX 2 7 1 10
BITMAP
COMMENT **
COMMENT **
COMMENT **
COMMENT **
COMMENT **
COMMENT **
COMMENT **
C0
C0
C0
C0
C0
C0
C0
ENDCHAR
STARTCHAR 265
ENCODING 411
SWIDTH 6 0
DWIDTH 15 0
BBX 14 22 0 -3
BITMAP
COMMENT **      **    
COMMENT **      **    
COMMENT **      **    
COMMENT **      **    
COMMENT **      **    
COMMENT **      **    
COMMENT **      **    
COMMENT **      **    
COMMENT **      **    
COMMENT **      **    
COMMENT **      **    
COMMENT **      **    
COMMENT               
COMMENT               
COMMENT **      **    
COMMENT **      **    
COMMENT **      **    
COMMENT               
COMMENT               
COMMENT               
COMMENT               
COMMENT               
C0C0
C0C0
C0C0
C0C0
C0C0
C0C0
C0C0
C0C0
C0C0
C0C0
C0C0
C0C0
0000
0000
C0C0
C0C0
C0C0
0000
0000
0000
0000
0000
ENDCHAR
STARTCHAR 266
ENCODING 414
SWIDTH 6 0
DWIDTH 15 0
BBX 14 17 1 -1
BITMAP
COMMENT ******        
COMMENT **   **   **  
COMMENT **    **  **  
COMMENT **    **  **  
COMMENT **    ** *****
COMMENT **    **  **  
COMMENT **    **  **  
COMMENT **   **   **  
COMMENT ******    **  
COMMENT **        **  
COMMENT **        **  
COMMENT **        **  
COMMENT **        **  
COMMENT **        **  
COMMENT **        **  
COMMENT **         ***
COMMENT               
FC00
C630
C330
C330
C37C
C330
C330
C630
FC30
C030
C030
C030
C030
C030
C030
C01C
0000
ENDCHAR
STARTCHAR 267
ENCODING 418
SWIDTH 10 0
DWIDTH 24 0
BBX 24 1 0 6
BITMAP
COMMENT ************************
FFFFFF
ENDCHAR
STARTCHAR 268
ENCODING 421
SWIDTH 5 0
DWIDTH 13 0
BBX 11 18 2 -5
BITMAP
COMMENT **      ** 
COMMENT **      ** 
COMMENT **      ** 
COMMENT **      ** 
COMMENT **      ** 
COMMENT **      ** 
COMMENT **      ** 
COMMENT **      ** 
COMMENT **      ** 
COMMENT **     *** 
COMMENT ***   **** 
COMMENT  ********* 
COMMENT   ****  ** 
COMMENT          * 
COMMENT         *  
COMMENT        **  
COMMENT        ****
COMMENT         ***
C0C0
C0C0
C0C0
C0C0
C0C0
C0C0
C0C0
C0C0
C0C0
C1C0
E3C0
7FC0
3CC0
0040
0080
0180
01E0
00E0
ENDCHAR
STARTCHAR 269
ENCODING 422
SWIDTH 0 0
DWIDTH 2 0
BBX 2 4 0 13
BITMAP
COMMENT **
COMMENT **
COMMENT  *
COMMENT * 
C0
C0
40
80
ENDCHAR
STARTCHAR 270
ENCODING 423
SWIDTH 10 0
DWIDTH 24 0
BBX 26 7 -3 -3
BITMAP
COMMENT **      **      **        
COMMENT **      **      **        
COMMENT **      **      **        
COMMENT                           
COMMENT                           
COMMENT                           
COMMENT                           
C0C0C000
C0C0C000
C0C0C000
00000000
00000000
00000000
00000000
ENDCHAR
STARTCHAR 271
ENCODING 424
SWIDTH 6 0
DWIDTH 15 0
BBX 12 17 2 0
BITMAP
COMMENT **          
COMMENT **          
COMMENT **          
COMMENT **********  
COMMENT *********** 
COMMENT **       ***
COMMENT **        **
COMMENT **        **
COMMENT **        **
COMMENT **       ***
COMMENT *********** 
COMMENT *********   
COMMENT **          
COMMENT **          
COMMENT **          
COMMENT **          
COMMENT **          
C000
C000
C000
FFC0
FFE0
C070
C030
C030
C030
C070
FFE0
FF80
C000
C000
C000
C000
C000
ENDCHAR
STARTCHAR 272
ENCODING 425
SWIDTH 5 0
DWIDTH 14 0
BBX 12 22 2 -5
BITMAP
COMMENT **          
COMMENT **          
COMMENT **          
COMMENT **          
COMMENT **  *****   
COMMENT ** *******  
COMMENT ****    *** 
COMMENT ***      ** 
COMMENT **        **
COMMENT **        **
COMMENT **        **
COMMENT **        **
COMMENT **        **
COMMENT ***      ** 
COMMENT ****    *** 
COMMENT ** *******  
COMMENT **  *****   
COMMENT **          
COMMENT **          
COMMENT **          
COMMENT **          
COMMENT **          
C000
C000
C000
C000
CF80
DFC0
F0E0
E060
C030
C030
C030
C030
C030
E060
F0E0
DFC0
CF80
C000
C000
C000
C000
C000
ENDCHAR
STARTCHAR 273
ENCODING 426
SWIDTH 5 0
DWIDTH 13 0
BBX 12 18 1 0
BITMAP
COMMENT  **      *  
COMMENT   ***  **   
COMMENT     ***     
COMMENT   ******    
COMMENT   *    **   
COMMENT    *******  
COMMENT   ********* 
COMMENT  ***    *** 
COMMENT  **      ***
COMMENT **        **
COMMENT **        **
COMMENT **        **
COMMENT **        **
COMMENT **        **
COMMENT  **      ** 
COMMENT  ***    *** 
COMMENT   ********  
COMMENT    ******   
6040
3980
0E00
3F00
2180
1FC0
3FE0
70E0
6070
C030
C030
C030
C030
C030
6060
70E0
3FC0
1F80
ENDCHAR
STARTCHAR 274
ENCODING 427
SWIDTH 5 0
DWIDTH 14 0
BBX 14 16 0 0
BITMAP
COMMENT ***        ***
COMMENT  **        ** 
COMMENT  ***      *** 
COMMENT   **      **  
COMMENT   ***    ***  
COMMENT    ***   **   
COMMENT    ***  ***   
COMMENT **************
COMMENT      ****     
COMMENT **************
COMMENT       **      
COMMENT       **      
COMMENT       **      
COMMENT       **      
COMMENT       **      
COMMENT       **      
E01C
6018
7038
3030
3870
1C60
1CE0
FFFC
0780
FFFC
0300
0300
0300
0300
0300
0300
ENDCHAR
STARTCHAR 275
ENCODING 433
SWIDTH 4 0
DWIDTH 10 0
BBX 8 22 2 -5
BITMAP
COMMENT **    **
COMMENT **    **
COMMENT         
COMMENT         
COMMENT **    **
COMMENT **    **
COMMENT **    **
COMMENT **    **
COMMENT **    **
COMMENT **    **
COMMENT **    **
COMMENT **    **
COMMENT **    **
COMMENT **    **
COMMENT **    **
COMMENT **    **
COMMENT **    **
COMMENT       **
COMMENT       **
COMMENT       **
COMMENT     ****
COMMENT     *** 
C3
C3
00
00
C3
C3
C3
C3
C3
C3
C3
C3
C3
C3
C3
C3
C3
03
03
03
0F
0E
ENDCHAR
STARTCHAR 276
ENCODING 434
SWIDTH 6 0
DWIDTH 16 0
BBX 13 17 2 0
BITMAP
COMMENT **         **
COMMENT **         **
COMMENT **         **
COMMENT **         **
COMMENT **         **
COMMENT **         **
COMMENT **         **
COMMENT **         **
COMMENT **         **
COMMENT **         **
COMMENT **         **
COMMENT ** **      **
COMMENT ** **      **
COMMENT ** **      **
COMMENT **  **    ** 
COMMENT **  ******** 
COMMENT **    *****  
C018
C018
C018
C018
C018
C018
C018
C018
C018
C018
C018
D818
D818
D818
CC30
CFF0
C3E0
ENDCHAR
STARTCHAR 277
ENCODING 435
SWIDTH 5 0
DWIDTH 12 0
BBX 2 21 5 -4
BITMAP
COMMENT **
COMMENT **
COMMENT **
COMMENT **
COMMENT **
COMMENT **
COMMENT **
COMMENT **
COMMENT **
COMMENT   
COMMENT   
COMMENT   
COMMENT **
COMMENT **
COMMENT **
COMMENT **
COMMENT **
COMMENT **
COMMENT **
COMMENT **
COMMENT **
C0
C0
C0
C0
C0
C0
C0
C0
C0
00
00
00
C0
C0
C0
C0
C0
C0
C0
C0
C0
ENDCHAR
STARTCHAR 278
ENCODING 436
SWIDTH 5 0
DWIDTH 14 0
BBX 12 12 1 4
BITMAP
COMMENT *          *
COMMENT  * ****** * 
COMMENT   **    **  
COMMENT  **      ** 
COMMENT  *        * 
COMMENT  *        * 
COMMENT  *        * 
COMMENT  *        * 
COMMENT  **      ** 
COMMENT   **    **  
COMMENT  * ****** * 
COMMENT *          *
8010
5FA0
30C0
6060
4020
4020
4020
4020
6060
30C0
5FA0
8010
ENDCHAR
STARTCHAR 279
ENCODING 442
SWIDTH 5 0
DWIDTH 12 0
BBX 10 17 0 0
BITMAP
COMMENT    *******
COMMENT  *****  * 
COMMENT ******  * 
COMMENT ******  * 
COMMENT ******  * 
COMMENT ******  * 
COMMENT  *****  * 
COMMENT    ***  * 
COMMENT      *  * 
COMMENT      *  * 
COMMENT      *  * 
COMMENT      *  * 
COMMENT      *  * 
COMMENT      *  * 
COMMENT      *  * 
COMMENT      *  * 
COMMENT      *  * 
1FC0
7C80
FC80
FC80
FC80
FC80
7C80
1C80
0480
0480
0480
0480
0480
0480
0480
0480
0480
ENDCHAR
STARTCHAR 280
ENCODING 446
SWIDTH 7 0
DWIDTH 17 0
BBX 16 17 0 0
BITMAP
COMMENT    ***   ***  **
COMMENT   ****  ****  **
COMMENT   **    **    **
COMMENT   **    **    **
COMMENT ************  **
COMMENT ************  **
COMMENT   **    **    **
COMMENT   **    **    **
COMMENT   **    **    **
COMMENT   **    **    **
COMMENT   **    **    **
COMMENT   **    **    **
COMMENT   **    **    **
COMMENT   **    **    **
COMMENT   **    **    **
COMMENT   **    **    **
COMMENT   **    **    **
1C73
3CF3
30C3
30C3
FFF3
FFF3
30C3
30C3
30C3
30C3
30C3
30C3
30C3
30C3
30C3
30C3
30C3
ENDCHAR
STARTCHAR 281
ENCODING 447
SWIDTH 7 0
DWIDTH 17 0
BBX 16 17 0 0
BITMAP
COMMENT    ***   ***  **
COMMENT   ****  ****  **
COMMENT   **    **      
COMMENT   **    **      
COMMENT ************  **
COMMENT ************  **
COMMENT   **    **    **
COMMENT   **    **    **
COMMENT   **    **    **
COMMENT   **    **    **
COMMENT   **    **    **
COMMENT   **    **    **
COMMENT   **    **    **
COMMENT   **    **    **
COMMENT   **    **    **
COMMENT   **    **    **
COMMENT   **    **    **
1C73
3CF3
30C0
30C0
FFF3
FFF3
30C3
30C3
30C3
30C3
30C3
30C3
30C3
30C3
30C3
30C3
30C3
ENDCHAR
STARTCHAR 282
ENCODING 448
SWIDTH 5 0
DWIDTH 12 0
BBX 12 17 0 0
BITMAP
COMMENT    ***   ***
COMMENT   ****  ****
COMMENT   **    **  
COMMENT   **    **  
COMMENT ************
COMMENT ************
COMMENT   **    **  
COMMENT   **    **  
COMMENT   **    **  
COMMENT   **    **  
COMMENT   **    **  
COMMENT   **    **  
COMMENT   **    **  
COMMENT   **    **  
COMMENT   **    **  
COMMENT   **    **  
COMMENT   **    **  
1C70
3CF0
30C0
30C0
FFF0
FFF0
30C0
30C0
30C0
30C0
30C0
30C0
30C0
30C0
30C0
30C0
30C0
ENDCHAR
STARTCHAR 283
ENCODING 449
SWIDTH 7 0
DWIDTH 19 0
BBX 14 2 3 6
BITMAP
COMMENT **************
COMMENT **************
FFFC
FFFC
ENDCHAR
STARTCHAR 284
ENCODING 450
SWIDTH 7 0
DWIDTH 19 0
BBX 13 13 3 1
BITMAP
COMMENT  *         * 
COMMENT ***       ***
COMMENT  ***     *** 
COMMENT   ***   ***  
COMMENT    *** ***   
COMMENT     *****    
COMMENT      ***     
COMMENT     *****    
COMMENT    *** ***   
COMMENT   ***   ***  
COMMENT  ***     *** 
COMMENT ***       ***
COMMENT  *         * 
4010
E038
7070
38E0
1DC0
0F80
0700
0F80
1DC0
38E0
7070
E038
4010
ENDCHAR
STARTCHAR 285
ENCODING 451
SWIDTH 7 0
DWIDTH 19 0
BBX 15 12 3 1
BITMAP
COMMENT       ***      
COMMENT       ***      
COMMENT       ***      
COMMENT                
COMMENT                
COMMENT ***************
COMMENT ***************
COMMENT                
COMMENT                
COMMENT       ***      
COMMENT       ***      
COMMENT       ***      
0380
0380
0380
0000
0000
FFFE
FFFE
0000
0000
0380
0380
0380
ENDCHAR
STARTCHAR 286
ENCODING 452
SWIDTH 7 0
DWIDTH 19 0
BBX 14 14 3 0
BITMAP
COMMENT       **      
COMMENT       **      
COMMENT       **      
COMMENT       **      
COMMENT **************
COMMENT **************
COMMENT       **      
COMMENT       **      
COMMENT       **      
COMMENT       **      
COMMENT               
COMMENT               
COMMENT **************
COMMENT **************
0300
0300
0300
0300
FFFC
FFFC
0300
0300
0300
0300
0000
0000
FFFC
FFFC
ENDCHAR
STARTCHAR 287
ENCODING 453
SWIDTH 7 0
DWIDTH 19 0
BBX 14 12 3 1
BITMAP
COMMENT **************
COMMENT **************
COMMENT               
COMMENT               
COMMENT               
COMMENT **************
COMMENT **************
COMMENT               
COMMENT               
COMMENT               
COMMENT **************
COMMENT **************
FFFC
FFFC
0000
0000
0000
FFFC
FFFC
0000
0000
0000
FFFC
FFFC
ENDCHAR
STARTCHAR 288
ENCODING 454
SWIDTH 7 0
DWIDTH 19 0
BBX 14 14 3 0
BITMAP
COMMENT            *  
COMMENT           **  
COMMENT          **   
COMMENT          **   
COMMENT **************
COMMENT **************
COMMENT        **     
COMMENT       **      
COMMENT      **       
COMMENT **************
COMMENT **************
COMMENT    **         
COMMENT    **         
COMMENT   **          
0010
0030
0060
0060
FFFC
FFFC
0180
0300
0600
FFFC
FFFC
1800
1800
3000
ENDCHAR
STARTCHAR 289
ENCODING 455
SWIDTH 7 0
DWIDTH 19 0
BBX 16 10 2 2
BITMAP
COMMENT   *****        *
COMMENT  ********    ***
COMMENT ***    ******** 
COMMENT *        *****  
COMMENT                 
COMMENT   *****        *
COMMENT  ********    ***
COMMENT ***    ******** 
COMMENT *        *****  
COMMENT                 
3E01
7F87
E1FE
807C
0000
3E01
7F87
E1FE
807C
0000
ENDCHAR
STARTCHAR 290
ENCODING 456
SWIDTH 7 0
DWIDTH 19 0
BBX 14 15 3 0
BITMAP
COMMENT *             
COMMENT ****          
COMMENT   *****       
COMMENT      *****    
COMMENT         ***** 
COMMENT            ***
COMMENT         ***** 
COMMENT      *****    
COMMENT   *****       
COMMENT ****          
COMMENT *             
COMMENT               
COMMENT               
COMMENT **************
COMMENT **************
8000
F000
3E00
07C0
00F8
001C
00F8
07C0
3E00
F000
8000
0000
0000
FFFC
FFFC
ENDCHAR
STARTCHAR 291
ENCODING 457
SWIDTH 7 0
DWIDTH 19 0
BBX 14 15 3 0
BITMAP
COMMENT              *
COMMENT           ****
COMMENT        *****  
COMMENT     *****     
COMMENT  *****        
COMMENT ***           
COMMENT  *****        
COMMENT     *****     
COMMENT        *****  
COMMENT           ****
COMMENT              *
COMMENT               
COMMENT               
COMMENT **************
COMMENT **************
0004
003C
01F0
0F80
7C00
E000
7C00
0F80
01F0
003C
0004
0000
0000
FFFC
FFFC
ENDCHAR
STARTCHAR 292
ENCODING 458
SWIDTH 5 0
DWIDTH 12 0
BBX 10 21 1 -4
BITMAP
COMMENT     **    
COMMENT     **    
COMMENT     **    
COMMENT     **    
COMMENT     **    
COMMENT     **    
COMMENT     **    
COMMENT     **    
COMMENT     **    
COMMENT     **    
COMMENT     **    
COMMENT     **    
COMMENT     **    
COMMENT **  **  **
COMMENT **  **  **
COMMENT  ** ** ** 
COMMENT   * ** *  
COMMENT   ******  
COMMENT    ****   
COMMENT    ****   
COMMENT     **    
0C00
0C00
0C00
0C00
0C00
0C00
0C00
0C00
0C00
0C00
0C00
0C00
0C00
CCC0
CCC0
6D80
2D00
3F00
1E00
1E00
0C00
ENDCHAR
STARTCHAR 293
ENCODING 459
SWIDTH 10 0
DWIDTH 24 0
BBX 21 10 2 2
BITMAP
COMMENT       **             
COMMENT      ***             
COMMENT    ***               
COMMENT  ***                 
COMMENT *********************
COMMENT *********************
COMMENT  ***                 
COMMENT    ***               
COMMENT      ***             
COMMENT       **             
030000
070000
1C0000
700000
FFFFF8
FFFFF8
700000
1C0000
070000
030000
ENDCHAR
STARTCHAR 294
ENCODING 460
SWIDTH 10 0
DWIDTH 24 0
BBX 21 10 2 2
BITMAP
COMMENT              **      
COMMENT              ***     
COMMENT                ***   
COMMENT                  *** 
COMMENT *********************
COMMENT *********************
COMMENT                  *** 
COMMENT                ***   
COMMENT              ***     
COMMENT              **      
000600
000700
0001C0
000070
FFFFF8
FFFFF8
000070
0001C0
000700
000600
ENDCHAR
STARTCHAR 295
ENCODING 461
SWIDTH 5 0
DWIDTH 12 0
BBX 10 21 1 -4
BITMAP
COMMENT     **    
COMMENT    ****   
COMMENT    ****   
COMMENT   ******  
COMMENT   * ** *  
COMMENT  ** ** ** 
COMMENT **  **  **
COMMENT **  **  **
COMMENT     **    
COMMENT     **    
COMMENT     **    
COMMENT     **    
COMMENT     **    
COMMENT     **    
COMMENT     **    
COMMENT     **    
COMMENT     **    
COMMENT     **    
COMMENT     **    
COMMENT     **    
COMMENT     **    
0C00
1E00
1E00
3F00
2D00
6D80
CCC0
CCC0
0C00
0C00
0C00
0C00
0C00
0C00
0C00
0C00
0C00
0C00
0C00
0C00
0C00
ENDCHAR
STARTCHAR 296
ENCODING 462
SWIDTH 5 0
DWIDTH 12 0
BBX 10 21 1 -4
BITMAP
COMMENT    ****   
COMMENT    ****   
COMMENT   ******  
COMMENT   ******  
COMMENT  ** ** ** 
COMMENT  ** ** ** 
COMMENT **  **  **
COMMENT **  **  **
COMMENT     **    
COMMENT     **    
COMMENT     **    
COMMENT     **    
COMMENT     **    
COMMENT **  **  **
COMMENT **  **  **
COMMENT  ** ** ** 
COMMENT  ** ** ** 
COMMENT   ******  
COMMENT   ******  
COMMENT    ****   
COMMENT    ****   
1E00
1E00
3F00
3F00
6D80
6D80
CCC0
CCC0
0C00
0C00
0C00
0C00
0C00
CCC0
CCC0
6D80
6D80
3F00
3F00
1E00
1E00
ENDCHAR
STARTCHAR 297
ENCODING 463
SWIDTH 10 0
DWIDTH 24 0
BBX 21 10 2 2
BITMAP
COMMENT       **     **      
COMMENT      ***     ***     
COMMENT    ***         ***   
COMMENT  ***             *** 
COMMENT *********************
COMMENT *********************
COMMENT  ***             *** 
COMMENT    ***         ***   
COMMENT      ***     ***     
COMMENT       **     **      
030600
070700
1C01C0
700070
FFFFF8
FFFFF8
700070
1C01C0
070700
030600
ENDCHAR
STARTCHAR 298
ENCODING 464
SWIDTH 7 0
DWIDTH 19 0
BBX 16 15 2 0
BITMAP
COMMENT      ***********
COMMENT    *************
COMMENT   ***           
COMMENT  **             
COMMENT **              
COMMENT **              
COMMENT ****************
COMMENT ****************
COMMENT **              
COMMENT **              
COMMENT ***             
COMMENT  ***            
COMMENT   ***           
COMMENT    *************
COMMENT      ***********
07FF
1FFF
3800
6000
C000
C000
FFFF
FFFF
C000
C000
E000
7000
3800
1FFF
07FF
ENDCHAR
STARTCHAR 299
ENCODING 465
SWIDTH 7 0
DWIDTH 19 0
BBX 15 16 3 0
BITMAP
COMMENT     *******    
COMMENT    *********   
COMMENT   ***     ***  
COMMENT  **         ** 
COMMENT  **         ** 
COMMENT **           **
COMMENT **           **
COMMENT **           **
COMMENT **           **
COMMENT **           **
COMMENT **           **
COMMENT **           **
COMMENT **           **
COMMENT **           **
COMMENT **           **
COMMENT **           **
0FE0
1FF0
3838
600C
600C
C006
C006
C006
C006
C006
C006
C006
C006
C006
C006
C006
ENDCHAR
STARTCHAR 300
ENCODING 470
SWIDTH 5 0
DWIDTH 14 0
BBX 7 24 6 -6
BITMAP
COMMENT    *** 
COMMENT   * ***
COMMENT   * ***
COMMENT   *    
COMMENT  **    
COMMENT  *     
COMMENT  *     
COMMENT  *     
COMMENT  *     
COMMENT **     
COMMENT **     
COMMENT **     
COMMENT **     
COMMENT **     
COMMENT **     
COMMENT **     
COMMENT **     
COMMENT **     
COMMENT **     
COMMENT **     
COMMENT **     
COMMENT **     
COMMENT **     
COMMENT **     
1C
2E
2E
20
60
40
40
40
40
C0
C0
C0
C0
C0
C0
C0
C0
C0
C0
C0
C0
C0
C0
C0
ENDCHAR
STARTCHAR 301
ENCODING 471
SWIDTH 5 0
DWIDTH 14 0
BBX 7 24 1 -6
BITMAP
COMMENT      **
COMMENT      **
COMMENT      **
COMMENT      **
COMMENT      **
COMMENT      **
COMMENT      **
COMMENT      **
COMMENT      **
COMMENT      **
COMMENT      **
COMMENT      **
COMMENT      **
COMMENT      **
COMMENT      **
COMMENT      * 
COMMENT      * 
COMMENT      * 
COMMENT      * 
COMMENT     ** 
COMMENT     *  
COMMENT *** *  
COMMENT *** *  
COMMENT ****   
06
06
06
06
06
06
06
06
06
06
06
06
06
06
06
04
04
04
04
0C
08
E8
E8
F0
ENDCHAR
STARTCHAR 302
ENCODING 476
SWIDTH 6 0
DWIDTH 15 0
BBX 15 19 1 0
BITMAP
COMMENT              **
COMMENT             *  
COMMENT             *  
COMMENT            **  
COMMENT            *   
COMMENT            *   
COMMENT           *    
COMMENT           *    
COMMENT  ***     **    
COMMENT * **     *     
COMMENT   **     *     
COMMENT    **   *      
COMMENT    **   *      
COMMENT    *** **      
COMMENT     ** *       
COMMENT     ** *       
COMMENT      **        
COMMENT      **        
COMMENT      **        
0006
0008
0008
0018
0010
0010
0020
0020
7060
B040
3040
1880
1880
1D80
0D00
0D00
0600
0600
0600
ENDCHAR
STARTCHAR 303
ENCODING 478
SWIDTH 7 0
DWIDTH 19 0
BBX 15 9 3 3
BITMAP
COMMENT   ***    ****  
COMMENT  *****  ****** 
COMMENT **   ** **   **
COMMENT *     ***     *
COMMENT *     ***     *
COMMENT *     ***     *
COMMENT **   ** **   **
COMMENT  ******  ***** 
COMMENT   ***     ***  
3878
7CFC
C6C6
8382
8382
8382
C6C6
7E7C
3838
ENDCHAR
STARTCHAR 304
ENCODING 479
SWIDTH 10 0
DWIDTH 24 0
BBX 26 13 -1 6
BITMAP
COMMENT **************************
COMMENT **************************
COMMENT **************************
COMMENT **************************
COMMENT **************************
COMMENT **************************
COMMENT **************************
COMMENT **************************
COMMENT **************************
COMMENT **************************
COMMENT **************************
COMMENT **************************
COMMENT **************************
FFFFFFC0
FFFFFFC0
FFFFFFC0
FFFFFFC0
FFFFFFC0
FFFFFFC0
FFFFFFC0
FFFFFFC0
FFFFFFC0
FFFFFFC0
FFFFFFC0
FFFFFFC0
FFFFFFC0
ENDCHAR
STARTCHAR 305
ENCODING 480
SWIDTH 10 0
DWIDTH 24 0
BBX 26 13 -1 -7
BITMAP
COMMENT **************************
COMMENT **************************
COMMENT **************************
COMMENT **************************
COMMENT **************************
COMMENT **************************
COMMENT **************************
COMMENT **************************
COMMENT **************************
COMMENT **************************
COMMENT **************************
COMMENT **************************
COMMENT **************************
FFFFFFC0
FFFFFFC0
FFFFFFC0
FFFFFFC0
FFFFFFC0
FFFFFFC0
FFFFFFC0
FFFFFFC0
FFFFFFC0
FFFFFFC0
FFFFFFC0
FFFFFFC0
FFFFFFC0
ENDCHAR
STARTCHAR 306
ENCODING 481
SWIDTH 10 0
DWIDTH 24 0
BBX 12 26 0 -7
BITMAP
COMMENT ************
COMMENT ************
COMMENT ************
COMMENT ************
COMMENT ************
COMMENT ************
COMMENT ************
COMMENT ************
COMMENT ************
COMMENT ************
COMMENT ************
COMMENT ************
COMMENT ************
COMMENT ************
COMMENT ************
COMMENT ************
COMMENT ************
COMMENT ************
COMMENT ************
COMMENT ************
COMMENT ************
COMMENT ************
COMMENT ************
COMMENT ************
COMMENT ************
COMMENT ************
FFF0
FFF0
FFF0
FFF0
FFF0
FFF0
FFF0
FFF0
FFF0
FFF0
FFF0
FFF0
FFF0
FFF0
FFF0
FFF0
FFF0
FFF0
FFF0
FFF0
FFF0
FFF0
FFF0
FFF0
FFF0
FFF0
ENDCHAR
STARTCHAR 307
ENCODING 482
SWIDTH 10 0
DWIDTH 24 0
BBX 12 26 12 -7
BITMAP
COMMENT ************
COMMENT ************
COMMENT ************
COMMENT ************
COMMENT ************
COMMENT ************
COMMENT ************
COMMENT ************
COMMENT ************
COMMENT ************
COMMENT ************
COMMENT ************
COMMENT ************
COMMENT ************
COMMENT ************
COMMENT ************
COMMENT ************
COMMENT ************
COMMENT ************
COMMENT ************
COMMENT ************
COMMENT ************
COMMENT ************
COMMENT ************
COMMENT ************
COMMENT ************
FFF0
FFF0
FFF0
FFF0
FFF0
FFF0
FFF0
FFF0
FFF0
FFF0
FFF0
FFF0
FFF0
FFF0
FFF0
FFF0
FFF0
FFF0
FFF0
FFF0
FFF0
FFF0
FFF0
FFF0
FFF0
FFF0
ENDCHAR
STARTCHAR 308
ENCODING 484
SWIDTH 7 0
DWIDTH 18 0
BBX 17 17 1 -2
BITMAP
COMMENT *****************
COMMENT *****************
COMMENT *****************
COMMENT *****************
COMMENT *****************
COMMENT *****************
COMMENT *****************
COMMENT *****************
COMMENT *****************
COMMENT *****************
COMMENT *****************
COMMENT *****************
COMMENT *****************
COMMENT *****************
COMMENT *****************
COMMENT *****************
COMMENT *****************
FFFF80
FFFF80
FFFF80
FFFF80
FFFF80
FFFF80
FFFF80
FFFF80
FFFF80
FFFF80
FFFF80
FFFF80
FFFF80
FFFF80
FFFF80
FFFF80
FFFF80
ENDCHAR
STARTCHAR 309
ENCODING 486
SWIDTH 7 0
DWIDTH 19 0
BBX 14 6 3 4
BITMAP
COMMENT **************
COMMENT **************
COMMENT             **
COMMENT             **
COMMENT             **
COMMENT             **
FFFC
FFFC
000C
000C
000C
000C
ENDCHAR
STARTCHAR 310
ENCODING 487
SWIDTH 7 0
DWIDTH 19 0
BBX 14 6 3 4
BITMAP
COMMENT **************
COMMENT **************
COMMENT **            
COMMENT **            
COMMENT **            
COMMENT **            
FFFC
FFFC
C000
C000
C000
C000
ENDCHAR
STARTCHAR 311
ENCODING 488
SWIDTH 5 0
DWIDTH 13 0
BBX 14 5 -1 8
BITMAP
COMMENT *********     
COMMENT               
COMMENT               
COMMENT               
COMMENT               
FF80
0000
0000
0000
0000
ENDCHAR
STARTCHAR 312
ENCODING 489
SWIDTH 5 0
DWIDTH 13 0
BBX 14 13 -1 4
BITMAP
COMMENT     *         
COMMENT     *         
COMMENT     *         
COMMENT     *         
COMMENT *********     
COMMENT     *         
COMMENT     *         
COMMENT     *         
COMMENT     *         
COMMENT               
COMMENT               
COMMENT               
COMMENT               
0800
0800
0800
0800
FF80
0800
0800
0800
0800
0000
0000
0000
0000
ENDCHAR
STARTCHAR 313
ENCODING 500
SWIDTH 5 0
DWIDTH 13 0
BBX 12 17 2 0
BITMAP
COMMENT ************
COMMENT ************
COMMENT **          
COMMENT **          
COMMENT **          
COMMENT **          
COMMENT **          
COMMENT **          
COMMENT **          
COMMENT **          
COMMENT **          
COMMENT **          
COMMENT **          
COMMENT **          
COMMENT **          
COMMENT **          
COMMENT **          
FFF0
FFF0
C000
C000
C000
C000
C000
C000
C000
C000
C000
C000
C000
C000
C000
C000
C000
ENDCHAR
STARTCHAR 314
ENCODING 501
SWIDTH 6 0
DWIDTH 16 0
BBX 16 17 0 0
BITMAP
COMMENT       ***       
COMMENT       ****      
COMMENT       ****      
COMMENT      ******     
COMMENT      **  **     
COMMENT      **  **     
COMMENT     **    **    
COMMENT     **    **    
COMMENT    ***    ***   
COMMENT    **      **   
COMMENT    **      **   
COMMENT   **       ***  
COMMENT   **        **  
COMMENT  ***        *** 
COMMENT  **          ** 
COMMENT  ************** 
COMMENT ****************
0380
03C0
03C0
07E0
0660
0660
0C30
0C30
1C38
1818
1818
301C
300C
700E
6006
7FFE
FFFF
ENDCHAR
STARTCHAR 315
ENCODING 505
SWIDTH 7 0
DWIDTH 18 0
BBX 16 17 1 0
BITMAP
COMMENT      ******     
COMMENT    **********   
COMMENT   ***      ***  
COMMENT  ***        *** 
COMMENT  **          ** 
COMMENT ***          ***
COMMENT **            **
COMMENT **  ********  **
COMMENT **  ********  **
COMMENT **            **
COMMENT **            **
COMMENT ***          ***
COMMENT  **          ** 
COMMENT  ***        *** 
COMMENT   ***      ***  
COMMENT    **********   
COMMENT      ******     
07E0
1FF8
381C
700E
6006
E007
C003
CFF3
CFF3
C003
C003
E007
6006
700E
381C
1FF8
07E0
ENDCHAR
STARTCHAR 316
ENCODING 515
SWIDTH 5 0
DWIDTH 14 0
BBX 13 17 1 0
BITMAP
COMMENT *************
COMMENT *************
COMMENT  ***         
COMMENT   ***        
COMMENT    ***       
COMMENT     ***      
COMMENT      ***     
COMMENT       ***    
COMMENT        **    
COMMENT       ***    
COMMENT      ***     
COMMENT     ***      
COMMENT    ***       
COMMENT   ***        
COMMENT  ***         
COMMENT *************
COMMENT *************
FFF8
FFF8
7000
3800
1C00
0E00
0700
0380
0180
0380
0700
0E00
1C00
3800
7000
FFF8
FFF8
ENDCHAR
STARTCHAR 317
ENCODING 518
SWIDTH 7 0
DWIDTH 17 0
BBX 16 17 0 0
BITMAP
COMMENT        **       
COMMENT        **       
COMMENT     ********    
COMMENT    **********   
COMMENT  ****  **  **** 
COMMENT  **    **    ** 
COMMENT **     **     **
COMMENT **     **     **
COMMENT **     **     **
COMMENT **     **     **
COMMENT **     **     **
COMMENT  **    **    ** 
COMMENT  ****  **  **** 
COMMENT    **********   
COMMENT     ********    
COMMENT        **       
COMMENT        **       
0180
0180
0FF0
1FF8
799E
6186
C183
C183
C183
C183
C183
6186
799E
1FF8
0FF0
0180
0180
ENDCHAR
STARTCHAR 318
ENCODING 521
SWIDTH 7 0
DWIDTH 18 0
BBX 17 17 0 0
BITMAP
COMMENT      ******      
COMMENT    **********    
COMMENT   ***      ***   
COMMENT  ***        ***  
COMMENT  **          **  
COMMENT **            ** 
COMMENT **            ** 
COMMENT **            ** 
COMMENT **            ** 
COMMENT **            ** 
COMMENT ***          *** 
COMMENT  **          **  
COMMENT  ***        ***  
COMMENT   ***      ***   
COMMENT    ***    ***    
COMMENT *******  ******* 
COMMENT *******  ******* 
07E000
1FF800
381C00
700E00
600600
C00300
C00300
C00300
C00300
C00300
E00700
600600
700E00
381C00
1C3800
FE7F00
FE7F00
ENDCHAR
STARTCHAR 319
ENCODING 522
SWIDTH 5 0
DWIDTH 14 0
BBX 13 14 0 -1
BITMAP
COMMENT     *****   *
COMMENT    ******* **
COMMENT   **    ** **
COMMENT  **      *** 
COMMENT  **      *** 
COMMENT **       *** 
COMMENT **       **  
COMMENT **       **  
COMMENT **      ***  
COMMENT **      ***  
COMMENT  **    ****  
COMMENT  ******* ****
COMMENT   *****   ** 
COMMENT              
0F88
1FD8
30D8
6070
6070
C070
C060
C060
C0E0
C0E0
61E0
7F78
3E30
0000
ENDCHAR
STARTCHAR 320
ENCODING 523
SWIDTH 5 0
DWIDTH 13 0
BBX 14 22 -1 -5
BITMAP
COMMENT        ****   
COMMENT      ******** 
COMMENT     ***    ***
COMMENT     **      **
COMMENT    ***      **
COMMENT    **       **
COMMENT    **     *** 
COMMENT    **  *****  
COMMENT    **  ****   
COMMENT   **     ***  
COMMENT   **       ** 
COMMENT   **       ** 
COMMENT   **       ** 
COMMENT   ***      ** 
COMMENT  *****    **  
COMMENT  ** ********  
COMMENT  **   ****    
COMMENT  **           
COMMENT  **           
COMMENT ***           
COMMENT **            
COMMENT **            
01E0
07F8
0E1C
0C0C
1C0C
180C
1838
19F0
19E0
3070
3018
3018
3018
3818
7C30
6FF0
63C0
6000
6000
E000
C000
C000
ENDCHAR
STARTCHAR 321
ENCODING 526
SWIDTH 5 0
DWIDTH 13 0
BBX 12 17 0 0
BITMAP
COMMENT      ****** 
COMMENT    ******** 
COMMENT    **       
COMMENT    **       
COMMENT     ***     
COMMENT      ***    
COMMENT     *****   
COMMENT   ***   **  
COMMENT  **      ** 
COMMENT  *        **
COMMENT **        **
COMMENT **        **
COMMENT **        **
COMMENT ***      ***
COMMENT  ***    *** 
COMMENT   ********  
COMMENT    *****    
07E0
1FE0
1800
1800
0E00
0700
0F80
38C0
6060
4030
C030
C030
C030
E070
70E0
3FC0
1F00
ENDCHAR
STARTCHAR 322
ENCODING 527
SWIDTH 4 0
DWIDTH 11 0
BBX 10 13 0 0
BITMAP
COMMENT     ******
COMMENT    *******
COMMENT   ***     
COMMENT  **       
COMMENT ***       
COMMENT **        
COMMENT ********* 
COMMENT ********* 
COMMENT **        
COMMENT **        
COMMENT  ***      
COMMENT   ******* 
COMMENT     ***** 
0FC0
1FC0
3800
6000
E000
C000
FF80
FF80
C000
C000
7000
3F80
0F80
ENDCHAR
STARTCHAR 323
ENCODING 529
SWIDTH 5 0
DWIDTH 13 0
BBX 12 18 0 -5
BITMAP
COMMENT  ***   **** 
COMMENT  *** *******
COMMENT   ****    **
COMMENT   ***     **
COMMENT   **      **
COMMENT   **      **
COMMENT  **      ** 
COMMENT  **      ** 
COMMENT  **      ** 
COMMENT  **      ** 
COMMENT  **      ** 
COMMENT **      **  
COMMENT **      **  
COMMENT         **  
COMMENT         **  
COMMENT        ***  
COMMENT        **   
COMMENT        **   
71E0
77F0
3C30
3830
3030
3030
6060
6060
6060
6060
6060
C0C0
C0C0
00C0
00C0
01C0
0180
0180
ENDCHAR
STARTCHAR 324
ENCODING 530
SWIDTH 5 0
DWIDTH 13 0
BBX 12 17 1 0
BITMAP
COMMENT      ****   
COMMENT    ******** 
COMMENT    **    ** 
COMMENT   **      **
COMMENT  ***      **
COMMENT  **       **
COMMENT  **       **
COMMENT ************
COMMENT ************
COMMENT **       ***
COMMENT **       ** 
COMMENT **       ** 
COMMENT **      *** 
COMMENT **      **  
COMMENT  **   ***   
COMMENT  ********   
COMMENT    ****     
0780
1FE0
1860
3030
7030
6030
6030
FFF0
FFF0
C070
C060
C060
C0E0
C0C0
6380
7F80
1E00
ENDCHAR
STARTCHAR 325
ENCODING 534
SWIDTH 5 0
DWIDTH 13 0
BBX 14 18 -1 -5
BITMAP
COMMENT    ***      **
COMMENT    **      ***
COMMENT    **      ** 
COMMENT    **      ** 
COMMENT    **      ** 
COMMENT   **       ** 
COMMENT   **      *** 
COMMENT   **      **  
COMMENT   **      **  
COMMENT   **     ***  
COMMENT  ****   ****  
COMMENT  ******** *** 
COMMENT  ** ****  *** 
COMMENT  **           
COMMENT  **           
COMMENT **            
COMMENT **            
COMMENT **            
1C0C
181C
1818
1818
1818
3018
3038
3030
3030
3070
78F0
7FB8
6F38
6000
6000
C000
C000
C000
ENDCHAR
STARTCHAR 326
ENCODING 538
SWIDTH 5 0
DWIDTH 14 0
BBX 14 13 0 0
BITMAP
COMMENT   ************
COMMENT  *************
COMMENT ** ***   **   
COMMENT ** **    **   
COMMENT    **    **   
COMMENT    **    **   
COMMENT    **    **   
COMMENT   ***   **    
COMMENT   **    **    
COMMENT   **    **    
COMMENT   **    **    
COMMENT   **    ****  
COMMENT  **      ***  
3FFC
7FFC
DC60
D860
1860
1860
1860
38C0
30C0
30C0
30C0
30F0
6070
ENDCHAR
STARTCHAR 327
ENCODING 540
SWIDTH 5 0
DWIDTH 14 0
BBX 13 13 0 0
BITMAP
COMMENT     **********
COMMENT    ***********
COMMENT   ***    *** 
COMMENT  ***      ** 
COMMENT  **       ** 
COMMENT **        ** 
COMMENT **        ** 
COMMENT **        ** 
COMMENT **       **  
COMMENT **      ***  
COMMENT  **    ***   
COMMENT  ********    
COMMENT    *****     
0FF8
1FF8
3870
7030
6030
C030
C030
C030
C060
C0E0
61C0
7F80
1F00
ENDCHAR
STARTCHAR 328
ENCODING 542
SWIDTH 4 0
DWIDTH 10 0
BBX 11 13 0 0
BITMAP
COMMENT   *********
COMMENT  **********
COMMENT **  ***    
COMMENT **  **     
COMMENT     **     
COMMENT     **     
COMMENT     **     
COMMENT    **      
COMMENT    **      
COMMENT    **      
COMMENT    **      
COMMENT    *****   
COMMENT     ***    
3FE0
7FE0
CE00
CC00
0C00
0C00
0C00
1800
1800
1800
1800
1F00
0E00
ENDCHAR
STARTCHAR 329
ENCODING 544
SWIDTH 6 0
DWIDTH 16 0
BBX 15 22 1 -5
BITMAP
COMMENT          **    
COMMENT         ***    
COMMENT         **     
COMMENT         **     
COMMENT     ********   
COMMENT    **********  
COMMENT   ***  **  *** 
COMMENT  ***   **   ***
COMMENT  **    **    **
COMMENT **     **    **
COMMENT **    ***    **
COMMENT **    **     **
COMMENT **    **    ** 
COMMENT ***   **   *** 
COMMENT  ***  **  ***  
COMMENT   **********   
COMMENT    *******     
COMMENT      **        
COMMENT      **        
COMMENT     ***        
COMMENT     **         
COMMENT     **         
0060
00E0
00C0
00C0
0FF0
1FF8
399C
718E
6186
C186
C386
C306
C30C
E31C
7338
3FF0
1FC0
0600
0600
0E00
0C00
0C00
ENDCHAR
STARTCHAR 330
ENCODING 562
SWIDTH 5 0
DWIDTH 12 0
BBX 11 18 0 -1
BITMAP
COMMENT      *     
COMMENT      *     
COMMENT      *     
COMMENT      **    
COMMENT      ***   
COMMENT      ****  
COMMENT      *  *  
COMMENT      *   * 
COMMENT      *   **
COMMENT      *    *
COMMENT      *    *
COMMENT      *    *
COMMENT      *    *
COMMENT   ****    *
COMMENT  *****     
COMMENT ******     
COMMENT *****      
COMMENT  ***       
0400
0400
0400
0600
0700
0780
0480
0440
0460
0420
0420
0420
0420
3C20
7C00
FC00
F800
7000
ENDCHAR
STARTCHAR 331
ENCODING 563
SWIDTH 7 0
DWIDTH 17 0
BBX 11 22 2 -5
BITMAP
COMMENT      *     
COMMENT      *     
COMMENT      *     
COMMENT      **    
COMMENT      ***   
COMMENT      *  *  
COMMENT      *   * 
COMMENT      **   *
COMMENT      ***  *
COMMENT      *  * *
COMMENT      *   **
COMMENT      *    *
COMMENT      *    *
COMMENT   ****    *
COMMENT  *****    *
COMMENT ******    *
COMMENT *****     *
COMMENT  ***   ****
COMMENT       *****
COMMENT      ******
COMMENT      ***** 
COMMENT       ***  
0400
0400
0400
0600
0700
0480
0440
0620
0720
04A0
0460
0420
0420
3C20
7C20
FC20
F820
71E0
03E0
07E0
07C0
0380
ENDCHAR
STARTCHAR 332
ENCODING 564
SWIDTH 7 0
DWIDTH 19 0
BBX 17 17 1 0
BITMAP
COMMENT       *****      
COMMENT     **     **    
COMMENT   **         **  
COMMENT   *    ****   *  
COMMENT  *   **   **   * 
COMMENT  *   **    **  * 
COMMENT *   **          *
COMMENT *   **          *
COMMENT *   **          *
COMMENT *   **          *
COMMENT *   **          *
COMMENT  *   **    **  * 
COMMENT  *   **   **   * 
COMMENT   *    ****   *  
COMMENT    *         *   
COMMENT     **     **    
COMMENT       *****      
03E000
0C1800
300600
21E200
463100
461900
8C0080
8C0080
8C0080
8C0080
8C0080
461900
463100
21E200
100400
0C1800
03E000
ENDCHAR
STARTCHAR 333
ENCODING 565
SWIDTH 7 0
DWIDTH 19 0
BBX 17 17 1 0
BITMAP
COMMENT       *****      
COMMENT     **     **    
COMMENT   **         **  
COMMENT   *           *  
COMMENT  *   ******    * 
COMMENT  *   **   ***  * 
COMMENT *    **    **   *
COMMENT *    **    **   *
COMMENT *    **   ***   *
COMMENT *    ******     *
COMMENT *    **  **     *
COMMENT  *   **   **   * 
COMMENT  *   **   ***  * 
COMMENT   *           *  
COMMENT    *         *   
COMMENT     **     **    
COMMENT       *****      
03E000
0C1800
300600
200200
47E100
463900
861880
861880
863880
87E080
866080
463100
463900
200200
100400
0C1800
03E000
ENDCHAR
STARTCHAR 334
ENCODING 566
SWIDTH 7 0
DWIDTH 19 0
BBX 13 6 4 11
BITMAP
COMMENT ***** **   **
COMMENT   *   **   **
COMMENT   *   * * * *
COMMENT   *   * * * *
COMMENT   *   * *** *
COMMENT   *   *  *  *
FB18
2318
22A8
22A8
22E8
2248
ENDCHAR
STARTCHAR 335
ENCODING 567
SWIDTH 10 0
DWIDTH 24 0
BBX 21 21 2 -4
BITMAP
COMMENT *********************
COMMENT *********************
COMMENT *********************
COMMENT *********************
COMMENT *********************
COMMENT *********************
COMMENT *********************
COMMENT *********************
COMMENT *********************
COMMENT *********************
COMMENT *********************
COMMENT *********************
COMMENT *********************
COMMENT *********************
COMMENT *********************
COMMENT *********************
COMMENT *********************
COMMENT *********************
COMMENT *********************
COMMENT *********************
COMMENT *********************
FFFFF8
FFFFF8
FFFFF8
FFFFF8
FFFFF8
FFFFF8
FFFFF8
FFFFF8
FFFFF8
FFFFF8
FFFFF8
FFFFF8
FFFFF8
FFFFF8
FFFFF8
FFFFF8
FFFFF8
FFFFF8
FFFFF8
FFFFF8
FFFFF8
ENDCHAR
STARTCHAR 336
ENCODING 568
SWIDTH 10 0
DWIDTH 24 0
BBX 21 21 2 -4
BITMAP
COMMENT *********************
COMMENT *********************
COMMENT **                 **
COMMENT **                 **
COMMENT **                 **
COMMENT **                 **
COMMENT **                 **
COMMENT **                 **
COMMENT **                 **
COMMENT **                 **
COMMENT **                 **
COMMENT **                 **
COMMENT **                 **
COMMENT **                 **
COMMENT **                 **
COMMENT **                 **
COMMENT **                 **
COMMENT **                 **
COMMENT **                 **
COMMENT *********************
COMMENT *********************
FFFFF8
FFFFF8
C00018
C00018
C00018
C00018
C00018
C00018
C00018
C00018
C00018
C00018
C00018
C00018
C00018
C00018
C00018
C00018
C00018
FFFFF8
FFFFF8
ENDCHAR
STARTCHAR 337
ENCODING 570
SWIDTH 2 0
DWIDTH 7 0
BBX 3 6 2 11
BITMAP
COMMENT  **
COMMENT  * 
COMMENT  * 
COMMENT ** 
COMMENT *  
COMMENT *  
60
40
40
C0
80
80
ENDCHAR
STARTCHAR 338
ENCODING 571
SWIDTH 3 0
DWIDTH 9 0
BBX 7 6 1 11
BITMAP
COMMENT  **  **
COMMENT  *   * 
COMMENT  *   * 
COMMENT **  ** 
COMMENT *   *  
COMMENT *   *  
66
44
44
CC
88
88
ENDCHAR
STARTCHAR 339
ENCODING 572
SWIDTH 2 0
DWIDTH 7 0
BBX 7 7 1 10
BITMAP
COMMENT   ***  
COMMENT  *   * 
COMMENT *     *
COMMENT *     *
COMMENT *     *
COMMENT  *   * 
COMMENT   ***  
38
44
82
82
82
44
38
ENDCHAR
STARTCHAR 340
ENCODING 573
SWIDTH 5 0
DWIDTH 12 0
BBX 9 24 1 -6
BITMAP
COMMENT    **    
COMMENT   ****   
COMMENT   ****   
COMMENT  ******  
COMMENT  * ** *  
COMMENT ** ** ** 
COMMENT *  **  * 
COMMENT    **    
COMMENT    **    
COMMENT    **    
COMMENT    **    
COMMENT    **    
COMMENT    **    
COMMENT    **    
COMMENT *  **  * 
COMMENT ** ** ** 
COMMENT  * ** *  
COMMENT  ******  
COMMENT   ****   
COMMENT   ****   
COMMENT    **    
COMMENT          
COMMENT ******** 
COMMENT ******** 
1800
3C00
3C00
7E00
5A00
DB00
9900
1800
1800
1800
1800
1800
1800
1800
9900
DB00
5A00
7E00
3C00
3C00
1800
0000
FF00
FF00
ENDCHAR
STARTCHAR 341
ENCODING 575
SWIDTH 5 0
DWIDTH 14 0
BBX 7 7 4 5
BITMAP
COMMENT   ***  
COMMENT  ***** 
COMMENT *******
COMMENT *******
COMMENT *******
COMMENT  ***** 
COMMENT   ***  
38
7C
FE
FE
FE
7C
38
ENDCHAR
STARTCHAR 342
ENCODING 576
SWIDTH 6 0
DWIDTH 16 0
BBX 12 12 2 2
BITMAP
COMMENT     ****    
COMMENT   ********  
COMMENT  ********** 
COMMENT  ********** 
COMMENT ************
COMMENT ************
COMMENT ************
COMMENT ************
COMMENT  ********** 
COMMENT  ********** 
COMMENT   ********  
COMMENT     ****    
0F00
3FC0
7FE0
7FE0
FFF0
FFF0
FFF0
FFF0
7FE0
7FE0
3FC0
0F00
ENDCHAR
STARTCHAR 343
ENCODING 577
SWIDTH 7 0
DWIDTH 18 0
BBX 17 17 1 -1
BITMAP
COMMENT       *****      
COMMENT     *********    
COMMENT    ***********   
COMMENT   *************  
COMMENT  *************** 
COMMENT  *************** 
COMMENT *****************
COMMENT *****************
COMMENT *****************
COMMENT *****************
COMMENT *****************
COMMENT  *************** 
COMMENT  *************** 
COMMENT   *************  
COMMENT   *************  
COMMENT     *********    
COMMENT       *****      
03E000
0FF800
1FFC00
3FFE00
7FFF00
7FFF00
FFFF80
FFFF80
FFFF80
FFFF80
FFFF80
7FFF00
7FFF00
3FFE00
3FFE00
0FF800
03E000
ENDCHAR
STARTCHAR 344
ENCODING 579
SWIDTH 10 0
DWIDTH 24 0
BBX 24 24 0 -6
BITMAP
COMMENT ************************
COMMENT ************************
COMMENT ************************
COMMENT ************************
COMMENT ************************
COMMENT ************************
COMMENT **********    **********
COMMENT ********        ********
COMMENT *******          *******
COMMENT *******          *******
COMMENT ******            ******
COMMENT ******            ******
COMMENT ******            ******
COMMENT ******            ******
COMMENT *******          *******
COMMENT *******          *******
COMMENT ********        ********
COMMENT **********    **********
COMMENT ************************
COMMENT ************************
COMMENT ************************
COMMENT ************************
COMMENT ************************
COMMENT ************************
FFFFFF
FFFFFF
FFFFFF
FFFFFF
FFFFFF
FFFFFF
FFC3FF
FF00FF
FE007F
FE007F
FC003F
FC003F
FC003F
FC003F
FE007F
FE007F
FF00FF
FFC3FF
FFFFFF
FFFFFF
FFFFFF
FFFFFF
FFFFFF
FFFFFF
ENDCHAR
STARTCHAR 345
ENCODING 581
SWIDTH 5 0
DWIDTH 14 0
BBX 10 11 2 3
BITMAP
COMMENT *         
COMMENT ***       
COMMENT *****     
COMMENT ******    
COMMENT ********  
COMMENT **********
COMMENT ********  
COMMENT ******    
COMMENT *****     
COMMENT ***       
COMMENT *         
8000
E000
F800
FC00
FF00
FFC0
FF00
FC00
F800
E000
8000
ENDCHAR
STARTCHAR 346
ENCODING 582
SWIDTH 5 0
DWIDTH 14 0
BBX 10 11 2 3
BITMAP
COMMENT          *
COMMENT        ***
COMMENT      *****
COMMENT     ******
COMMENT   ********
COMMENT **********
COMMENT   ********
COMMENT     ******
COMMENT      *****
COMMENT        ***
COMMENT          *
0040
01C0
07C0
0FC0
3FC0
FFC0
3FC0
0FC0
07C0
01C0
0040
ENDCHAR
STARTCHAR 347
ENCODING 583
SWIDTH 5 0
DWIDTH 14 0
BBX 11 10 2 3
BITMAP
COMMENT ***********
COMMENT  ********* 
COMMENT  ********* 
COMMENT   *******  
COMMENT   *******  
COMMENT    *****   
COMMENT     ***    
COMMENT     ***    
COMMENT      *     
COMMENT      *     
FFE0
7FC0
7FC0
3F80
3F80
1F00
0E00
0E00
0400
0400
ENDCHAR
STARTCHAR 348
ENCODING 584
SWIDTH 5 0
DWIDTH 14 0
BBX 11 10 2 3
BITMAP
COMMENT      *     
COMMENT      *     
COMMENT     ***    
COMMENT     ***    
COMMENT    *****   
COMMENT   *******  
COMMENT   *******  
COMMENT  ********* 
COMMENT  ********* 
COMMENT ***********
0400
0400
0E00
0E00
1F00
3F80
3F80
7FC0
7FC0
FFE0
ENDCHAR
STARTCHAR 349
ENCODING 585
SWIDTH 7 0
DWIDTH 19 0
BBX 14 19 3 -1
BITMAP
COMMENT          **   
COMMENT        *****  
COMMENT      *******  
COMMENT          * *  
COMMENT         ** ** 
COMMENT         **  **
COMMENT         *     
COMMENT        **     
COMMENT    *****      
COMMENT   **   ***    
COMMENT  *       *    
COMMENT **       **   
COMMENT *         *   
COMMENT *         *   
COMMENT *         *   
COMMENT **       **   
COMMENT  *       *    
COMMENT   **   **     
COMMENT    *****      
0060
01F0
07F0
0050
00D8
00CC
0080
0180
1F00
31C0
4040
C060
8020
8020
8020
C060
4040
3180
1F00
ENDCHAR
STARTCHAR 350
ENCODING 586
SWIDTH 7 0
DWIDTH 19 0
BBX 11 19 4 -1
BITMAP
COMMENT    *****   
COMMENT   **   **  
COMMENT  *       * 
COMMENT **       **
COMMENT *         *
COMMENT *         *
COMMENT *         *
COMMENT **       **
COMMENT  *       * 
COMMENT  ***   *** 
COMMENT    *****   
COMMENT     ***    
COMMENT     ***    
COMMENT     ***    
COMMENT     ***    
COMMENT  ********* 
COMMENT     ***    
COMMENT     ***    
COMMENT     ***    
1F00
3180
4040
C060
8020
8020
8020
C060
4040
71C0
1F00
0E00
0E00
0E00
0E00
7FC0
0E00
0E00
0E00
ENDCHAR
STARTCHAR 351
ENCODING 587
SWIDTH 9 0
DWIDTH 23 0
BBX 17 18 3 -1
BITMAP
COMMENT   ****     ****  
COMMENT  ******   ****** 
COMMENT *******   *******
COMMENT ******** ********
COMMENT *****************
COMMENT *****************
COMMENT *****************
COMMENT  *************** 
COMMENT  *************** 
COMMENT   *************  
COMMENT    ***********   
COMMENT     *********    
COMMENT     *********    
COMMENT      *******     
COMMENT       *****      
COMMENT        ***       
COMMENT        ***       
COMMENT         *        
3C1E00
7E3F00
FE3F80
FF7F80
FFFF80
FFFF80
FFFF80
7FFF00
7FFF00
3FFE00
1FFC00
0FF800
0FF800
07F000
03E000
01C000
01C000
008000
ENDCHAR
STARTCHAR 352
ENCODING 588
SWIDTH 9 0
DWIDTH 23 0
BBX 19 18 2 -1
BITMAP
COMMENT        *****       
COMMENT       *******      
COMMENT      *********     
COMMENT      *********     
COMMENT      *********     
COMMENT       *******      
COMMENT       *******      
COMMENT   ***   ***   ***  
COMMENT  ****** *** ****** 
COMMENT *******************
COMMENT *******************
COMMENT *******************
COMMENT *******************
COMMENT *******  *  *******
COMMENT  *****   *   ***** 
COMMENT   ***    *    ***  
COMMENT          *         
COMMENT         ***        
01F000
03F800
07FC00
07FC00
07FC00
03F800
03F800
38E380
7EEFC0
FFFFE0
FFFFE0
FFFFE0
FFFFE0
FE4FE0
7C47C0
384380
004000
00E000
ENDCHAR
STARTCHAR 353
ENCODING 589
SWIDTH 9 0
DWIDTH 23 0
BBX 15 18 5 -1
BITMAP
COMMENT        *       
COMMENT       ***      
COMMENT      *****     
COMMENT      *****     
COMMENT     *******    
COMMENT    *********   
COMMENT   ***********  
COMMENT  ************* 
COMMENT ***************
COMMENT ***************
COMMENT  ************* 
COMMENT   ***********  
COMMENT    *********   
COMMENT     *******    
COMMENT      *****     
COMMENT      *****     
COMMENT       ***      
COMMENT        *       
0100
0380
07C0
07C0
0FE0
1FF0
3FF8
7FFC
FFFE
FFFE
7FFC
3FF8
1FF0
0FE0
07C0
07C0
0380
0100
ENDCHAR
STARTCHAR 354
ENCODING 590
SWIDTH 9 0
DWIDTH 23 0
BBX 17 18 3 -1
BITMAP
COMMENT         *        
COMMENT        ***       
COMMENT        ***       
COMMENT       *****      
COMMENT      *******     
COMMENT     *********    
COMMENT    ***********   
COMMENT    ***********   
COMMENT   *************  
COMMENT  *************** 
COMMENT  *************** 
COMMENT *****************
COMMENT ******* * *******
COMMENT ******  *  ******
COMMENT  *****  *  ***** 
COMMENT   ***   *   ***  
COMMENT         *        
COMMENT        ***       
008000
01C000
01C000
03E000
07F000
0FF800
1FFC00
1FFC00
3FFE00
7FFF00
7FFF00
FFFF80
FEBF80
FC9F80
7C9F00
388E00
008000
01C000
ENDCHAR
STARTCHAR 355
ENCODING 591
SWIDTH 9 0
DWIDTH 22 0
BBX 14 5 4 5
BITMAP
COMMENT **************
COMMENT **************
COMMENT **************
COMMENT **************
COMMENT **************
FFFC
FFFC
FFFC
FFFC
FFFC
ENDCHAR
STARTCHAR 356
ENCODING 592
SWIDTH 5 0
DWIDTH 12 0
BBX 5 14 4 0
BITMAP
COMMENT *****
COMMENT *****
COMMENT *****
COMMENT *****
COMMENT *****
COMMENT *****
COMMENT *****
COMMENT *****
COMMENT *****
COMMENT *****
COMMENT *****
COMMENT *****
COMMENT *****
COMMENT *****
F8
F8
F8
F8
F8
F8
F8
F8
F8
F8
F8
F8
F8
F8
ENDCHAR
STARTCHAR 357
ENCODING 593
SWIDTH 10 0
DWIDTH 24 0
BBX 20 20 0 -2
BITMAP
COMMENT ****    ****    ****
COMMENT ****    ****    ****
COMMENT ****    ****    ****
COMMENT ****    ****    ****
COMMENT                     
COMMENT                     
COMMENT                     
COMMENT                     
COMMENT ****    ****    ****
COMMENT ****    ****    ****
COMMENT ****    ****    ****
COMMENT ****    ****    ****
COMMENT                     
COMMENT                     
COMMENT                     
COMMENT                     
COMMENT ****    ****    ****
COMMENT ****    ****    ****
COMMENT ****    ****    ****
COMMENT ****    ****    ****
F0F0F0
F0F0F0
F0F0F0
F0F0F0
000000
000000
000000
000000
F0F0F0
F0F0F0
F0F0F0
F0F0F0
000000
000000
000000
000000
F0F0F0
F0F0F0
F0F0F0
F0F0F0
ENDCHAR
STARTCHAR 358
ENCODING 594
SWIDTH 10 0
DWIDTH 24 0
BBX 24 24 0 -6
BITMAP
COMMENT ****    ****    ****    
COMMENT ****    ****    ****    
COMMENT ****    ****    ****    
COMMENT ****    ****    ****    
COMMENT     ****    ****    ****
COMMENT     ****    ****    ****
COMMENT     ****    ****    ****
COMMENT     ****    ****    ****
COMMENT ****    ****    ****    
COMMENT ****    ****    ****    
COMMENT ****    ****    ****    
COMMENT ****    ****    ****    
COMMENT     ****    ****    ****
COMMENT     ****    ****    ****
COMMENT     ****    ****    ****
COMMENT     ****    ****    ****
COMMENT ****    ****    ****    
COMMENT ****    ****    ****    
COMMENT ****    ****    ****    
COMMENT ****    ****    ****    
COMMENT     ****    ****    ****
COMMENT     ****    ****    ****
COMMENT     ****    ****    ****
COMMENT     ****    ****    ****
F0F0F0
F0F0F0
F0F0F0
F0F0F0
0F0F0F
0F0F0F
0F0F0F
0F0F0F
F0F0F0
F0F0F0
F0F0F0
F0F0F0
0F0F0F
0F0F0F
0F0F0F
0F0F0F
F0F0F0
F0F0F0
F0F0F0
F0F0F0
0F0F0F
0F0F0F
0F0F0F
0F0F0F
ENDCHAR
STARTCHAR 359
ENCODING 595
SWIDTH 10 0
DWIDTH 24 0
BBX 25 25 0 -7
BITMAP
COMMENT *************************
COMMENT *************************
COMMENT *************************
COMMENT *************************
COMMENT ****    ****    ****     
COMMENT ****    ****    ****     
COMMENT ****    ****    ****     
COMMENT ****    ****    ****     
COMMENT *************************
COMMENT *************************
COMMENT *************************
COMMENT *************************
COMMENT ****    ****    ****     
COMMENT ****    ****    ****     
COMMENT ****    ****    ****     
COMMENT ****    ****    ****     
COMMENT *************************
COMMENT *************************
COMMENT *************************
COMMENT *************************
COMMENT ****    ****    ****     
COMMENT ****    ****    ****     
COMMENT ****    ****    ****     
COMMENT ****    ****    ****     
COMMENT ****    ****    ****     
FFFFFF80
FFFFFF80
FFFFFF80
FFFFFF80
F0F0F000
F0F0F000
F0F0F000
F0F0F000
FFFFFF80
FFFFFF80
FFFFFF80
FFFFFF80
F0F0F000
F0F0F000
F0F0F000
F0F0F000
FFFFFF80
FFFFFF80
FFFFFF80
FFFFFF80
F0F0F000
F0F0F000
F0F0F000
F0F0F000
F0F0F000
ENDCHAR
STARTCHAR 360
ENCODING 598
SWIDTH 8 0
DWIDTH 21 0
BBX 17 17 2 0
BITMAP
COMMENT         *        
COMMENT         *        
COMMENT   *     *     *  
COMMENT    *  *****  *   
COMMENT     ***   ***    
COMMENT     *       *    
COMMENT    **       **   
COMMENT    *         *   
COMMENT ****         ****
COMMENT    *         *   
COMMENT    **       **   
COMMENT     *       *    
COMMENT     ***   ***    
COMMENT    *  *****  *   
COMMENT   *     *     *  
COMMENT         *        
COMMENT         *        
008000
008000
208200
13E400
0E3800
080800
180C00
100400
F00780
100400
180C00
080800
0E3800
13E400
208200
008000
008000
ENDCHAR
STARTCHAR 361
ENCODING 599
SWIDTH 8 0
DWIDTH 21 0
BBX 17 17 2 -1
BITMAP
COMMENT       *****      
COMMENT     **     **    
COMMENT    *         *   
COMMENT   *    * *    *  
COMMENT  *     * *     * 
COMMENT  *             * 
COMMENT *               *
COMMENT *   *       *   *
COMMENT *  **       **  *
COMMENT *   *       *   *
COMMENT *    *     **   *
COMMENT  *   **   **   * 
COMMENT  *     ****    * 
COMMENT   *           *  
COMMENT   **         **  
COMMENT     **     **    
COMMENT       *****      
03E000
0C1800
100400
214200
414100
400100
800080
880880
980C80
880880
841880
463100
41E100
200200
300600
0C1800
03E000
ENDCHAR
STARTCHAR 362
ENCODING 600
SWIDTH 8 0
DWIDTH 21 0
BBX 17 17 2 -1
BITMAP
COMMENT       *****      
COMMENT     *********    
COMMENT    ************  
COMMENT   *************  
COMMENT  ****** * ****** 
COMMENT  ****** * ****** 
COMMENT *****************
COMMENT **** ******* ****
COMMENT ***  *******  ***
COMMENT ** * ******* * **
COMMENT ****  *****  ****
COMMENT  ****  ***  **** 
COMMENT  *****     ***** 
COMMENT   *************  
COMMENT    ***********   
COMMENT     *********    
COMMENT       *****      
03E000
0FF800
1FFE00
3FFE00
7EBF00
7EBF00
FFFF80
F7F780
E7F380
D7F580
F3E780
79CF00
7C1F00
3FFE00
1FFC00
0FF800
03E000
ENDCHAR
STARTCHAR 363
ENCODING 605
SWIDTH 3 0
DWIDTH 9 0
BBX 13 22 -2 -3
BITMAP
COMMENT        **    
COMMENT   **   **    
COMMENT   **    *    
COMMENT   **   *     
COMMENT ******       
COMMENT ******       
COMMENT   **         
COMMENT   **         
COMMENT   **         
COMMENT   **         
COMMENT   **         
COMMENT   **         
COMMENT   **         
COMMENT   **         
COMMENT   **         
COMMENT   ****       
COMMENT    ***       
COMMENT              
COMMENT              
COMMENT              
COMMENT              
COMMENT              
0180
3180
3080
3100
FC00
FC00
3000
3000
3000
3000
3000
3000
3000
3000
3000
3C00
1C00
0000
0000
0000
0000
0000
ENDCHAR
STARTCHAR 364
ENCODING 606
SWIDTH 6 0
DWIDTH 16 0
BBX 20 22 -2 -3
BITMAP
COMMENT ************ **     
COMMENT ************ **     
COMMENT      **       *     
COMMENT      **      *      
COMMENT      **             
COMMENT      **             
COMMENT      **             
COMMENT      **             
COMMENT      **             
COMMENT      **             
COMMENT      **             
COMMENT      **             
COMMENT      **             
COMMENT      **             
COMMENT      **             
COMMENT      **             
COMMENT      **             
COMMENT                     
COMMENT                     
COMMENT                     
COMMENT                     
COMMENT                     
FFF600
FFF600
060200
060400
060000
060000
060000
060000
060000
060000
060000
060000
060000
060000
060000
060000
060000
000000
000000
000000
000000
000000
ENDCHAR
STARTCHAR 365
ENCODING 607
SWIDTH 5 0
DWIDTH 12 0
BBX 15 28 -2 -8
BITMAP
COMMENT      ***       
COMMENT     ** **      
COMMENT     ** **      
COMMENT    **   **     
COMMENT                
COMMENT ***      ***   
COMMENT  **      **    
COMMENT  **      **    
COMMENT  ***    ***    
COMMENT   **    **     
COMMENT   **    **     
COMMENT   ***  ***     
COMMENT    **  **      
COMMENT    **  **      
COMMENT    ******      
COMMENT     ****       
COMMENT     ****       
COMMENT     ***        
COMMENT      **        
COMMENT      **        
COMMENT     **         
COMMENT  *****         
COMMENT  ****          
COMMENT                
COMMENT                
COMMENT                
COMMENT                
COMMENT                
0700
0D80
0D80
18C0
0000
E070
6060
6060
70E0
30C0
30C0
39C0
1980
1980
1F80
0F00
0F00
0E00
0600
0600
0C00
7C00
7800
0000
0000
0000
0000
0000
ENDCHAR
STARTCHAR 366
ENCODING 608
SWIDTH 5 0
DWIDTH 14 0
BBX 19 27 -3 -3
BITMAP
COMMENT       ***          
COMMENT      ** **         
COMMENT      ** **         
COMMENT     **   **        
COMMENT                    
COMMENT                    
COMMENT ***         ***    
COMMENT  ***       ***     
COMMENT   ***      ***     
COMMENT   ***     ***      
COMMENT    ***    **       
COMMENT     **   ***       
COMMENT     ***  **        
COMMENT      ******        
COMMENT       ****         
COMMENT        **          
COMMENT        **          
COMMENT        **          
COMMENT        **          
COMMENT        **          
COMMENT        **          
COMMENT        **          
COMMENT        **          
COMMENT                    
COMMENT                    
COMMENT                    
COMMENT                    
038000
06C000
06C000
0C6000
000000
000000
E00E00
701C00
381C00
383800
1C3000
0C7000
0E6000
07E000
03C000
018000
018000
018000
018000
018000
018000
018000
018000
000000
000000
000000
000000
ENDCHAR
STARTCHAR 367
ENCODING 609
SWIDTH 4 0
DWIDTH 11 0
BBX 15 23 -2 -3
BITMAP
COMMENT      ***       
COMMENT      **        
COMMENT     **         
COMMENT    **          
COMMENT                
COMMENT **********     
COMMENT **********     
COMMENT        **      
COMMENT       **       
COMMENT      ***       
COMMENT     ***        
COMMENT     **         
COMMENT    **          
COMMENT   ***          
COMMENT  ***           
COMMENT  **            
COMMENT **********     
COMMENT **********     
COMMENT                
COMMENT                
COMMENT                
COMMENT                
COMMENT                
0700
0600
0C00
1800
0000
FFC0
FFC0
0180
0300
0700
0E00
0C00
1800
3800
7000
6000
FFC0
FFC0
0000
0000
0000
0000
0000
ENDCHAR
STARTCHAR 368
ENCODING 610
SWIDTH 5 0
DWIDTH 14 0
BBX 17 27 -2 -3
BITMAP
COMMENT       ***        
COMMENT       **         
COMMENT      **          
COMMENT     **           
COMMENT                  
COMMENT                  
COMMENT  ************    
COMMENT  ************    
COMMENT           ***    
COMMENT          ***     
COMMENT         ***      
COMMENT         **       
COMMENT        ***       
COMMENT       ***        
COMMENT      ***         
COMMENT     ***          
COMMENT     **           
COMMENT    ***           
COMMENT   ***            
COMMENT  ***             
COMMENT  **              
COMMENT *************    
COMMENT *************    
COMMENT                  
COMMENT                  
COMMENT                  
COMMENT                  
038000
030000
060000
0C0000
000000
000000
7FF800
7FF800
003800
007000
00E000
00C000
01C000
038000
070000
0E0000
0C0000
1C0000
380000
700000
600000
FFF800
FFF800
000000
000000
000000
000000
ENDCHAR
STARTCHAR 369
ENCODING 611
SWIDTH 4 0
DWIDTH 11 0
BBX 15 23 -2 -3
BITMAP
COMMENT   **   **      
COMMENT    ** **       
COMMENT    ** **       
COMMENT     ***        
COMMENT                
COMMENT **********     
COMMENT **********     
COMMENT        **      
COMMENT       **       
COMMENT      ***       
COMMENT     ***        
COMMENT     **         
COMMENT    **          
COMMENT   ***          
COMMENT  ***           
COMMENT  **            
COMMENT **********     
COMMENT **********     
COMMENT                
COMMENT                
COMMENT                
COMMENT                
COMMENT                
3180
1B00
1B00
0E00
0000
FFC0
FFC0
0180
0300
0700
0E00
0C00
1800
3800
7000
6000
FFC0
FFC0
0000
0000
0000
0000
0000
ENDCHAR
ENDFONT
